InterAlia-ExtraLightItalic.ufo
<glyph name="exclam" format="2">
  <advance height="2479.0" width="546.6666666666666"/>
  <unicode hex="0021"/>
  <outline>
    <contour>
      <point x="476.0" y="1489.0" type="line"/>
      <point x="379.3333333333333" y="1489.0" type="line"/>
      <point x="208.33333333333331" y="434.3333333333333" type="line"/>
      <point x="296.0" y="434.3333333333333" type="line"/>
    </contour>
    <component base="period" xOffset="7.0"/>
  </outline>
</glyph>
<glyph name="numbersign" format="2">
  <advance height="2479.0" width="1295.3333333333333"/>
  <unicode hex="0023"/>
  <outline>
    <contour>
      <point x="765.3333333333333" y="0.0" type="line"/>
      <point x="844.6666666666667" y="0.0" type="line"/>
      <point x="1115.3333333333335" y="1489.0" type="line"/>
      <point x="1035.6666666666665" y="1489.0" type="line"/>
    </contour>
    <contour>
      <point x="68.66666666666667" y="446.3333333333333" type="line"/>
      <point x="1179.6666666666667" y="446.3333333333333" type="line"/>
      <point x="1194.3333333333335" y="525.6666666666666" type="line"/>
      <point x="82.66666666666667" y="525.6666666666666" type="line"/>
    </contour>
    <contour>
      <point x="241.66666666666666" y="0.0" type="line"/>
      <point x="320.6666666666667" y="0.0" type="line"/>
      <point x="591.6666666666666" y="1489.0" type="line"/>
      <point x="511.6666666666666" y="1489.0" type="line"/>
    </contour>
    <contour>
      <point x="162.66666666666666" y="963.6666666666666" type="line"/>
      <point x="1273.6666666666667" y="963.6666666666666" type="line"/>
      <point x="1289.0" y="1043.3333333333333" type="line"/>
      <point x="178.0" y="1043.3333333333333" type="line"/>
    </contour>
  </outline>
</glyph>
<glyph name="percent" format="2">
  <advance height="2479.0" width="1610.0"/>
  <unicode hex="0025"/>
  <anchor x="1075.3333333333335" y="791.0" name="dnom"/>
  <anchor x="595.0" y="698.0" name="numr"/>
  <outline>
    <contour>
      <point x="878.3333333333334" y="273.6666666666667" type="line" smooth="yes"/>
      <point x="849.0" y="103.0"/>
      <point x="935.0000000000001" y="-20.0"/>
      <point x="1088.6666666666667" y="-20.0" type="curve" smooth="yes"/>
      <point x="1244.3333333333333" y="-20.0"/>
      <point x="1368.0" y="103.0"/>
      <point x="1397.3333333333333" y="273.6666666666667" type="curve" smooth="yes"/>
      <point x="1406.0" y="330.6666666666667" type="line" smooth="yes"/>
      <point x="1435.3333333333333" y="501.3333333333333"/>
      <point x="1351.0" y="624.3333333333334"/>
      <point x="1196.6666666666667" y="624.3333333333334" type="curve" smooth="yes"/>
      <point x="1041.3333333333335" y="624.3333333333334"/>
      <point x="916.3333333333334" y="501.3333333333333"/>
      <point x="887.0" y="330.6666666666667" type="curve" smooth="yes"/>
    </contour>
    <contour>
      <point x="968.0" y="330.6666666666667" type="line" smooth="yes"/>
      <point x="991.0" y="459.3333333333333"/>
      <point x="1076.6666666666667" y="551.3333333333334"/>
      <point x="1183.6666666666667" y="551.3333333333334" type="curve" smooth="yes"/>
      <point x="1292.6666666666665" y="551.3333333333334"/>
      <point x="1349.0" y="459.3333333333333"/>
      <point x="1325.3333333333333" y="330.6666666666667" type="curve" smooth="yes"/>
      <point x="1317.0" y="273.6666666666667" type="line" smooth="yes"/>
      <point x="1293.6666666666665" y="144.33333333333334"/>
      <point x="1209.6666666666665" y="52.333333333333336"/>
      <point x="1101.6666666666667" y="52.333333333333336" type="curve" smooth="yes"/>
      <point x="991.3333333333334" y="52.333333333333336"/>
      <point x="936.3333333333334" y="144.33333333333334"/>
      <point x="959.0" y="273.6666666666667" type="curve" smooth="yes"/>
    </contour>
    <contour>
      <point x="266.0" y="1158.6666666666667" type="line" smooth="yes"/>
      <point x="238.66666666666666" y="988.0"/>
      <point x="322.0" y="864.6666666666666"/>
      <point x="476.33333333333337" y="864.6666666666666" type="curve" smooth="yes"/>
      <point x="631.0" y="864.6666666666666"/>
      <point x="757.0" y="988.0"/>
      <point x="784.3333333333334" y="1158.6666666666667" type="curve" smooth="yes"/>
      <point x="794.0" y="1216.0" type="line" smooth="yes"/>
      <point x="819.3333333333334" y="1386.3333333333333"/>
      <point x="739.0" y="1510.0"/>
      <point x="582.6666666666667" y="1510.0" type="curve" smooth="yes"/>
      <point x="429.66666666666663" y="1510.0"/>
      <point x="301.0" y="1386.3333333333333"/>
      <point x="275.0" y="1216.0" type="curve" smooth="yes"/>
    </contour>
    <contour>
      <point x="356.0" y="1216.0" type="line" smooth="yes"/>
      <point x="375.6666666666667" y="1344.6666666666667"/>
      <point x="462.33333333333337" y="1437.0"/>
      <point x="570.3333333333334" y="1437.0" type="curve" smooth="yes"/>
      <point x="680.6666666666666" y="1437.0"/>
      <point x="733.6666666666666" y="1344.6666666666667"/>
      <point x="714.0" y="1216.0" type="curve" smooth="yes"/>
      <point x="704.0" y="1158.6666666666667" type="line" smooth="yes"/>
      <point x="682.0" y="1029.6666666666667"/>
      <point x="596.3333333333334" y="937.6666666666666"/>
      <point x="488.33333333333337" y="937.6666666666666" type="curve" smooth="yes"/>
      <point x="380.33333333333337" y="937.6666666666666"/>
      <point x="324.0" y="1029.6666666666667"/>
      <point x="346.0" y="1158.6666666666667" type="curve" smooth="yes"/>
    </contour>
    <component base="fraction" xOffset="521.6666666666666"/>
  </outline>
</glyph>
<glyph name="ampersand" format="2">
  <advance height="2479.0" width="1263.3333333333335"/>
  <unicode hex="0026"/>
  <outline>
    <contour>
      <point x="463.99999999999994" y="-20.0" type="curve"/>
      <point x="608.0" y="-20.0"/>
      <point x="768.3333333333334" y="42.0"/>
      <point x="886.3333333333334" y="145.33333333333334" type="curve"/>
      <point x="901.0" y="158.66666666666666"/>
      <point x="915.6666666666667" y="173.66666666666666"/>
      <point x="929.0" y="189.0" type="curve"/>
      <point x="1000.0" y="270.3333333333333"/>
      <point x="1098.0" y="391.6666666666667"/>
      <point x="1142.3333333333333" y="574.0" type="curve"/>
      <point x="1056.0" y="578.0" type="line"/>
      <point x="971.6666666666667" y="271.3333333333333"/>
      <point x="737.3333333333334" y="65.66666666666667"/>
      <point x="468.66666666666663" y="61.0" type="curve" smooth="yes"/>
      <point x="269.0" y="57.666666666666664"/>
      <point x="153.66666666666666" y="205.33333333333334"/>
      <point x="181.33333333333334" y="380.0" type="curve"/>
      <point x="196.0" y="473.3333333333333"/>
      <point x="265.3333333333333" y="565.3333333333334"/>
      <point x="450.0" y="688.6666666666666" type="curve" smooth="yes"/>
      <point x="723.3333333333334" y="871.0" type="line" smooth="yes"/>
      <point x="884.0" y="978.0"/>
      <point x="965.3333333333333" y="1075.3333333333333"/>
      <point x="986.3333333333333" y="1202.3333333333333" type="curve"/>
      <point x="1014.6666666666666" y="1374.3333333333333"/>
      <point x="908.3333333333334" y="1508.0"/>
      <point x="721.0" y="1508.0" type="curve" smooth="yes"/>
      <point x="534.3333333333333" y="1508.0"/>
      <point x="365.0" y="1365.0"/>
      <point x="335.6666666666667" y="1186.3333333333333" type="curve" smooth="yes"/>
      <point x="313.6666666666667" y="1052.0"/>
      <point x="388.0" y="954.0"/>
      <point x="501.3333333333333" y="775.6666666666666" type="curve" smooth="yes"/>
      <point x="994.6666666666666" y="0.0" type="line"/>
      <point x="1103.0" y="0.0" type="line"/>
      <point x="566.3333333333333" y="846.3333333333334" type="line" smooth="yes"/>
      <point x="469.6666666666667" y="1001.0"/>
      <point x="407.6666666666667" y="1086.3333333333333"/>
      <point x="424.0" y="1185.3333333333333" type="curve" smooth="yes"/>
      <point x="444.0" y="1311.0"/>
      <point x="581.6666666666666" y="1427.3333333333333"/>
      <point x="715.3333333333333" y="1427.3333333333333" type="curve" smooth="yes"/>
      <point x="847.3333333333334" y="1427.3333333333333"/>
      <point x="916.6666666666667" y="1326.6666666666667"/>
      <point x="897.0" y="1202.3333333333333" type="curve"/>
      <point x="880.3333333333334" y="1098.3333333333333"/>
      <point x="814.3333333333334" y="1025.3333333333333"/>
      <point x="676.0" y="935.3333333333334" type="curve"/>
      <point x="433.0" y="774.0" type="line"/>
      <point x="221.66666666666666" y="636.3333333333334"/>
      <point x="117.66666666666666" y="531.3333333333334"/>
      <point x="92.66666666666666" y="380.0" type="curve"/>
      <point x="53.666666666666664" y="154.66666666666666"/>
      <point x="208.66666666666666" y="-20.0"/>
    </contour>
  </outline>
</glyph>
<glyph name="quotesingle" format="2">
  <advance height="2479.0" width="301.6666666666667"/>
  <unicode hex="0027"/>
  <outline>
    <contour>
      <point x="354.6666666666667" y="1489.0" type="line"/>
      <point x="255.0" y="1489.0" type="line"/>
      <point x="192.00000000000003" y="1008.3333333333334" type="line"/>
      <point x="257.0" y="1008.3333333333334" type="line"/>
    </contour>
  </outline>
</glyph>
<glyph name="parenleft" format="2">
  <advance height="2479.0" width="678.0"/>
  <unicode hex="0028"/>
  <outline>
    <contour>
      <point x="243.33333333333334" y="628.0" type="curve" smooth="yes"/>
      <point x="188.33333333333334" y="298.6666666666667"/>
      <point x="220.0" y="-16.666666666666668"/>
      <point x="324.6666666666667" y="-303.0" type="curve"/>
      <point x="408.3333333333333" y="-303.0" type="line"/>
      <point x="310.6666666666667" y="-39.0"/>
      <point x="279.0" y="303.3333333333333"/>
      <point x="333.6666666666667" y="628.0" type="curve" smooth="yes"/>
      <point x="387.6666666666667" y="951.6666666666666"/>
      <point x="529.3333333333334" y="1295.6666666666665"/>
      <point x="716.6666666666666" y="1559.0" type="curve"/>
      <point x="633.3333333333334" y="1559.0" type="line"/>
      <point x="433.6666666666667" y="1275.3333333333333"/>
      <point x="299.0" y="960.3333333333334"/>
    </contour>
  </outline>
</glyph>
<glyph name="asterisk" format="2">
  <advance height="2479.0" width="1024.0"/>
  <unicode hex="002A"/>
  <outline>
    <contour>
      <point x="487.66666666666663" y="652.0" type="line"/>
      <point x="565.3333333333333" y="652.0" type="line"/>
      <point x="622.6666666666666" y="1012.6666666666666" type="line"/>
      <point x="903.3333333333334" y="827.3333333333334" type="line"/>
      <point x="949.6666666666666" y="894.6666666666666" type="line"/>
      <point x="666.3333333333334" y="1069.0" type="line"/>
      <point x="1010.6666666666666" y="1246.3333333333333" type="line"/>
      <point x="977.3333333333334" y="1313.6666666666667" type="line"/>
      <point x="640.6666666666666" y="1130.3333333333333" type="line"/>
      <point x="704.6666666666666" y="1489.0" type="line"/>
      <point x="627.3333333333333" y="1489.0" type="line"/>
      <point x="571.3333333333333" y="1128.3333333333333" type="line"/>
      <point x="289.66666666666663" y="1313.6666666666667" type="line"/>
      <point x="244.33333333333334" y="1246.3333333333333" type="line"/>
      <point x="527.6666666666666" y="1072.3333333333333" type="line"/>
      <point x="183.0" y="894.6666666666666" type="line"/>
      <point x="215.0" y="827.3333333333334" type="line"/>
      <point x="552.6666666666666" y="1010.6666666666666" type="line"/>
    </contour>
  </outline>
</glyph>
<glyph name="plus" format="2">
  <advance height="2479.0" width="1318.6666666666667"/>
  <unicode hex="002B"/>
  <outline>
    <contour>
      <point x="546.6666666666667" y="140.66666666666666" type="line"/>
      <point x="632.6666666666666" y="140.66666666666666" type="line"/>
      <point x="779.0" y="1023.3333333333334" type="line"/>
      <point x="692.6666666666667" y="1023.3333333333334" type="line"/>
    </contour>
    <contour>
      <point x="215.0" y="539.3333333333334" type="line"/>
      <point x="1097.0" y="539.3333333333334" type="line"/>
      <point x="1112.0" y="624.3333333333334" type="line"/>
      <point x="230.0" y="624.3333333333334" type="line"/>
    </contour>
  </outline>
</glyph>
<glyph name="comma" format="2">
  <advance height="2479.0" width="542.3333333333333"/>
  <unicode hex="002C"/>
  <outline>
    <contour>
      <point x="295.0" y="204.0" type="line"/>
      <point x="199.66666666666669" y="204.0" type="line"/>
      <point x="172.33333333333331" y="122.0" type="line" smooth="yes"/>
      <point x="108.33333333333333" y="-74.66666666666666"/>
      <point x="42.333333333333336" y="-259.0"/>
      <point x="6.333333333333324" y="-364.0" type="curve"/>
      <point x="75.33333333333336" y="-364.0" type="line"/>
      <point x="127.33333333333333" y="-257.0"/>
      <point x="212.66666666666666" y="-22.333333333333336"/>
      <point x="267.0" y="127.0" type="curve" smooth="yes"/>
    </contour>
  </outline>
</glyph>
<glyph name="hyphen" format="2">
  <advance height="2479.0" width="913.6666666666666"/>
  <unicode hex="002D"/>
  <outline>
    <contour>
      <point x="771.0" y="681.0" type="line"/>
      <point x="183.33333333333334" y="681.0" type="line"/>
      <point x="168.33333333333334" y="596.3333333333334" type="line"/>
      <point x="756.3333333333334" y="596.3333333333334" type="line"/>
    </contour>
  </outline>
</glyph>
<glyph name="period" format="2">
  <advance height="2479.0" width="533.3333333333334"/>
  <unicode hex="002E"/>
  <outline>
    <contour>
      <point x="182.33333333333334" y="-10.0" type="curve" smooth="yes"/>
      <point x="225.66666666666666" y="-10.0"/>
      <point x="262.3333333333333" y="25.666666666666668"/>
      <point x="264.6666666666667" y="69.0" type="curve" smooth="yes"/>
      <point x="267.3333333333333" y="111.66666666666667"/>
      <point x="233.0" y="146.33333333333334"/>
      <point x="189.66666666666669" y="146.33333333333334" type="curve" smooth="yes"/>
      <point x="146.66666666666669" y="146.33333333333334"/>
      <point x="108.99999999999999" y="112.66666666666667"/>
      <point x="107.66666666666664" y="69.0" type="curve" smooth="yes"/>
      <point x="105.99999999999999" y="25.666666666666668"/>
      <point x="138.33333333333334" y="-10.0"/>
    </contour>
  </outline>
</glyph>
<glyph name="slash" format="2">
  <advance height="2479.0" width="684.6666666666666"/>
  <unicode hex="002F"/>
  <outline>
    <contour>
      <point x="791.0" y="1559.0" type="line"/>
      <point x="704.0" y="1559.0" type="line"/>
      <point x="-69.66666666666667" y="-224.0" type="line"/>
      <point x="16.666666666666675" y="-224.0" type="line"/>
    </contour>
  </outline>
</glyph>
<glyph name="zero" format="2">
  <advance height="2479.0" width="1233.0"/>
  <unicode hex="0030"/>
  <outline>
    <contour>
      <point x="518.0" y="-20.0" type="curve" smooth="yes"/>
      <point x="817.0" y="-20.0"/>
      <point x="1043.3333333333333" y="267.0"/>
      <point x="1123.3333333333333" y="745.0" type="curve" smooth="yes"/>
      <point x="1202.0" y="1221.6666666666667"/>
      <point x="1068.9999999999998" y="1510.0"/>
      <point x="771.0" y="1510.0" type="curve" smooth="yes"/>
      <point x="473.6666666666667" y="1510.0"/>
      <point x="247.66666666666669" y="1220.6666666666667"/>
      <point x="168.66666666666669" y="745.0" type="curve" smooth="yes"/>
      <point x="90.33333333333334" y="265.33333333333337"/>
      <point x="219.66666666666669" y="-20.0"/>
    </contour>
    <contour>
      <point x="528.6666666666666" y="64.0" type="curve" smooth="yes"/>
      <point x="283.6666666666667" y="64.0"/>
      <point x="188.33333333333334" y="324.6666666666667"/>
      <point x="258.3333333333333" y="745.0" type="curve" smooth="yes"/>
      <point x="330.3333333333333" y="1180.0"/>
      <point x="523.0" y="1426.3333333333333"/>
      <point x="762.3333333333333" y="1426.3333333333333" type="curve" smooth="yes"/>
      <point x="1006.0" y="1426.3333333333333"/>
      <point x="1103.0000000000002" y="1164.0"/>
      <point x="1033.6666666666667" y="745.0" type="curve" smooth="yes"/>
      <point x="961.6666666666667" y="308.6666666666667"/>
      <point x="767.3333333333334" y="64.0"/>
    </contour>
  </outline>
</glyph>
<glyph name="one" format="2">
  <advance height="2479.0" width="873.6666666666666"/>
  <unicode hex="0031"/>
  <outline>
    <contour>
      <point x="727.3333333333334" y="1489.0" type="line"/>
      <point x="624.6666666666666" y="1489.0" type="line"/>
      <point x="256.33333333333337" y="1269.3333333333333" type="line"/>
      <point x="239.66666666666669" y="1171.6666666666667" type="line"/>
      <point x="611.0" y="1393.3333333333333" type="line"/>
      <point x="620.0000000000001" y="1393.3333333333333" type="line"/>
      <point x="388.6666666666667" y="0.0" type="line"/>
      <point x="480.33333333333337" y="0.0" type="line"/>
    </contour>
  </outline>
</glyph>
<glyph name="two" format="2">
  <advance height="2479.0" width="1260.3333333333333"/>
  <unicode hex="0032"/>
  <anchor x="852.3333333333334" y="752.6666666666666" name="cross"/>
  <outline>
    <contour>
      <point x="84.33333333333334" y="0.0" type="line"/>
      <point x="997.0" y="0.0" type="line"/>
      <point x="1011.6666666666666" y="84.66666666666667" type="line"/>
      <point x="229.6666666666667" y="84.66666666666667" type="line"/>
      <point x="230.33333333333337" y="92.0" type="line"/>
      <point x="712.6666666666666" y="558.3333333333334" type="line" smooth="yes"/>
      <point x="995.0" y="830.6666666666666"/>
      <point x="1088.3333333333335" y="950.3333333333334"/>
      <point x="1115.3333333333335" y="1116.3333333333333" type="curve" smooth="yes"/>
      <point x="1153.3333333333335" y="1340.3333333333333"/>
      <point x="1009.3333333333334" y="1510.0"/>
      <point x="773.0" y="1510.0" type="curve" smooth="yes"/>
      <point x="530.3333333333334" y="1510.0"/>
      <point x="324.66666666666663" y="1332.0"/>
      <point x="286.66666666666663" y="1101.6666666666667" type="curve"/>
      <point x="375.3333333333333" y="1101.6666666666667" type="line"/>
      <point x="406.3333333333333" y="1283.6666666666667"/>
      <point x="566.9999999999999" y="1426.3333333333333"/>
      <point x="762.3333333333334" y="1426.3333333333333" type="curve" smooth="yes"/>
      <point x="948.3333333333333" y="1426.3333333333333"/>
      <point x="1057.6666666666665" y="1298.6666666666667"/>
      <point x="1027.6666666666665" y="1116.3333333333333" type="curve" smooth="yes"/>
      <point x="1004.6666666666666" y="971.3333333333334"/>
      <point x="917.6666666666666" y="864.0"/>
      <point x="669.0" y="624.3333333333334" type="curve" smooth="yes"/>
      <point x="96.00000000000001" y="69.0" type="line"/>
    </contour>
  </outline>
</glyph>
<glyph name="three" format="2">
  <advance height="2479.0" width="1272.3333333333333"/>
  <unicode hex="0033"/>
  <outline>
    <contour>
      <point x="548.6666666666666" y="-20.0" type="curve" smooth="yes"/>
      <point x="821.0" y="-20.0"/>
      <point x="1036.0" y="151.0"/>
      <point x="1075.3333333333333" y="389.0" type="curve" smooth="yes"/>
      <point x="1107.0" y="577.6666666666666"/>
      <point x="1010.0" y="722.6666666666666"/>
      <point x="825.0" y="766.0" type="curve"/>
      <point x="825.0" y="773.0" type="line"/>
      <point x="995.6666666666666" y="821.3333333333334"/>
      <point x="1122.3333333333333" y="948.0"/>
      <point x="1148.3333333333333" y="1119.3333333333333" type="curve" smooth="yes"/>
      <point x="1185.3333333333333" y="1336.3333333333335"/>
      <point x="1045.6666666666665" y="1510.0"/>
      <point x="795.0" y="1510.0" type="curve" smooth="yes"/>
      <point x="556.0" y="1510.0"/>
      <point x="345.6666666666667" y="1348.0"/>
      <point x="305.33333333333337" y="1117.0" type="curve"/>
      <point x="395.0" y="1117.0" type="line"/>
      <point x="425.66666666666663" y="1302.3333333333333"/>
      <point x="603.9999999999999" y="1426.3333333333333"/>
      <point x="794.0" y="1426.3333333333333" type="curve" smooth="yes"/>
      <point x="990.6666666666666" y="1426.3333333333333"/>
      <point x="1088.9999999999998" y="1299.6666666666667"/>
      <point x="1059.6666666666665" y="1124.0" type="curve" smooth="yes"/>
      <point x="1029.3333333333333" y="931.3333333333333"/>
      <point x="851.0" y="808.6666666666666"/>
      <point x="642.6666666666667" y="808.6666666666666" type="curve" smooth="yes"/>
      <point x="589.6666666666666" y="808.6666666666666" type="line"/>
      <point x="576.6666666666666" y="724.6666666666666" type="line"/>
      <point x="633.6666666666667" y="724.6666666666666" type="line" smooth="yes"/>
      <point x="878.0" y="724.6666666666666"/>
      <point x="1017.3333333333334" y="591.6666666666667"/>
      <point x="986.3333333333334" y="396.6666666666667" type="curve" smooth="yes"/>
      <point x="956.3333333333334" y="206.66666666666669"/>
      <point x="769.6666666666666" y="64.0"/>
      <point x="549.6666666666666" y="64.0" type="curve" smooth="yes"/>
      <point x="341.6666666666667" y="64.0"/>
      <point x="213.00000000000003" y="191.33333333333334"/>
      <point x="239.0" y="372.0" type="curve"/>
      <point x="147.33333333333334" y="372.0" type="line"/>
      <point x="112.0" y="142.33333333333331"/>
      <point x="285.0" y="-20.0"/>
    </contour>
  </outline>
</glyph>
<glyph name="four" format="2">
  <advance height="2479.0" width="1251.0"/>
  <unicode hex="0034"/>
  <outline>
    <contour>
      <point x="103.66666666666667" y="334.3333333333333" type="line"/>
      <point x="1073.6666666666667" y="334.3333333333333" type="line"/>
      <point x="1087.6666666666667" y="419.0" type="line"/>
      <point x="228.0" y="419.0" type="line"/>
      <point x="228.0" y="426.3333333333333" type="line"/>
      <point x="954.3333333333334" y="1348.6666666666667" type="line"/>
      <point x="1002.0" y="1348.6666666666667" type="line"/>
      <point x="1023.9999999999999" y="1489.0" type="line"/>
      <point x="968.6666666666666" y="1489.0" type="line"/>
      <point x="115.33333333333334" y="407.3333333333333" type="line"/>
    </contour>
    <contour>
      <point x="737.0" y="0.0" type="line"/>
      <point x="825.0" y="0.0" type="line"/>
      <point x="1072.6666666666667" y="1489.0" type="line"/>
      <point x="984.3333333333334" y="1489.0" type="line"/>
      <point x="803.0" y="391.6666666666667" type="line"/>
      <point x="797.0" y="360.0" type="line"/>
    </contour>
  </outline>
</glyph>
<glyph name="five" format="2">
  <advance height="2479.0" width="1194.3333333333333"/>
  <unicode hex="0035"/>
  <outline>
    <contour>
      <point x="486.66666666666663" y="-20.0" type="curve" smooth="yes"/>
      <point x="753.6666666666666" y="-20.0"/>
      <point x="978.6666666666666" y="187.0"/>
      <point x="1027.0" y="466.6666666666667" type="curve" smooth="yes"/>
      <point x="1077.3333333333333" y="754.0"/>
      <point x="903.3333333333333" y="951.6666666666666"/>
      <point x="652.3333333333334" y="951.6666666666666" type="curve" smooth="yes"/>
      <point x="538.3333333333334" y="951.6666666666666"/>
      <point x="432.33333333333337" y="910.6666666666666"/>
      <point x="351.6666666666667" y="847.3333333333334" type="curve"/>
      <point x="345.0" y="847.3333333333334" type="line"/>
      <point x="505.3333333333333" y="1405.0" type="line"/>
      <point x="1126.0" y="1405.0" type="line"/>
      <point x="1140.3333333333333" y="1489.0" type="line"/>
      <point x="442.3333333333333" y="1489.0" type="line"/>
      <point x="235.33333333333334" y="775.3333333333334" type="line"/>
      <point x="335.3333333333333" y="761.3333333333334" type="line"/>
      <point x="412.0" y="822.6666666666666"/>
      <point x="525.0" y="866.0"/>
      <point x="633.0" y="866.0" type="curve" smooth="yes"/>
      <point x="839.6666666666666" y="866.0"/>
      <point x="976.6666666666666" y="706.6666666666666"/>
      <point x="937.3333333333334" y="465.6666666666667" type="curve" smooth="yes"/>
      <point x="900.6666666666666" y="237.66666666666669"/>
      <point x="711.0" y="64.0"/>
      <point x="495.3333333333333" y="64.0" type="curve" smooth="yes"/>
      <point x="306.3333333333333" y="64.0"/>
      <point x="199.00000000000003" y="192.33333333333334"/>
      <point x="224.0" y="372.0" type="curve"/>
      <point x="135.0" y="372.0" type="line"/>
      <point x="99.66666666666667" y="143.66666666666666"/>
      <point x="247.33333333333331" y="-20.0"/>
    </contour>
  </outline>
</glyph>
<glyph name="six" format="2">
  <advance height="2479.0" width="1221.0"/>
  <unicode hex="0036"/>
  <outline>
    <contour>
      <point x="529.3333333333333" y="-20.0" type="curve" smooth="yes"/>
      <point x="794.6666666666666" y="-21.0"/>
      <point x="1005.6666666666667" y="198.0"/>
      <point x="1050.0" y="452.6666666666667" type="curve" smooth="yes"/>
      <point x="1095.6666666666667" y="727.3333333333334"/>
      <point x="928.0" y="932.3333333333334"/>
      <point x="683.3333333333334" y="932.3333333333334" type="curve" smooth="yes"/>
      <point x="519.0" y="932.3333333333334"/>
      <point x="352.6666666666667" y="837.0"/>
      <point x="270.6666666666667" y="697.6666666666666" type="curve"/>
      <point x="263.00000000000006" y="693.6666666666666" type="line"/>
      <point x="342.33333333333337" y="1168.3333333333335"/>
      <point x="534.0" y="1425.3333333333333"/>
      <point x="793.6666666666667" y="1425.3333333333333" type="curve" smooth="yes"/>
      <point x="975.6666666666666" y="1425.3333333333333"/>
      <point x="1059.3333333333333" y="1298.3333333333335"/>
      <point x="1049.0" y="1117.0" type="curve"/>
      <point x="1137.6666666666667" y="1117.0" type="line"/>
      <point x="1154.0000000000002" y="1350.0"/>
      <point x="1023.0" y="1510.0"/>
      <point x="793.3333333333334" y="1510.0" type="curve" smooth="yes"/>
      <point x="442.3333333333333" y="1510.0"/>
      <point x="247.00000000000003" y="1123.6666666666667"/>
      <point x="175.33333333333334" y="682.6666666666666" type="curve" smooth="yes"/>
      <point x="92.33333333333334" y="185.66666666666666"/>
      <point x="277.3333333333333" y="-19.333333333333332"/>
    </contour>
    <contour>
      <point x="531.3333333333333" y="64.0" type="curve" smooth="yes"/>
      <point x="346.33333333333337" y="64.0"/>
      <point x="239.33333333333331" y="206.66666666666669"/>
      <point x="245.0" y="438.3333333333333" type="curve" smooth="yes"/>
      <point x="252.66666666666666" y="654.3333333333334"/>
      <point x="458.0" y="847.6666666666666"/>
      <point x="672.3333333333333" y="847.6666666666666" type="curve" smooth="yes"/>
      <point x="874.6666666666667" y="847.6666666666666"/>
      <point x="997.0" y="677.0"/>
      <point x="962.0" y="460.6666666666667" type="curve" smooth="yes"/>
      <point x="924.0" y="242.33333333333334"/>
      <point x="736.6666666666666" y="64.0"/>
    </contour>
  </outline>
</glyph>
<glyph name="seven" format="2">
  <advance height="2479.0" width="1136.3333333333333"/>
  <unicode hex="0037"/>
  <outline>
    <contour>
      <point x="123.33333333333334" y="0.0" type="line"/>
      <point x="221.0" y="0.0" type="line"/>
      <point x="1145.3333333333335" y="1402.3333333333333" type="line"/>
      <point x="1160.3333333333335" y="1489.0" type="line"/>
      <point x="266.3333333333333" y="1489.0" type="line"/>
      <point x="252.33333333333331" y="1405.0" type="line"/>
      <point x="1046.9999999999998" y="1405.0" type="line"/>
      <point x="1045.9999999999998" y="1397.3333333333333" type="line"/>
    </contour>
  </outline>
</glyph>
<glyph name="eight" format="2">
  <advance height="2479.0" width="1243.0"/>
  <unicode hex="0038"/>
  <outline>
    <contour>
      <point x="529.6666666666666" y="-20.0" type="curve" smooth="yes"/>
      <point x="797.0" y="-20.0"/>
      <point x="1030.6666666666667" y="155.33333333333331"/>
      <point x="1069.3333333333333" y="384.0" type="curve" smooth="yes"/>
      <point x="1099.6666666666667" y="566.3333333333333"/>
      <point x="996.6666666666666" y="732.0"/>
      <point x="826.3333333333334" y="770.0" type="curve"/>
      <point x="826.3333333333334" y="776.0" type="line"/>
      <point x="984.3333333333334" y="822.3333333333333"/>
      <point x="1112.6666666666667" y="958.3333333333333"/>
      <point x="1141.3333333333333" y="1122.3333333333333" type="curve" smooth="yes"/>
      <point x="1178.0" y="1341.0"/>
      <point x="1014.3333333333334" y="1510.0"/>
      <point x="775.0" y="1510.0" type="curve" smooth="yes"/>
      <point x="538.3333333333334" y="1510.0"/>
      <point x="328.66666666666663" y="1346.3333333333333"/>
      <point x="291.0" y="1130.0" type="curve" smooth="yes"/>
      <point x="261.3333333333333" y="967.0"/>
      <point x="340.33333333333337" y="823.0"/>
      <point x="482.6666666666667" y="776.0" type="curve"/>
      <point x="482.6666666666667" y="770.0" type="line"/>
      <point x="301.3333333333333" y="733.0"/>
      <point x="145.66666666666666" y="571.0"/>
      <point x="116.33333333333334" y="391.6666666666667" type="curve" smooth="yes"/>
      <point x="77.33333333333333" y="161.33333333333331"/>
      <point x="257.0" y="-20.0"/>
    </contour>
    <contour>
      <point x="529.6666666666666" y="64.0" type="curve" smooth="yes"/>
      <point x="308.6666666666667" y="64.0"/>
      <point x="177.33333333333334" y="204.66666666666669"/>
      <point x="206.66666666666666" y="389.0" type="curve" smooth="yes"/>
      <point x="237.33333333333334" y="579.0"/>
      <point x="443.33333333333337" y="729.3333333333334"/>
      <point x="663.0" y="729.3333333333334" type="curve" smooth="yes"/>
      <point x="879.6666666666667" y="729.3333333333334"/>
      <point x="1011.6666666666667" y="584.0"/>
      <point x="981.6666666666666" y="396.6666666666667" type="curve" smooth="yes"/>
      <point x="951.6666666666667" y="209.33333333333334"/>
      <point x="755.0" y="64.0"/>
    </contour>
    <contour>
      <point x="651.6666666666666" y="807.6666666666666" type="curve" smooth="yes"/>
      <point x="466.0" y="807.6666666666666"/>
      <point x="348.33333333333337" y="942.6666666666666"/>
      <point x="378.0" y="1118.3333333333333" type="curve" smooth="yes"/>
      <point x="406.00000000000006" y="1294.6666666666667"/>
      <point x="583.3333333333333" y="1426.3333333333333"/>
      <point x="776.0" y="1426.3333333333333" type="curve" smooth="yes"/>
      <point x="965.3333333333333" y="1426.3333333333333"/>
      <point x="1081.3333333333335" y="1300.3333333333335"/>
      <point x="1053.0" y="1126.0" type="curve" smooth="yes"/>
      <point x="1022.3333333333335" y="948.6666666666666"/>
      <point x="842.3333333333334" y="807.6666666666666"/>
    </contour>
  </outline>
</glyph>
<glyph name="nine" format="2">
  <advance height="2479.0" width="1221.0"/>
  <unicode hex="0039"/>
  <outline>
    <contour>
      <point x="755.6666666666667" y="1510.0" type="curve" smooth="yes"/>
      <point x="490.0" y="1511.0"/>
      <point x="279.33333333333337" y="1295.0"/>
      <point x="234.33333333333334" y="1039.3333333333333" type="curve" smooth="yes"/>
      <point x="187.33333333333334" y="765.3333333333334"/>
      <point x="357.0" y="560.6666666666666"/>
      <point x="601.0" y="560.6666666666666" type="curve" smooth="yes"/>
      <point x="766.0" y="560.6666666666666"/>
      <point x="931.6666666666667" y="655.3333333333334"/>
      <point x="1014.3333333333334" y="795.3333333333334" type="curve"/>
      <point x="1022.3333333333334" y="799.0" type="line"/>
      <point x="943.0" y="322.6666666666667"/>
      <point x="750.6666666666666" y="64.0"/>
      <point x="491.66666666666663" y="64.0" type="curve" smooth="yes"/>
      <point x="308.3333333333333" y="64.0"/>
      <point x="226.0" y="193.33333333333334"/>
      <point x="235.33333333333334" y="375.0" type="curve"/>
      <point x="147.33333333333331" y="375.0" type="line"/>
      <point x="131.0" y="142.0"/>
      <point x="261.6666666666667" y="-20.0"/>
      <point x="491.66666666666663" y="-20.0" type="curve" smooth="yes"/>
      <point x="842.6666666666666" y="-20.0"/>
      <point x="1038.0" y="367.66666666666663"/>
      <point x="1109.6666666666667" y="809.3333333333334" type="curve" smooth="yes"/>
      <point x="1190.0" y="1308.0"/>
      <point x="1007.6666666666666" y="1509.0"/>
    </contour>
    <contour>
      <point x="753.6666666666667" y="1425.3333333333333" type="curve" smooth="yes"/>
      <point x="938.6666666666666" y="1425.3333333333333"/>
      <point x="1045.6666666666667" y="1285.6666666666667"/>
      <point x="1039.3333333333333" y="1054.3333333333333" type="curve" smooth="yes"/>
      <point x="1033.0000000000002" y="838.0"/>
      <point x="827.0" y="644.6666666666666"/>
      <point x="612.6666666666666" y="644.6666666666666" type="curve" smooth="yes"/>
      <point x="410.3333333333333" y="644.6666666666666"/>
      <point x="288.0" y="815.6666666666666"/>
      <point x="323.0" y="1031.6666666666665" type="curve" smooth="yes"/>
      <point x="358.3333333333333" y="1250.6666666666667"/>
      <point x="547.6666666666666" y="1425.3333333333333"/>
    </contour>
  </outline>
</glyph>
<glyph name="less" format="2">
  <advance height="2479.0" width="1318.6666666666667"/>
  <unicode hex="003C"/>
  <outline>
    <contour>
      <point x="235.0" y="547.3333333333334" type="line"/>
      <point x="996.3333333333334" y="43.0" type="line"/>
      <point x="1013.0" y="141.66666666666669" type="line"/>
      <point x="342.0" y="583.0" type="line"/>
      <point x="349.3333333333333" y="569.0" type="line"/>
      <point x="352.3333333333333" y="594.0" type="line"/>
      <point x="343.0" y="581.0" type="line"/>
      <point x="1158.6666666666667" y="1022.3333333333334" type="line"/>
      <point x="1173.6666666666667" y="1121.0" type="line"/>
      <point x="248.0" y="616.6666666666666" type="line"/>
    </contour>
  </outline>
</glyph>
<glyph name="equal" format="2">
  <advance height="2479.0" width="1318.6666666666667"/>
  <unicode hex="003D"/>
  <outline>
    <contour>
      <point x="309.0" y="741.6666666666666" type="line"/>
      <point x="1069.6666666666667" y="741.6666666666666" type="line"/>
      <point x="1084.3333333333335" y="825.3333333333334" type="line"/>
      <point x="323.6666666666667" y="825.3333333333334" type="line"/>
    </contour>
    <contour>
      <point x="242.66666666666666" y="338.6666666666667" type="line"/>
      <point x="1003.3333333333334" y="338.6666666666667" type="line"/>
      <point x="1018.0000000000001" y="421.6666666666667" type="line"/>
      <point x="257.3333333333333" y="421.6666666666667" type="line"/>
    </contour>
  </outline>
</glyph>
<glyph name="greater" format="2">
  <advance height="2479.0" width="1318.6666666666667"/>
  <unicode hex="003E"/>
  <outline>
    <contour>
      <point x="1090.6666666666667" y="547.3333333333334" type="line"/>
      <point x="1103.6666666666667" y="616.6666666666666" type="line"/>
      <point x="342.3333333333333" y="1121.0" type="line"/>
      <point x="326.3333333333333" y="1022.3333333333334" type="line"/>
      <point x="994.6666666666666" y="581.0" type="line"/>
      <point x="989.3333333333333" y="594.0" type="line"/>
      <point x="986.3333333333333" y="569.0" type="line"/>
      <point x="993.6666666666666" y="583.0" type="line"/>
      <point x="181.0" y="141.66666666666669" type="line"/>
      <point x="165.0" y="43.0" type="line"/>
    </contour>
  </outline>
</glyph>
<glyph name="question" format="2">
  <advance height="2479.0" width="999.6666666666666"/>
  <unicode hex="003F"/>
  <outline>
    <contour>
      <point x="390.66666666666663" y="434.3333333333333" type="line"/>
      <point x="480.0" y="434.3333333333333" type="line"/>
      <point x="492.3333333333333" y="507.99999999999994" type="line" smooth="yes"/>
      <point x="516.3333333333333" y="647.0"/>
      <point x="569.3333333333333" y="713.6666666666666"/>
      <point x="717.3333333333334" y="804.6666666666667" type="curve" smooth="yes"/>
      <point x="882.6666666666666" y="906.0"/>
      <point x="961.3333333333334" y="980.3333333333333"/>
      <point x="985.3333333333334" y="1136.3333333333333" type="curve" smooth="yes"/>
      <point x="1017.3333333333334" y="1346.0"/>
      <point x="884.6666666666666" y="1510.0"/>
      <point x="654.6666666666667" y="1510.0" type="curve" smooth="yes"/>
      <point x="426.66666666666663" y="1510.0"/>
      <point x="226.33333333333334" y="1349.3333333333335"/>
      <point x="184.33333333333334" y="1117.0" type="curve"/>
      <point x="276.6666666666667" y="1117.0" type="line"/>
      <point x="310.6666666666667" y="1298.3333333333333"/>
      <point x="470.3333333333333" y="1428.3333333333333"/>
      <point x="647.0000000000001" y="1428.3333333333333" type="curve" smooth="yes"/>
      <point x="815.6666666666666" y="1428.3333333333333"/>
      <point x="921.6666666666666" y="1312.0"/>
      <point x="895.6666666666666" y="1139.3333333333333" type="curve" smooth="yes"/>
      <point x="878.0" y="1013.6666666666667"/>
      <point x="804.0" y="952.6666666666667"/>
      <point x="667.0" y="868.0" type="curve" smooth="yes"/>
      <point x="508.6666666666666" y="771.6666666666666"/>
      <point x="434.3333333333333" y="690.6666666666666"/>
      <point x="403.66666666666663" y="507.99999999999994" type="curve" smooth="yes"/>
    </contour>
    <component base="period" xOffset="192.0"/>
  </outline>
</glyph>
<glyph name="at" format="2">
  <advance height="2479.0" width="1917.0"/>
  <unicode hex="0040"/>
  <outline>
    <contour>
      <point x="821.3333333333334" y="-395.0" type="curve" smooth="yes"/>
      <point x="983.6666666666667" y="-395.0"/>
      <point x="1162.3333333333333" y="-345.0"/>
      <point x="1298.0" y="-266.3333333333333" type="curve"/>
      <point x="1276.0" y="-197.0" type="line"/>
      <point x="1161.0" y="-265.0"/>
      <point x="990.9999999999999" y="-317.0"/>
      <point x="831.0" y="-317.0" type="curve" smooth="yes"/>
      <point x="366.6666666666667" y="-317.0"/>
      <point x="98.0" y="34.0"/>
      <point x="179.66666666666666" y="519.0" type="curve" smooth="yes"/>
      <point x="258.0" y="1001.0"/>
      <point x="655.3333333333333" y="1355.6666666666667"/>
      <point x="1105.9999999999998" y="1355.6666666666667" type="curve" smooth="yes"/>
      <point x="1557.6666666666667" y="1355.6666666666667"/>
      <point x="1806.3333333333333" y="989.3333333333334"/>
      <point x="1735.6666666666667" y="560.6666666666666" type="curve" smooth="yes"/>
      <point x="1690.0" y="290.6666666666667"/>
      <point x="1562.0" y="123.33333333333334"/>
      <point x="1394.6666666666667" y="123.33333333333334" type="curve" smooth="yes"/>
      <point x="1307.3333333333335" y="123.33333333333334"/>
      <point x="1285.6666666666667" y="171.0"/>
      <point x="1305.0" y="292.6666666666667" type="curve" smooth="yes"/>
      <point x="1422.0" y="987.0" type="line"/>
      <point x="1339.0" y="987.0" type="line"/>
      <point x="1307.0" y="800.6666666666666" type="line"/>
      <point x="1300.0" y="800.6666666666666" type="line"/>
      <point x="1268.3333333333335" y="921.3333333333334"/>
      <point x="1154.3333333333333" y="1005.6666666666666"/>
      <point x="1001.3333333333334" y="1001.0" type="curve" smooth="yes"/>
      <point x="775.0" y="993.0"/>
      <point x="564.0" y="789.0"/>
      <point x="521.0" y="523.6666666666666" type="curve" smooth="yes"/>
      <point x="474.0" y="253.0"/>
      <point x="605.3333333333333" y="39.0"/>
      <point x="841.3333333333334" y="36.0" type="curve" smooth="yes"/>
      <point x="1000.0" y="34.0"/>
      <point x="1134.6666666666667" y="127.0"/>
      <point x="1212.3333333333333" y="252.0" type="curve"/>
      <point x="1219.0" y="252.0" type="line"/>
      <point x="1200.6666666666667" y="99.66666666666666"/>
      <point x="1270.6666666666667" y="46.33333333333333"/>
      <point x="1381.6666666666667" y="46.33333333333333" type="curve" smooth="yes"/>
      <point x="1622.6666666666667" y="46.33333333333333"/>
      <point x="1772.6666666666667" y="289.0"/>
      <point x="1817.0" y="559.6666666666666" type="curve" smooth="yes"/>
      <point x="1893.0" y="1029.6666666666667"/>
      <point x="1612.6666666666667" y="1432.0"/>
      <point x="1116.6666666666665" y="1432.0" type="curve" smooth="yes"/>
      <point x="613.6666666666666" y="1432.0"/>
      <point x="180.0" y="1047.3333333333333"/>
      <point x="95.0" y="521.0" type="curve" smooth="yes"/>
      <point x="7.0" y="-10.333333333333336"/>
      <point x="307.6666666666667" y="-395.0"/>
    </contour>
    <contour>
      <point x="858.0" y="116.0" type="curve" smooth="yes"/>
      <point x="661.6666666666666" y="116.0"/>
      <point x="565.6666666666666" y="303.3333333333333"/>
      <point x="602.0" y="526.6666666666666" type="curve" smooth="yes"/>
      <point x="637.0" y="743.6666666666666"/>
      <point x="814.6666666666666" y="922.0"/>
      <point x="1003.3333333333334" y="922.0" type="curve" smooth="yes"/>
      <point x="1195.6666666666665" y="922.0"/>
      <point x="1304.0" y="768.6666666666666"/>
      <point x="1265.0" y="526.6666666666666" type="curve" smooth="yes"/>
      <point x="1225.0" y="285.0"/>
      <point x="1057.0" y="116.0"/>
    </contour>
  </outline>
</glyph>
<glyph name="A" format="2">
  <advance height="2479.0" width="1303.6666666666667"/>
  <unicode hex="0041"/>
  <anchor x="558.3333333333334" y="0.0" name="bottom"/>
  <anchor x="1148.3333333333333" y="0.0" name="ogonek"/>
  <anchor x="670.3333333333334" y="1489.0" name="tonos"/>
  <anchor x="837.6666666666667" y="1676.0" name="top"/>
  <outline>
    <contour>
      <point x="64.66666666666669" y="0.0" type="line"/>
      <point x="783.6666666666666" y="1372.0" type="line"/>
      <point x="791.6666666666667" y="1372.0" type="line"/>
      <point x="1052.0" y="0.0" type="line"/>
      <point x="1148.3333333333333" y="0.0" type="line"/>
      <point x="858.0" y="1489.0" type="line"/>
      <point x="753.0" y="1489.0" type="line"/>
      <point x="-31.0" y="0.0" type="line"/>
    </contour>
    <contour>
      <point x="294.6666666666667" y="560.6666666666666" type="line"/>
      <point x="280.0" y="476.0" type="line"/>
      <point x="996.0" y="476.0" type="line"/>
      <point x="1010.0" y="560.6666666666666" type="line"/>
    </contour>
  </outline>
</glyph>
<glyph name="B" format="2">
  <advance height="2479.0" width="1318.6666666666667"/>
  <unicode hex="0042"/>
  <anchor x="547.0" y="0.0" name="bottom"/>
  <anchor x="811.6666666666666" y="1676.0" name="top"/>
  <outline>
    <contour>
      <point x="122.33333333333331" y="0.0" type="line"/>
      <point x="645.0" y="0.0" type="line" smooth="yes"/>
      <point x="932.9999999999999" y="0.0"/>
      <point x="1109.3333333333333" y="158.0"/>
      <point x="1147.3333333333333" y="386.0" type="curve" smooth="yes"/>
      <point x="1183.3333333333333" y="602.3333333333334"/>
      <point x="1069.6666666666665" y="745.6666666666667"/>
      <point x="918.3333333333334" y="758.0" type="curve"/>
      <point x="919.3333333333334" y="767.0" type="line"/>
      <point x="1063.6666666666667" y="803.6666666666666"/>
      <point x="1176.3333333333333" y="925.3333333333333"/>
      <point x="1206.3333333333333" y="1105.3333333333333" type="curve" smooth="yes"/>
      <point x="1246.3333333333333" y="1335.3333333333335"/>
      <point x="1124.3333333333335" y="1489.0"/>
      <point x="853.0" y="1489.0" type="curve" smooth="yes"/>
      <point x="369.66666666666663" y="1489.0" type="line"/>
    </contour>
    <contour>
      <point x="227.99999999999997" y="84.66666666666667" type="line"/>
      <point x="332.3333333333333" y="714.6666666666666" type="line"/>
      <point x="767.3333333333334" y="714.6666666666666" type="line" smooth="yes"/>
      <point x="971.6666666666666" y="714.6666666666666"/>
      <point x="1089.6666666666667" y="574.3333333333334"/>
      <point x="1058.6666666666667" y="386.0" type="curve" smooth="yes"/>
      <point x="1027.6666666666667" y="208.33333333333334"/>
      <point x="883.0" y="84.66666666666667"/>
      <point x="659.3333333333334" y="84.66666666666667" type="curve" smooth="yes"/>
    </contour>
    <contour>
      <point x="347.0" y="798.3333333333334" type="line"/>
      <point x="446.3333333333333" y="1405.0" type="line"/>
      <point x="839.0" y="1405.0" type="line" smooth="yes"/>
      <point x="1050.3333333333333" y="1405.0"/>
      <point x="1149.0" y="1291.0"/>
      <point x="1117.6666666666667" y="1105.3333333333333" type="curve" smooth="yes"/>
      <point x="1090.6666666666667" y="935.0"/>
      <point x="959.0" y="798.3333333333334"/>
      <point x="770.6666666666667" y="798.3333333333334" type="curve" smooth="yes"/>
    </contour>
  </outline>
</glyph>
<glyph name="C" format="2">
  <advance height="2479.0" width="1483.6666666666667"/>
  <unicode hex="0043"/>
  <anchor x="677.6666666666666" y="-4.0" name="cedilla"/>
  <anchor x="955.0" y="1676.0" name="top"/>
  <outline>
    <contour>
      <point x="1423.6666666666667" y="1024.0" type="line"/>
      <point x="1421.6666666666665" y="1267.0"/>
      <point x="1257.6666666666667" y="1510.0"/>
      <point x="922.0" y="1510.0" type="curve" smooth="yes"/>
      <point x="552.0" y="1510.0"/>
      <point x="245.66666666666669" y="1208.0"/>
      <point x="169.33333333333334" y="748.6666666666666" type="curve"/>
      <point x="92.00000000000001" y="285.0"/>
      <point x="302.6666666666667" y="-20.0"/>
      <point x="675.6666666666666" y="-20.0" type="curve" smooth="yes"/>
      <point x="1007.6666666666667" y="-20.0"/>
      <point x="1249.6666666666665" y="224.0"/>
      <point x="1333.3333333333335" y="465.0" type="curve"/>
      <point x="1240.0" y="465.0" type="line"/>
      <point x="1167.0" y="263.0"/>
      <point x="953.6666666666666" y="66.66666666666667"/>
      <point x="683.6666666666666" y="66.66666666666667" type="curve" smooth="yes"/>
      <point x="391.3333333333333" y="66.66666666666667"/>
      <point x="184.0" y="301.3333333333333"/>
      <point x="258.0" y="741.0" type="curve"/>
      <point x="330.0" y="1180.0"/>
      <point x="618.9999999999999" y="1422.3333333333333"/>
      <point x="913.6666666666666" y="1422.3333333333333" type="curve" smooth="yes"/>
      <point x="1181.0" y="1422.3333333333333"/>
      <point x="1326.6666666666667" y="1225.0"/>
      <point x="1331.6666666666667" y="1024.0" type="curve"/>
    </contour>
  </outline>
</glyph>
<glyph name="D" format="2">
  <advance height="2479.0" width="1467.3333333333333"/>
  <unicode hex="0044"/>
  <anchor x="476.66666666666663" y="0.0" name="bottom"/>
  <anchor x="305.3333333333333" y="760.0" name="cross"/>
  <anchor x="874.3333333333334" y="1676.0" name="top"/>
  <outline>
    <contour>
      <point x="537.0" y="0.0" type="line" smooth="yes"/>
      <point x="979.6666666666666" y="0.0"/>
      <point x="1277.6666666666665" y="276.0"/>
      <point x="1357.6666666666667" y="746.0" type="curve" smooth="yes"/>
      <point x="1435.6666666666665" y="1210.0"/>
      <point x="1230.6666666666667" y="1489.0"/>
      <point x="813.0" y="1489.0" type="curve" smooth="yes"/>
      <point x="416.0" y="1489.0" type="line"/>
      <point x="401.0" y="1405.0" type="line"/>
      <point x="798.3333333333334" y="1405.0" type="line" smooth="yes"/>
      <point x="1178.0" y="1405.0"/>
      <point x="1337.3333333333333" y="1166.6666666666665"/>
      <point x="1269.0" y="753.6666666666666" type="curve" smooth="yes"/>
      <point x="1202.6666666666665" y="341.3333333333333"/>
      <point x="938.0" y="84.66666666666667"/>
      <point x="545.0" y="84.66666666666667" type="curve" smooth="yes"/>
      <point x="186.33333333333334" y="84.66666666666667" type="line"/>
      <point x="171.66666666666669" y="0.0" type="line"/>
    </contour>
    <contour>
      <point x="460.3333333333333" y="1489.0" type="line"/>
      <point x="369.66666666666663" y="1489.0" type="line"/>
      <point x="122.33333333333331" y="0.0" type="line"/>
      <point x="213.33333333333331" y="0.0" type="line"/>
    </contour>
  </outline>
</glyph>
<glyph name="E" format="2">
  <advance height="2479.0" width="1205.6666666666667"/>
  <unicode hex="0045"/>
  <anchor x="511.0" y="0.0" name="bottom"/>
  <anchor x="514.0" y="0.0" name="cedilla"/>
  <anchor x="968.6666666666667" y="0.0" name="ogonek"/>
  <anchor x="319.3333333333333" y="1489.0" name="tonos"/>
  <anchor x="816.3333333333334" y="1676.0" name="top"/>
  <outline>
    <contour>
      <point x="122.33333333333331" y="0.0" type="line"/>
      <point x="968.6666666666667" y="0.0" type="line"/>
      <point x="983.3333333333334" y="84.66666666666667" type="line"/>
      <point x="227.99999999999997" y="84.66666666666667" type="line"/>
      <point x="329.3333333333333" y="702.6666666666666" type="line"/>
      <point x="1022.6666666666666" y="702.6666666666666" type="line"/>
      <point x="1037.3333333333333" y="787.3333333333334" type="line"/>
      <point x="344.0" y="787.3333333333334" type="line"/>
      <point x="446.3333333333333" y="1405.0" type="line"/>
      <point x="1183.6666666666665" y="1405.0" type="line"/>
      <point x="1198.3333333333333" y="1489.0" type="line"/>
      <point x="369.66666666666663" y="1489.0" type="line"/>
    </contour>
  </outline>
</glyph>
<glyph name="F" format="2">
  <advance height="2479.0" width="1199.6666666666667"/>
  <unicode hex="0046"/>
  <anchor x="435.3333333333333" y="12.0" name="bottom"/>
  <anchor x="234.0" y="389.6666666666667" name="cross"/>
  <anchor x="824.0" y="1676.0" name="top"/>
  <outline>
    <contour>
      <point x="122.33333333333331" y="0.0" type="line"/>
      <point x="213.33333333333331" y="0.0" type="line"/>
      <point x="329.3333333333333" y="702.6666666666666" type="line"/>
      <point x="1000.6666666666666" y="702.6666666666666" type="line"/>
      <point x="1015.3333333333333" y="787.3333333333334" type="line"/>
      <point x="344.0" y="787.3333333333334" type="line"/>
      <point x="446.3333333333333" y="1405.0" type="line"/>
      <point x="1185.6666666666665" y="1405.0" type="line"/>
      <point x="1200.6666666666665" y="1489.0" type="line"/>
      <point x="369.66666666666663" y="1489.0" type="line"/>
    </contour>
  </outline>
</glyph>
<glyph name="G" format="2">
  <advance height="2479.0" width="1530.6666666666667"/>
  <unicode hex="0047"/>
  <anchor x="665.3333333333334" y="0.0" name="bottom"/>
  <anchor x="946.0" y="1676.0" name="top"/>
  <outline>
    <contour>
      <point x="1331.3333333333333" y="1024.0" type="curve"/>
      <point x="1424.6666666666667" y="1024.0" type="line"/>
      <point x="1423.3333333333335" y="1261.3333333333333"/>
      <point x="1262.3333333333335" y="1510.0"/>
      <point x="922.3333333333334" y="1510.0" type="curve" smooth="yes"/>
      <point x="551.3333333333334" y="1510.0"/>
      <point x="244.0" y="1206.0"/>
      <point x="168.66666666666669" y="745.0" type="curve" smooth="yes"/>
      <point x="91.00000000000001" y="283.0"/>
      <point x="293.3333333333333" y="-20.0"/>
      <point x="677.0" y="-20.0" type="curve" smooth="yes"/>
      <point x="1018.6666666666667" y="-20.0"/>
      <point x="1304.0" y="219.0"/>
      <point x="1368.6666666666665" y="613.6666666666666" type="curve" smooth="yes"/>
      <point x="1383.6666666666665" y="698.3333333333334" type="line"/>
      <point x="820.6666666666666" y="698.3333333333334" type="line"/>
      <point x="805.0" y="613.6666666666666" type="line"/>
      <point x="1311.0" y="613.6666666666666" type="line"/>
      <point x="1282.3333333333333" y="629.3333333333334" type="line"/>
      <point x="1229.0" y="281.6666666666667"/>
      <point x="977.3333333333333" y="66.66666666666667"/>
      <point x="688.0" y="66.66666666666667" type="curve" smooth="yes"/>
      <point x="355.6666666666667" y="66.66666666666667"/>
      <point x="188.33333333333334" y="326.6666666666667"/>
      <point x="258.3333333333333" y="745.0" type="curve" smooth="yes"/>
      <point x="331.6666666666667" y="1180.6666666666667"/>
      <point x="622.6666666666667" y="1422.3333333333333"/>
      <point x="913.0" y="1422.3333333333333" type="curve" smooth="yes"/>
      <point x="1196.6666666666667" y="1422.3333333333333"/>
      <point x="1321.6666666666667" y="1228.3333333333335"/>
    </contour>
  </outline>
</glyph>
<glyph name="H" format="2">
  <advance height="2479.0" width="1510.0"/>
  <unicode hex="0048"/>
  <anchor x="661.0" y="0.0" name="bottom"/>
  <anchor x="173.33333333333334" y="-4.0" name="cedilla"/>
  <anchor x="1242.3333333333335" y="25.333333333333336" name="cyrtic"/>
  <anchor x="1200.3333333333333" y="0.0" name="right"/>
  <anchor x="332.66666666666663" y="1489.0" name="tonos"/>
  <anchor x="943.6666666666666" y="1677.0" name="top"/>
  <outline>
    <contour>
      <point x="122.33333333333331" y="0.0" type="line"/>
      <point x="213.33333333333331" y="0.0" type="line"/>
      <point x="329.3333333333333" y="702.6666666666666" type="line"/>
      <point x="1226.6666666666667" y="702.6666666666666" type="line"/>
      <point x="1110.6666666666667" y="0.0" type="line"/>
      <point x="1201.3333333333333" y="0.0" type="line"/>
      <point x="1448.3333333333333" y="1489.0" type="line"/>
      <point x="1357.6666666666667" y="1489.0" type="line"/>
      <point x="1241.6666666666667" y="787.3333333333334" type="line"/>
      <point x="344.0" y="787.3333333333334" type="line"/>
      <point x="460.3333333333333" y="1489.0" type="line"/>
      <point x="369.66666666666663" y="1489.0" type="line"/>
    </contour>
  </outline>
</glyph>
<glyph name="J" format="2">
  <advance height="2479.0" width="1081.3333333333335"/>
  <unicode hex="004A"/>
  <anchor x="874.6666666666666" y="884.0" name="cross"/>
  <anchor x="1005.6666666666666" y="1676.0" name="top"/>
  <outline>
    <contour>
      <point x="928.3333333333333" y="1489.0" type="line"/>
      <point x="749.3333333333333" y="407.6666666666667" type="line"/>
      <point x="708.0" y="160.66666666666666"/>
      <point x="560.0" y="64.0"/>
      <point x="397.6666666666667" y="64.0" type="curve" smooth="yes"/>
      <point x="233.66666666666666" y="64.0"/>
      <point x="125.66666666666667" y="161.66666666666669"/>
      <point x="147.66666666666666" y="302.3333333333333" type="curve"/>
      <point x="59.0" y="302.3333333333333" type="line"/>
      <point x="28.666666666666657" y="112.33333333333333"/>
      <point x="172.00000000000003" y="-20.0"/>
      <point x="390.6666666666667" y="-20.0" type="curve" smooth="yes"/>
      <point x="606.0" y="-20.0"/>
      <point x="790.3333333333334" y="106.66666666666667"/>
      <point x="840.0" y="403.6666666666667" type="curve"/>
      <point x="1019.0" y="1489.0" type="line"/>
    </contour>
  </outline>
</glyph>
<glyph name="K" format="2">
  <advance height="2479.0" width="1287.0"/>
  <unicode hex="004B"/>
  <anchor x="559.3333333333333" y="0.0" name="bottom"/>
  <anchor x="833.6666666666666" y="1676.0" name="top"/>
  <outline>
    <contour>
      <point x="122.33333333333331" y="0.0" type="line"/>
      <point x="213.33333333333331" y="0.0" type="line"/>
      <point x="295.0" y="485.0" type="line"/>
      <point x="544.6666666666666" y="719.3333333333334" type="line"/>
      <point x="1010.6666666666667" y="0.0" type="line"/>
      <point x="1124.0" y="0.0" type="line"/>
      <point x="613.6666666666666" y="784.3333333333334" type="line"/>
      <point x="1377.0" y="1489.0" type="line"/>
      <point x="1255.6666666666667" y="1489.0" type="line"/>
      <point x="326.6666666666667" y="624.3333333333334" type="line"/>
      <point x="317.0" y="624.3333333333334" type="line"/>
      <point x="460.3333333333333" y="1489.0" type="line"/>
      <point x="369.66666666666663" y="1489.0" type="line"/>
    </contour>
  </outline>
</glyph>
<glyph name="L" format="2">
  <advance height="2479.0" width="1152.0"/>
  <unicode hex="004C"/>
  <anchor x="534.0" y="0.0" name="bottom"/>
  <anchor x="295.6666666666667" y="768.0" name="cross"/>
  <anchor x="639.0" y="763.3333333333334" name="dot"/>
  <anchor x="775.0" y="1489.0" name="raccent"/>
  <anchor x="448.0" y="1676.0" name="top"/>
  <outline>
    <contour>
      <point x="122.33333333333331" y="0.0" type="line"/>
      <point x="940.6666666666667" y="0.0" type="line"/>
      <point x="955.3333333333334" y="84.66666666666667" type="line"/>
      <point x="227.99999999999997" y="84.66666666666667" type="line"/>
      <point x="460.3333333333333" y="1489.0" type="line"/>
      <point x="369.66666666666663" y="1489.0" type="line"/>
    </contour>
  </outline>
</glyph>
<glyph name="M" format="2">
  <advance height="2479.0" width="1786.6666666666667"/>
  <unicode hex="004D"/>
  <anchor x="799.6666666666666" y="0.0" name="bottom"/>
  <anchor x="1471.0" y="0.0" name="right"/>
  <anchor x="1079.6666666666667" y="1676.0" name="top"/>
  <outline>
    <contour>
      <point x="369.66666666666663" y="1489.0" type="line"/>
      <point x="122.33333333333331" y="0.0" type="line"/>
      <point x="209.33333333333331" y="0.0" type="line"/>
      <point x="421.66666666666663" y="1273.3333333333333" type="line"/>
      <point x="430.66666666666663" y="1273.3333333333333" type="line"/>
      <point x="757.3333333333334" y="0.0" type="line"/>
      <point x="843.0" y="0.0" type="line"/>
      <point x="1594.3333333333333" y="1273.3333333333333" type="line"/>
      <point x="1602.6666666666665" y="1273.3333333333333" type="line"/>
      <point x="1390.3333333333333" y="0.0" type="line"/>
      <point x="1478.0" y="0.0" type="line"/>
      <point x="1725.0" y="1489.0" type="line"/>
      <point x="1626.0" y="1489.0" type="line"/>
      <point x="827.3333333333333" y="131.0" type="line"/>
      <point x="817.3333333333334" y="131.0" type="line"/>
      <point x="468.6666666666667" y="1489.0" type="line"/>
    </contour>
  </outline>
</glyph>
<glyph name="N" format="2">
  <advance height="2479.0" width="1569.6666666666665"/>
  <unicode hex="004E"/>
  <anchor x="691.3333333333334" y="0.0" name="bottom"/>
  <anchor x="1226.3333333333335" y="0.0" name="right"/>
  <anchor x="970.3333333333334" y="1676.0" name="top"/>
  <outline>
    <contour>
      <point x="1508.0" y="1489.0" type="line"/>
      <point x="1417.3333333333333" y="1489.0" type="line"/>
      <point x="1197.6666666666665" y="163.66666666666669" type="line"/>
      <point x="1189.0" y="163.66666666666669" type="line"/>
      <point x="458.3333333333333" y="1489.0" type="line"/>
      <point x="369.66666666666663" y="1489.0" type="line"/>
      <point x="122.33333333333331" y="0.0" type="line"/>
      <point x="213.33333333333331" y="0.0" type="line"/>
      <point x="433.66666666666663" y="1324.3333333333333" type="line"/>
      <point x="442.3333333333333" y="1324.3333333333333" type="line"/>
      <point x="1171.3333333333333" y="0.0" type="line"/>
      <point x="1260.6666666666667" y="0.0" type="line"/>
    </contour>
  </outline>
</glyph>
<glyph name="O" format="2">
  <advance height="2479.0" width="1539.6666666666667"/>
  <unicode hex="004F"/>
  <anchor x="680.6666666666666" y="2.0" name="bottom"/>
  <anchor x="753.6666666666666" y="0.0" name="ogonek"/>
  <anchor x="357.6666666666667" y="1489.0" name="tonos"/>
  <anchor x="951.0" y="1676.0" name="top"/>
  <outline>
    <contour>
      <point x="1429.3333333333333" y="741.0" type="curve"/>
      <point x="1507.6666666666665" y="1204.6666666666665"/>
      <point x="1295.3333333333335" y="1510.0"/>
      <point x="924.0" y="1510.0" type="curve" smooth="yes"/>
      <point x="553.9999999999999" y="1510.0"/>
      <point x="247.66666666666669" y="1207.3333333333335"/>
      <point x="169.33333333333334" y="748.6666666666666" type="curve"/>
      <point x="94.66666666666667" y="287.0"/>
      <point x="299.33333333333337" y="-20.0"/>
      <point x="677.6666666666666" y="-20.0" type="curve" smooth="yes"/>
      <point x="1047.0" y="-20.0"/>
      <point x="1354.0" y="282.0"/>
    </contour>
    <contour>
      <point x="1341.0" y="748.6666666666666" type="curve"/>
      <point x="1275.0" y="334.0"/>
      <point x="1000.3333333333334" y="66.66666666666667"/>
      <point x="677.6666666666666" y="66.66666666666667" type="curve" smooth="yes"/>
      <point x="362.0" y="66.66666666666667"/>
      <point x="188.66666666666666" y="326.0"/>
      <point x="258.0" y="741.0" type="curve"/>
      <point x="329.3333333333333" y="1158.0"/>
      <point x="603.0" y="1422.3333333333333"/>
      <point x="923.0" y="1422.3333333333333" type="curve" smooth="yes"/>
      <point x="1235.3333333333333" y="1422.3333333333333"/>
      <point x="1410.3333333333333" y="1164.3333333333335"/>
    </contour>
  </outline>
</glyph>
<glyph name="P" format="2">
  <advance height="2479.0" width="1260.3333333333333"/>
  <unicode hex="0050"/>
  <anchor x="328.6666666666667" y="1489.0" name="tonos"/>
  <anchor x="827.0" y="1676.0" name="top"/>
  <outline>
    <contour>
      <point x="122.33333333333331" y="0.0" type="line"/>
      <point x="213.33333333333331" y="0.0" type="line"/>
      <point x="446.3333333333333" y="1405.0" type="line"/>
      <point x="812.0" y="1405.0" type="line" smooth="yes"/>
      <point x="1041.6666666666667" y="1405.0"/>
      <point x="1151.6666666666665" y="1255.0"/>
      <point x="1117.3333333333333" y="1041.3333333333333" type="curve" smooth="yes"/>
      <point x="1082.3333333333333" y="831.0"/>
      <point x="921.6666666666667" y="678.6666666666666"/>
      <point x="692.6666666666666" y="678.6666666666666" type="curve" smooth="yes"/>
      <point x="298.3333333333333" y="678.6666666666666" type="line"/>
      <point x="284.3333333333333" y="594.6666666666666" type="line"/>
      <point x="680.0" y="594.6666666666666" type="line" smooth="yes"/>
      <point x="962.0" y="594.6666666666666"/>
      <point x="1165.3333333333333" y="785.3333333333334"/>
      <point x="1207.0" y="1041.3333333333333" type="curve" smooth="yes"/>
      <point x="1251.0" y="1300.3333333333333"/>
      <point x="1111.0" y="1489.0"/>
      <point x="828.0" y="1489.0" type="curve" smooth="yes"/>
      <point x="369.66666666666663" y="1489.0" type="line"/>
    </contour>
  </outline>
</glyph>
<glyph name="Q" format="2">
  <advance height="2479.0" width="1556.0"/>
  <unicode hex="0051"/>
  <anchor x="680.6666666666666" y="2.0" name="bottom"/>
  <anchor x="753.6666666666666" y="0.0" name="ogonek"/>
  <anchor x="357.6666666666667" y="1489.0" name="tonos"/>
  <anchor x="951.0" y="1676.0" name="top"/>
  <outline>
    <contour>
      <point x="737.6666666666666" y="465.0" type="line"/>
      <point x="994.6666666666666" y="126.0" type="line"/>
      <point x="1014.3333333333334" y="100.33333333333333" type="line"/>
      <point x="1194.6666666666667" y="-140.0" type="line"/>
      <point x="1299.3333333333335" y="-140.0" type="line"/>
      <point x="1079.6666666666667" y="152.33333333333334" type="line"/>
      <point x="1059.0" y="179.0" type="line"/>
      <point x="842.3333333333333" y="465.0" type="line"/>
    </contour>
    <component base="O"/>
  </outline>
</glyph>
<glyph name="R" format="2">
  <advance height="2479.0" width="1276.3333333333333"/>
  <unicode hex="0052"/>
  <anchor x="561.6666666666666" y="0.0" name="bottom"/>
  <anchor x="818.6666666666666" y="1676.0" name="top"/>
  <outline>
    <contour>
      <point x="122.33333333333331" y="0.0" type="line"/>
      <point x="213.33333333333331" y="0.0" type="line"/>
      <point x="446.3333333333333" y="1405.0" type="line"/>
      <point x="812.0" y="1405.0" type="line" smooth="yes"/>
      <point x="1041.6666666666667" y="1405.0"/>
      <point x="1154.6666666666665" y="1267.6666666666667"/>
      <point x="1120.3333333333333" y="1054.3333333333333" type="curve" smooth="yes"/>
      <point x="1085.3333333333333" y="843.6666666666667"/>
      <point x="925.6666666666666" y="707.6666666666666"/>
      <point x="697.0" y="707.6666666666666" type="curve" smooth="yes"/>
      <point x="287.6666666666667" y="707.6666666666666" type="line"/>
      <point x="274.6666666666667" y="622.6666666666666" type="line"/>
      <point x="685.6666666666666" y="622.6666666666666" type="line" smooth="yes"/>
      <point x="968.0" y="622.6666666666666"/>
      <point x="1166.3333333333333" y="798.3333333333334"/>
      <point x="1210.0" y="1054.3333333333333" type="curve" smooth="yes"/>
      <point x="1252.0" y="1313.0"/>
      <point x="1111.0" y="1489.0"/>
      <point x="828.0" y="1489.0" type="curve" smooth="yes"/>
      <point x="369.66666666666663" y="1489.0" type="line"/>
    </contour>
    <contour>
      <point x="846.3333333333334" y="675.0" type="line"/>
      <point x="745.6666666666666" y="675.0" type="line"/>
      <point x="997.6666666666666" y="0.0" type="line"/>
      <point x="1100.3333333333333" y="0.0" type="line"/>
    </contour>
  </outline>
</glyph>
<glyph name="S" format="2">
  <advance height="2479.0" width="1271.3333333333333"/>
  <unicode hex="0053"/>
  <anchor x="541.0" y="-24.0" name="bottom"/>
  <anchor x="544.6666666666666" y="0.0" name="cedilla"/>
  <anchor x="822.6666666666666" y="1676.0" name="top"/>
  <outline>
    <contour>
      <point x="1110.3333333333335" y="1113.0" type="curve"/>
      <point x="1199.3333333333333" y="1113.0" type="line"/>
      <point x="1223.3333333333333" y="1345.0"/>
      <point x="1068.3333333333333" y="1512.0"/>
      <point x="801.6666666666666" y="1512.0" type="curve" smooth="yes"/>
      <point x="534.6666666666666" y="1512.0"/>
      <point x="310.6666666666667" y="1350.6666666666667"/>
      <point x="271.33333333333337" y="1117.3333333333333" type="curve" smooth="yes"/>
      <point x="242.0" y="935.6666666666666"/>
      <point x="346.33333333333337" y="815.3333333333334"/>
      <point x="568.3333333333334" y="745.6666666666666" type="curve" smooth="yes"/>
      <point x="735.0" y="693.6666666666666" type="line" smooth="yes"/>
      <point x="937.3333333333334" y="629.6666666666666"/>
      <point x="1036.3333333333333" y="544.0"/>
      <point x="1010.3333333333333" y="387.6666666666667" type="curve" smooth="yes"/>
      <point x="978.3333333333333" y="194.00000000000003"/>
      <point x="790.6666666666666" y="61.0"/>
      <point x="550.6666666666666" y="61.0" type="curve" smooth="yes"/>
      <point x="327.33333333333337" y="61.0"/>
      <point x="187.0" y="175.66666666666669"/>
      <point x="203.66666666666666" y="360.6666666666667" type="curve"/>
      <point x="110.33333333333334" y="360.6666666666667" type="line"/>
      <point x="88.00000000000001" y="133.33333333333334"/>
      <point x="248.66666666666669" y="-24.0"/>
      <point x="536.6666666666666" y="-24.0" type="curve" smooth="yes"/>
      <point x="846.3333333333334" y="-24.0"/>
      <point x="1059.6666666666667" y="145.66666666666666"/>
      <point x="1100.0" y="386.6666666666667" type="curve" smooth="yes"/>
      <point x="1135.3333333333333" y="602.6666666666666"/>
      <point x="986.0" y="709.3333333333334"/>
      <point x="773.6666666666666" y="775.6666666666666" type="curve" smooth="yes"/>
      <point x="618.3333333333334" y="824.3333333333334" type="line" smooth="yes"/>
      <point x="448.6666666666667" y="877.3333333333334"/>
      <point x="336.0" y="966.3333333333333"/>
      <point x="362.0" y="1120.3333333333333" type="curve" smooth="yes"/>
      <point x="391.0" y="1297.0"/>
      <point x="570.3333333333334" y="1427.3333333333333"/>
      <point x="787.0" y="1427.3333333333333" type="curve" smooth="yes"/>
      <point x="1002.0" y="1427.3333333333333"/>
      <point x="1122.3333333333335" y="1302.3333333333333"/>
    </contour>
  </outline>
</glyph>
<glyph name="T" format="2">
  <advance height="2479.0" width="1276.3333333333333"/>
  <unicode hex="0054"/>
  <anchor x="544.6666666666666" y="0.0" name="bottom"/>
  <anchor x="551.0" y="-4.0" name="cedilla"/>
  <anchor x="672.6666666666666" y="768.0" name="cross"/>
  <anchor x="636.0" y="25.333333333333336" name="cyrtic"/>
  <anchor x="566.3333333333334" y="0.0" name="right"/>
  <anchor x="824.6666666666666" y="1676.0" name="top"/>
  <outline>
    <contour>
      <point x="256.3333333333333" y="1405.0" type="line"/>
      <point x="732.3333333333334" y="1405.0" type="line"/>
      <point x="499.33333333333337" y="0.0" type="line"/>
      <point x="591.0" y="0.0" type="line"/>
      <point x="823.3333333333334" y="1405.0" type="line"/>
      <point x="1299.3333333333333" y="1405.0" type="line"/>
      <point x="1314.0" y="1489.0" type="line"/>
      <point x="270.3333333333333" y="1489.0" type="line"/>
    </contour>
  </outline>
</glyph>
<glyph name="U" format="2">
  <advance height="2479.0" width="1530.0"/>
  <unicode hex="0055"/>
  <anchor x="668.0" y="-22.0" name="bottom"/>
  <anchor x="761.0" y="0.0" name="ogonek"/>
  <anchor x="741.6666666666666" y="0.0" name="right"/>
  <anchor x="949.3333333333334" y="1676.0" name="top"/>
  <outline>
    <contour>
      <point x="1376.6666666666667" y="1489.0" type="line"/>
      <point x="1214.3333333333333" y="508.0" type="line" smooth="yes"/>
      <point x="1171.3333333333333" y="252.0"/>
      <point x="947.3333333333333" y="63.0"/>
      <point x="677.0" y="63.0" type="curve" smooth="yes"/>
      <point x="407.3333333333333" y="63.0"/>
      <point x="254.33333333333331" y="252.0"/>
      <point x="297.3333333333333" y="508.0" type="curve" smooth="yes"/>
      <point x="459.66666666666663" y="1489.0" type="line"/>
      <point x="368.3333333333333" y="1489.0" type="line"/>
      <point x="205.33333333333331" y="503.0" type="line" smooth="yes"/>
      <point x="156.0" y="200.66666666666666"/>
      <point x="348.6666666666667" y="-24.0"/>
      <point x="667.3333333333334" y="-24.0" type="curve" smooth="yes"/>
      <point x="989.6666666666666" y="-24.0"/>
      <point x="1255.3333333333335" y="200.0"/>
      <point x="1305.3333333333335" y="503.0" type="curve" smooth="yes"/>
      <point x="1468.3333333333335" y="1489.0" type="line"/>
    </contour>
  </outline>
</glyph>
<glyph name="V" format="2">
  <advance height="2479.0" width="1303.6666666666667"/>
  <unicode hex="0056"/>
  <anchor x="558.0" y="0.0" name="bottom"/>
  <anchor x="835.0" y="1676.0" name="top"/>
  <outline>
    <contour>
      <point x="311.33333333333337" y="1489.0" type="line"/>
      <point x="215.0" y="1489.0" type="line"/>
      <point x="504.6666666666667" y="0.0" type="line"/>
      <point x="609.6666666666666" y="0.0" type="line"/>
      <point x="1394.3333333333333" y="1489.0" type="line"/>
      <point x="1298.6666666666667" y="1489.0" type="line"/>
      <point x="581.6666666666667" y="117.33333333333334" type="line"/>
      <point x="572.0" y="117.33333333333334" type="line"/>
    </contour>
  </outline>
</glyph>
<glyph name="W" format="2">
  <advance height="2479.0" width="1863.6666666666667"/>
  <unicode hex="0057"/>
  <anchor x="839.6666666666666" y="12.0" name="bottom"/>
  <anchor x="1113.9999999999998" y="1676.0" name="top"/>
  <outline>
    <contour>
      <point x="366.66666666666663" y="0.0" type="line"/>
      <point x="471.3333333333333" y="0.0" type="line"/>
      <point x="1055.6666666666667" y="1340.3333333333333" type="line"/>
      <point x="1063.3333333333335" y="1340.3333333333333" type="line"/>
      <point x="1202.3333333333335" y="0.0" type="line"/>
      <point x="1309.0" y="0.0" type="line"/>
      <point x="1965.3333333333335" y="1489.0" type="line"/>
      <point x="1869.6666666666667" y="1489.0" type="line"/>
      <point x="1281.6666666666665" y="140.66666666666669" type="line"/>
      <point x="1272.6666666666665" y="140.66666666666669" type="line"/>
      <point x="1139.3333333333333" y="1489.0" type="line"/>
      <point x="1028.6666666666667" y="1489.0" type="line"/>
      <point x="444.66666666666663" y="140.66666666666669" type="line"/>
      <point x="436.0" y="140.66666666666669" type="line"/>
      <point x="298.33333333333337" y="1489.0" type="line"/>
      <point x="204.66666666666669" y="1489.0" type="line"/>
    </contour>
  </outline>
</glyph>
<glyph name="Y" format="2">
  <advance height="2479.0" width="1291.6666666666667"/>
  <unicode hex="0059"/>
  <anchor x="552.6666666666666" y="0.0" name="bottom"/>
  <anchor x="653.6666666666666" y="601.0" name="cross"/>
  <anchor x="598.6666666666666" y="0.0" name="ogonek"/>
  <anchor x="180.66666666666669" y="1489.0" name="tonos"/>
  <anchor x="832.3333333333333" y="1676.0" name="top"/>
  <outline>
    <contour>
      <point x="218.33333333333334" y="1489.0" type="line"/>
      <point x="618.3333333333334" y="676.0" type="line"/>
      <point x="507.00000000000006" y="0.0" type="line"/>
      <point x="598.6666666666666" y="0.0" type="line"/>
      <point x="710.0" y="676.0" type="line"/>
      <point x="1381.6666666666667" y="1489.0" type="line"/>
      <point x="1272.3333333333333" y="1489.0" type="line"/>
      <point x="683.3333333333334" y="770.6666666666666" type="line"/>
      <point x="672.3333333333333" y="770.6666666666666" type="line"/>
      <point x="321.6666666666667" y="1489.0" type="line"/>
    </contour>
  </outline>
</glyph>
<glyph name="Z" format="2">
  <advance height="2479.0" width="1252.6666666666667"/>
  <unicode hex="005A"/>
  <anchor x="543.3333333333333" y="0.0" name="bottom"/>
  <anchor x="664.3333333333333" y="752.6666666666666" name="cross"/>
  <anchor x="817.6666666666666" y="1676.0" name="top"/>
  <outline>
    <contour>
      <point x="53.33333333333334" y="0.0" type="line"/>
      <point x="1020.3333333333333" y="0.0" type="line"/>
      <point x="1035.0" y="84.66666666666667" type="line"/>
      <point x="178.33333333333334" y="84.66666666666667" type="line"/>
      <point x="1249.6666666666665" y="1415.0" type="line"/>
      <point x="1260.3333333333333" y="1489.0" type="line"/>
      <point x="301.33333333333337" y="1489.0" type="line"/>
      <point x="288.6666666666667" y="1405.0" type="line"/>
      <point x="1135.3333333333333" y="1405.0" type="line"/>
      <point x="67.00000000000001" y="75.0" type="line"/>
    </contour>
  </outline>
</glyph>
<glyph name="bracketleft" format="2">
  <advance height="2479.0" width="678.0"/>
  <unicode hex="005B"/>
  <outline>
    <contour>
      <point x="108.33333333333333" y="-303.0" type="line"/>
      <point x="422.33333333333337" y="-303.0" type="line"/>
      <point x="436.33333333333337" y="-224.0" type="line"/>
      <point x="207.66666666666669" y="-224.0" type="line"/>
      <point x="489.0" y="1481.0" type="line"/>
      <point x="717.6666666666667" y="1481.0" type="line"/>
      <point x="731.3333333333334" y="1559.0" type="line"/>
      <point x="417.0" y="1559.0" type="line"/>
    </contour>
  </outline>
</glyph>
<glyph name="backslash" format="2">
  <advance height="2479.0" width="683.3333333333334"/>
  <unicode hex="005C"/>
  <outline>
    <contour>
      <point x="410.6666666666667" y="-224.0" type="line"/>
      <point x="493.0" y="-224.0" type="line"/>
      <point x="308.0" y="1559.0" type="line"/>
      <point x="225.66666666666666" y="1559.0" type="line"/>
    </contour>
  </outline>
</glyph>
<glyph name="asciicircum" format="2">
  <advance height="2479.0" width="866.6666666666666"/>
  <unicode hex="005E"/>
  <outline>
    <contour>
      <point x="558.3333333333333" y="1396.3333333333333" type="line"/>
      <point x="550.6666666666666" y="1341.0" type="line"/>
      <point x="587.3333333333334" y="1341.0" type="line"/>
      <point x="595.3333333333334" y="1396.3333333333333" type="line"/>
    </contour>
    <contour>
      <point x="133.0" y="815.0" type="line"/>
      <point x="227.66666666666666" y="815.0" type="line"/>
      <point x="582.6666666666666" y="1370.0" type="line"/>
      <point x="561.3333333333334" y="1370.0" type="line"/>
      <point x="727.3333333333333" y="815.0" type="line"/>
      <point x="817.3333333333333" y="815.0" type="line"/>
      <point x="623.3333333333334" y="1443.0" type="line"/>
      <point x="534.3333333333334" y="1443.0" type="line"/>
    </contour>
  </outline>
</glyph>
<glyph name="underscore" format="2">
  <advance height="2479.0" width="891.0"/>
  <unicode hex="005F"/>
  <anchor x="389.6666666666667" y="170.33333333333334" name="_bottom"/>
  <outline>
    <contour>
      <point x="801.6666666666667" y="0.0" type="line"/>
      <point x="-98.0" y="0.0" type="line"/>
      <point x="-112.66666666666667" y="-84.66666666666667" type="line"/>
      <point x="789.6666666666667" y="-84.66666666666667" type="line"/>
    </contour>
  </outline>
</glyph>
<glyph name="grave" format="2">
  <advance height="2479.0" width="1018.0"/>
  <unicode hex="0060"/>
  <anchor x="732.0" y="1303.0" name="_top"/>
  <anchor x="786.3333333333334" y="1676.0" name="top"/>
  <outline>
    <contour>
      <point x="690.3333333333334" y="1276.0" type="line"/>
      <point x="770.3333333333333" y="1276.0" type="line"/>
      <point x="629.0000000000001" y="1598.0" type="line"/>
      <point x="525.6666666666666" y="1598.0" type="line"/>
    </contour>
  </outline>
</glyph>
<glyph name="a" format="2">
  <advance height="2479.0" width="1123.6666666666667"/>
  <unicode hex="0061"/>
  <anchor x="473.66666666666663" y="0.0" name="bottom"/>
  <anchor x="843.0" y="0.0" name="ogonek"/>
  <anchor x="687.6666666666666" y="1303.0" name="rhalfring"/>
  <anchor x="689.6666666666667" y="1303.0" name="top"/>
  <outline>
    <contour>
      <point x="384.0" y="-23.666666666666668" type="curve" smooth="yes"/>
      <point x="561.6666666666666" y="-23.666666666666668"/>
      <point x="704.0" y="77.0"/>
      <point x="781.6666666666667" y="201.66666666666666" type="curve"/>
      <point x="788.3333333333334" y="201.66666666666666" type="line"/>
      <point x="754.3333333333334" y="0.0" type="line"/>
      <point x="843.0" y="0.0" type="line"/>
      <point x="972.3333333333334" y="780.6666666666666" type="line" smooth="yes"/>
      <point x="1013.3333333333334" y="1025.0"/>
      <point x="850.3333333333334" y="1134.0"/>
      <point x="651.6666666666666" y="1134.0" type="curve" smooth="yes"/>
      <point x="479.3333333333333" y="1134.0"/>
      <point x="304.6666666666667" y="1055.6666666666667"/>
      <point x="214.33333333333334" y="895.3333333333334" type="curve"/>
      <point x="292.00000000000006" y="864.0" type="line"/>
      <point x="354.3333333333333" y="972.3333333333334"/>
      <point x="487.66666666666663" y="1052.0"/>
      <point x="646.6666666666666" y="1052.0" type="curve" smooth="yes"/>
      <point x="827.0" y="1052.0"/>
      <point x="904.6666666666667" y="949.3333333333334"/>
      <point x="885.3333333333334" y="786.3333333333334" type="curve" smooth="yes"/>
      <point x="877.3333333333334" y="740.0" type="line" smooth="yes"/>
      <point x="868.0" y="654.3333333333334"/>
      <point x="735.6666666666666" y="644.6666666666666"/>
      <point x="562.3333333333334" y="624.6666666666666" type="curve" smooth="yes"/>
      <point x="258.6666666666667" y="588.6666666666667"/>
      <point x="115.33333333333331" y="493.6666666666667"/>
      <point x="83.33333333333333" y="307.6666666666667" type="curve" smooth="yes"/>
      <point x="50.33333333333333" y="95.0"/>
      <point x="191.0" y="-23.666666666666668"/>
    </contour>
    <contour>
      <point x="400.33333333333337" y="58.33333333333334" type="curve" smooth="yes"/>
      <point x="244.33333333333331" y="58.33333333333334"/>
      <point x="147.0" y="152.33333333333334"/>
      <point x="172.0" y="304.6666666666667" type="curve" smooth="yes"/>
      <point x="196.0" y="443.0"/>
      <point x="310.0" y="516.6666666666666"/>
      <point x="559.6666666666667" y="545.6666666666666" type="curve" smooth="yes"/>
      <point x="669.0" y="558.6666666666666"/>
      <point x="805.0" y="579.0"/>
      <point x="857.3333333333334" y="617.6666666666666" type="curve"/>
      <point x="829.3333333333334" y="452.6666666666667" type="line" smooth="yes"/>
      <point x="792.3333333333334" y="226.33333333333334"/>
      <point x="609.6666666666666" y="58.33333333333334"/>
    </contour>
  </outline>
</glyph>
<glyph name="b" format="2">
  <advance height="2479.0" width="1240.3333333333333"/>
  <unicode hex="0062"/>
  <anchor x="565.3333333333333" y="0.0" name="bottom"/>
  <anchor x="379.0" y="1280.0" name="cross"/>
  <anchor x="791.0" y="1303.0" name="top"/>
  <outline>
    <contour>
      <point x="122.33333333333331" y="0.0" type="line"/>
      <point x="208.33333333333331" y="0.0" type="line"/>
      <point x="249.33333333333331" y="243.33333333333331" type="line"/>
      <point x="260.3333333333333" y="243.33333333333331" type="line"/>
      <point x="289.33333333333337" y="99.0"/>
      <point x="385.0" y="-23.0"/>
      <point x="576.6666666666666" y="-23.0" type="curve" smooth="yes"/>
      <point x="846.6666666666666" y="-23.0"/>
      <point x="1062.0" y="218.33333333333334"/>
      <point x="1118.3333333333333" y="556.0" type="curve" smooth="yes"/>
      <point x="1174.3333333333333" y="892.0"/>
      <point x="1036.6666666666665" y="1134.0"/>
      <point x="767.6666666666666" y="1134.0" type="curve" smooth="yes"/>
      <point x="577.0" y="1134.0"/>
      <point x="438.3333333333333" y="1011.3333333333334"/>
      <point x="365.0" y="868.0" type="curve"/>
      <point x="356.0" y="868.0" type="line"/>
      <point x="457.3333333333333" y="1489.0" type="line"/>
      <point x="369.66666666666663" y="1489.0" type="line"/>
    </contour>
    <contour>
      <point x="302.3333333333333" y="557.0" type="curve" smooth="yes"/>
      <point x="349.3333333333333" y="841.6666666666666"/>
      <point x="525.6666666666667" y="1051.0"/>
      <point x="752.3333333333334" y="1051.0" type="curve" smooth="yes"/>
      <point x="982.3333333333334" y="1051.0"/>
      <point x="1075.6666666666667" y="836.6666666666666"/>
      <point x="1029.6666666666667" y="557.0" type="curve" smooth="yes"/>
      <point x="983.3333333333334" y="275.3333333333333"/>
      <point x="807.0" y="59.0"/>
      <point x="577.6666666666666" y="59.0" type="curve" smooth="yes"/>
      <point x="350.3333333333333" y="59.0"/>
      <point x="255.99999999999997" y="270.3333333333333"/>
    </contour>
  </outline>
</glyph>
<glyph name="c" format="2">
  <advance height="2479.0" width="1135.3333333333335"/>
  <unicode hex="0063"/>
  <anchor x="504.3333333333333" y="0.0" name="cedilla"/>
  <anchor x="715.3333333333333" y="1303.0" name="top"/>
  <outline>
    <contour>
      <point x="507.3333333333333" y="-23.0" type="curve" smooth="yes"/>
      <point x="724.6666666666667" y="-23.0"/>
      <point x="912.3333333333333" y="117.33333333333333"/>
      <point x="979.0" y="326.0" type="curve"/>
      <point x="889.3333333333334" y="326.0" type="line"/>
      <point x="833.6666666666667" y="164.66666666666669"/>
      <point x="681.0" y="59.0"/>
      <point x="516.0" y="59.0" type="curve" smooth="yes"/>
      <point x="281.33333333333337" y="59.0"/>
      <point x="163.0" y="272.0"/>
      <point x="210.33333333333334" y="557.0" type="curve" smooth="yes"/>
      <point x="257.6666666666667" y="845.3333333333333"/>
      <point x="458.6666666666667" y="1051.0"/>
      <point x="690.6666666666666" y="1051.0" type="curve" smooth="yes"/>
      <point x="857.3333333333333" y="1051.0"/>
      <point x="960.0" y="943.3333333333334"/>
      <point x="963.0" y="788.3333333333334" type="curve"/>
      <point x="1053.0000000000002" y="788.3333333333334" type="line"/>
      <point x="1054.6666666666667" y="994.0"/>
      <point x="912.0" y="1134.0"/>
      <point x="698.3333333333334" y="1134.0" type="curve" smooth="yes"/>
      <point x="416.6666666666667" y="1134.0"/>
      <point x="175.99999999999997" y="887.6666666666667"/>
      <point x="122.0" y="555.0" type="curve" smooth="yes"/>
      <point x="68.0" y="224.66666666666666"/>
      <point x="218.33333333333334" y="-23.0"/>
    </contour>
  </outline>
</glyph>
<glyph name="d" format="2">
  <advance height="2479.0" width="1242.6666666666667"/>
  <unicode hex="0064"/>
  <anchor x="510.33333333333337" y="0.0" name="bottom"/>
  <anchor x="1102.0" y="1280.0" name="cross"/>
  <anchor x="1320.6666666666667" y="1489.0" name="raccent"/>
  <anchor x="734.6666666666666" y="1489.0" name="top"/>
  <outline>
    <contour>
      <point x="472.6666666666667" y="-23.0" type="curve" smooth="yes"/>
      <point x="663.6666666666666" y="-23.0"/>
      <point x="800.0" y="100.33333333333333"/>
      <point x="877.3333333333334" y="243.33333333333331" type="curve"/>
      <point x="888.3333333333334" y="243.33333333333331" type="line"/>
      <point x="847.0" y="0.0" type="line"/>
      <point x="933.6666666666666" y="0.0" type="line"/>
      <point x="1181.0" y="1489.0" type="line"/>
      <point x="1093.0000000000002" y="1489.0" type="line"/>
      <point x="989.6666666666667" y="868.0" type="line"/>
      <point x="981.0" y="868.0" type="line"/>
      <point x="953.0" y="1011.3333333333334"/>
      <point x="856.0" y="1134.0"/>
      <point x="664.6666666666666" y="1134.0" type="curve" smooth="yes"/>
      <point x="396.6666666666667" y="1134.0"/>
      <point x="179.33333333333331" y="892.0"/>
      <point x="122.33333333333333" y="556.0" type="curve" smooth="yes"/>
      <point x="67.66666666666666" y="217.0"/>
      <point x="202.66666666666666" y="-23.0"/>
    </contour>
    <contour>
      <point x="486.99999999999994" y="59.0" type="curve" smooth="yes"/>
      <point x="257.0" y="59.0"/>
      <point x="165.33333333333334" y="275.3333333333333"/>
      <point x="211.33333333333334" y="557.0" type="curve" smooth="yes"/>
      <point x="258.0" y="836.6666666666666"/>
      <point x="431.0" y="1051.0"/>
      <point x="660.6666666666666" y="1051.0" type="curve" smooth="yes"/>
      <point x="888.0" y="1051.0"/>
      <point x="986.3333333333334" y="841.6666666666666"/>
      <point x="938.6666666666667" y="557.0" type="curve" smooth="yes"/>
      <point x="891.6666666666667" y="270.3333333333333"/>
      <point x="714.3333333333334" y="59.0"/>
    </contour>
  </outline>
</glyph>
<glyph name="e" format="2">
  <advance height="2479.0" width="1201.6666666666667"/>
  <unicode hex="0065"/>
  <anchor x="500.3333333333333" y="0.0" name="bottom"/>
  <anchor x="503.3333333333333" y="0.0" name="cedilla"/>
  <anchor x="591.3333333333333" y="0.0" name="ogonek"/>
  <anchor x="715.6666666666666" y="1303.0" name="top"/>
  <outline>
    <contour>
      <point x="523.6666666666666" y="-23.0" type="curve"/>
      <point x="744.6666666666666" y="-23.0"/>
      <point x="901.3333333333334" y="105.33333333333333"/>
      <point x="968.6666666666666" y="218.33333333333334" type="curve"/>
      <point x="895.0" y="251.0" type="line"/>
      <point x="839.3333333333333" y="167.66666666666666"/>
      <point x="716.0" y="59.0"/>
      <point x="534.3333333333333" y="59.0" type="curve" smooth="yes"/>
      <point x="274.0" y="59.0"/>
      <point x="160.33333333333334" y="256.6666666666667"/>
      <point x="207.66666666666666" y="544.6666666666666" type="curve" smooth="yes"/>
      <point x="216.33333333333334" y="589.3333333333333" type="line" smooth="yes"/>
      <point x="262.0" y="841.3333333333334"/>
      <point x="468.0" y="1051.0"/>
      <point x="685.6666666666666" y="1051.0" type="curve"/>
      <point x="899.3333333333334" y="1051.0"/>
      <point x="1024.6666666666665" y="861.3333333333334"/>
      <point x="984.3333333333333" y="619.6666666666666" type="curve"/>
      <point x="189.0" y="619.6666666666666" type="line"/>
      <point x="175.66666666666669" y="539.3333333333334" type="line"/>
      <point x="1060.3333333333335" y="539.3333333333334" type="line"/>
      <point x="1069.3333333333335" y="594.3333333333334" type="line" smooth="yes"/>
      <point x="1124.3333333333335" y="925.0"/>
      <point x="945.0" y="1134.0"/>
      <point x="694.3333333333334" y="1134.0" type="curve" smooth="yes"/>
      <point x="417.0" y="1134.0"/>
      <point x="177.99999999999997" y="887.0"/>
      <point x="122.0" y="554.0" type="curve" smooth="yes"/>
      <point x="66.33333333333333" y="220.33333333333334"/>
      <point x="220.33333333333334" y="-23.0"/>
    </contour>
  </outline>
</glyph>
<glyph name="f" format="2">
  <advance height="2479.0" width="698.3333333333334"/>
  <unicode hex="0066"/>
  <anchor x="225.0" y="0.0" name="bottom"/>
  <anchor x="332.0" y="649.0" name="cross"/>
  <anchor x="537.3333333333333" y="1676.0" name="top"/>
  <outline>
    <contour>
      <point x="699.3333333333334" y="1117.0" type="line"/>
      <point x="203.66666666666666" y="1117.0" type="line"/>
      <point x="190.0" y="1038.0" type="line"/>
      <point x="685.3333333333334" y="1038.0" type="line"/>
    </contour>
    <component base="_part.f_base"/>
  </outline>
</glyph>
<glyph name="g" format="2">
  <advance height="2479.0" width="1213.6666666666665"/>
  <unicode hex="0067"/>
  <anchor x="416.66666666666663" y="-438.0" name="bottom"/>
  <anchor x="983.0" y="560.6666666666666" name="cross"/>
  <anchor x="729.0" y="1303.0" name="top"/>
  <outline>
    <contour>
      <point x="423.99999999999994" y="-442.0" type="curve" smooth="yes"/>
      <point x="685.3333333333334" y="-442.0"/>
      <point x="881.6666666666666" y="-306.6666666666667"/>
      <point x="929.0" y="-26.0" type="curve" smooth="yes"/>
      <point x="1118.3333333333333" y="1117.0" type="line"/>
      <point x="1031.6666666666667" y="1117.0" type="line"/>
      <point x="991.3333333333334" y="868.0" type="line"/>
      <point x="981.3333333333334" y="868.0" type="line"/>
      <point x="951.0" y="1011.3333333333334"/>
      <point x="857.0" y="1134.0"/>
      <point x="664.0" y="1134.0" type="curve" smooth="yes"/>
      <point x="393.3333333333333" y="1134.0"/>
      <point x="178.66666666666666" y="894.0"/>
      <point x="122.66666666666666" y="558.6666666666666" type="curve" smooth="yes"/>
      <point x="66.66666666666666" y="223.0"/>
      <point x="211.00000000000003" y="5.666666666666668"/>
      <point x="476.0" y="5.666666666666668" type="curve" smooth="yes"/>
      <point x="659.3333333333334" y="5.666666666666668"/>
      <point x="803.6666666666667" y="110.33333333333334"/>
      <point x="877.6666666666667" y="255.0" type="curve"/>
      <point x="886.0" y="255.0" type="line"/>
      <point x="841.6666666666667" y="-22.0" type="line" smooth="yes"/>
      <point x="803.6666666666667" y="-251.0"/>
      <point x="645.0" y="-361.0"/>
      <point x="430.66666666666663" y="-361.0" type="curve" smooth="yes"/>
      <point x="249.66666666666666" y="-361.0"/>
      <point x="154.33333333333334" y="-284.66666666666663"/>
      <point x="123.33333333333334" y="-176.66666666666666" type="curve"/>
      <point x="42.66666666666668" y="-218.0" type="line"/>
      <point x="80.99999999999999" y="-356.3333333333333"/>
      <point x="215.66666666666666" y="-442.0"/>
    </contour>
    <contour>
      <point x="490.66666666666663" y="88.66666666666667" type="curve" smooth="yes"/>
      <point x="261.0" y="88.66666666666667"/>
      <point x="165.66666666666666" y="280.3333333333333"/>
      <point x="211.33333333333334" y="559.6666666666666" type="curve" smooth="yes"/>
      <point x="256.6666666666667" y="836.6666666666666"/>
      <point x="427.6666666666667" y="1051.0"/>
      <point x="658.3333333333333" y="1051.0" type="curve" smooth="yes"/>
      <point x="887.0" y="1051.0"/>
      <point x="984.6666666666667" y="841.6666666666666"/>
      <point x="938.6666666666667" y="559.6666666666666" type="curve" smooth="yes"/>
      <point x="890.3333333333334" y="267.3333333333333"/>
      <point x="714.3333333333334" y="88.66666666666667"/>
    </contour>
  </outline>
</glyph>
<glyph name="h" format="2">
  <advance height="2479.0" width="1179.3333333333333"/>
  <unicode hex="0068"/>
  <anchor x="495.66666666666663" y="0.0" name="bottom"/>
  <anchor x="140.0" y="-4.0" name="cedilla"/>
  <anchor x="354.99999999999994" y="1317.0" name="cross"/>
  <anchor x="414.99999999999994" y="1676.0" name="top"/>
  <outline>
    <contour>
      <point x="299.3333333333333" y="724.6666666666666" type="line" smooth="yes"/>
      <point x="332.3333333333333" y="919.0"/>
      <point x="494.6666666666667" y="1049.0"/>
      <point x="682.6666666666666" y="1049.0" type="curve" smooth="yes"/>
      <point x="868.0" y="1049.0"/>
      <point x="966.6666666666667" y="924.0"/>
      <point x="935.6666666666667" y="733.3333333333334" type="curve" smooth="yes"/>
      <point x="813.3333333333334" y="0.0" type="line"/>
      <point x="902.0" y="0.0" type="line"/>
      <point x="1025.0" y="737.3333333333334" type="line" smooth="yes"/>
      <point x="1066.0" y="982.6666666666667"/>
      <point x="935.0" y="1132.0"/>
      <point x="710.0" y="1132.0" type="curve" smooth="yes"/>
      <point x="548.3333333333334" y="1132.0"/>
      <point x="415.0" y="1057.0"/>
      <point x="345.0" y="941.0" type="curve"/>
      <point x="336.3333333333333" y="941.0" type="line"/>
      <point x="427.0" y="1489.0" type="line"/>
      <point x="338.33333333333337" y="1489.0" type="line"/>
      <point x="91.33333333333334" y="0.0" type="line"/>
      <point x="179.33333333333331" y="0.0" type="line"/>
    </contour>
  </outline>
</glyph>
<glyph name="k" format="2">
  <advance height="2479.0" width="1036.6666666666667"/>
  <unicode hex="006B"/>
  <anchor x="457.66666666666663" y="0.0" name="bottom"/>
  <anchor x="414.99999999999994" y="1676.0" name="top"/>
  <outline>
    <contour>
      <point x="240.33333333333334" y="436.3333333333333" type="line"/>
      <point x="443.0" y="604.3333333333334" type="line"/>
      <point x="451.6666666666667" y="608.3333333333334" type="line"/>
      <point x="1050.3333333333335" y="1117.0" type="line"/>
      <point x="931.0" y="1117.0" type="line"/>
      <point x="284.0" y="565.3333333333334" type="line"/>
      <point x="261.0" y="565.3333333333334" type="line"/>
    </contour>
    <contour>
      <point x="91.33333333333334" y="0.0" type="line"/>
      <point x="179.33333333333331" y="0.0" type="line"/>
      <point x="427.0" y="1489.0" type="line"/>
      <point x="338.33333333333337" y="1489.0" type="line"/>
    </contour>
    <contour>
      <point x="778.0" y="0.0" type="line"/>
      <point x="887.3333333333334" y="0.0" type="line"/>
      <point x="473.33333333333337" y="654.6666666666666" type="line"/>
      <point x="401.6666666666667" y="595.6666666666666" type="line"/>
    </contour>
  </outline>
</glyph>
<glyph name="l" format="2">
  <advance height="2479.0" width="456.6666666666667"/>
  <unicode hex="006C"/>
  <anchor x="135.33333333333334" y="0.0" name="bottom"/>
  <anchor x="263.6666666666667" y="768.0" name="cross"/>
  <anchor x="567.0" y="1489.0" name="raccent"/>
  <anchor x="413.99999999999994" y="1676.0" name="top"/>
  <outline>
    <contour>
      <point x="427.0" y="1489.0" type="line"/>
      <point x="338.33333333333337" y="1489.0" type="line"/>
      <point x="91.33333333333334" y="0.0" type="line"/>
      <point x="179.33333333333331" y="0.0" type="line"/>
    </contour>
  </outline>
</glyph>
<glyph name="m" format="2">
  <advance height="2479.0" width="1734.0"/>
  <unicode hex="006D"/>
  <anchor x="773.6666666666666" y="0.0" name="bottom"/>
  <anchor x="988.6666666666666" y="1303.0" name="top"/>
  <outline>
    <contour>
      <point x="91.33333333333334" y="0.0" type="line"/>
      <point x="179.33333333333331" y="0.0" type="line"/>
      <point x="301.3333333333333" y="733.3333333333334" type="line" smooth="yes"/>
      <point x="331.3333333333333" y="917.0"/>
      <point x="469.3333333333333" y="1049.0"/>
      <point x="646.0" y="1049.0" type="curve" smooth="yes"/>
      <point x="821.6666666666666" y="1049.0"/>
      <point x="883.3333333333334" y="929.6666666666667"/>
      <point x="855.3333333333334" y="755.6666666666666" type="curve" smooth="yes"/>
      <point x="729.3333333333334" y="0.0" type="line"/>
      <point x="818.0" y="0.0" type="line"/>
      <point x="943.0" y="743.0" type="line" smooth="yes"/>
      <point x="972.0" y="921.0"/>
      <point x="1098.3333333333335" y="1049.0"/>
      <point x="1283.0" y="1049.0" type="curve" smooth="yes"/>
      <point x="1455.6666666666665" y="1049.0"/>
      <point x="1523.3333333333333" y="936.3333333333334"/>
      <point x="1493.3333333333333" y="750.0" type="curve" smooth="yes"/>
      <point x="1368.3333333333333" y="0.0" type="line"/>
      <point x="1456.6666666666667" y="0.0" type="line"/>
      <point x="1581.6666666666667" y="750.0" type="line" smooth="yes"/>
      <point x="1621.6666666666667" y="986.3333333333333"/>
      <point x="1528.3333333333335" y="1132.0"/>
      <point x="1313.0" y="1132.0" type="curve" smooth="yes"/>
      <point x="1147.0" y="1132.0"/>
      <point x="1014.0" y="1047.0"/>
      <point x="950.0" y="915.6666666666666" type="curve"/>
      <point x="942.3333333333334" y="915.6666666666666" type="line"/>
      <point x="919.3333333333334" y="1048.0"/>
      <point x="836.3333333333333" y="1132.0"/>
      <point x="675.0" y="1132.0" type="curve" smooth="yes"/>
      <point x="527.3333333333333" y="1132.0"/>
      <point x="406.0" y="1060.0"/>
      <point x="343.0" y="948.3333333333334" type="curve"/>
      <point x="334.3333333333333" y="948.3333333333334" type="line"/>
      <point x="363.3333333333333" y="1117.0" type="line"/>
      <point x="277.33333333333337" y="1117.0" type="line"/>
    </contour>
  </outline>
</glyph>
<glyph name="n" format="2">
  <advance height="2479.0" width="1175.6666666666667"/>
  <unicode hex="006E"/>
  <anchor x="494.66666666666663" y="0.0" name="bottom"/>
  <anchor x="711.6666666666666" y="1303.0" name="top"/>
  <outline>
    <contour>
      <point x="299.3333333333333" y="724.6666666666666" type="line" smooth="yes"/>
      <point x="332.3333333333333" y="919.0"/>
      <point x="492.6666666666667" y="1049.0"/>
      <point x="680.0" y="1049.0" type="curve" smooth="yes"/>
      <point x="865.3333333333333" y="1049.0"/>
      <point x="962.6666666666666" y="923.0"/>
      <point x="931.6666666666666" y="733.3333333333334" type="curve" smooth="yes"/>
      <point x="809.6666666666666" y="0.0" type="line"/>
      <point x="898.0" y="0.0" type="line"/>
      <point x="1021.3333333333334" y="737.3333333333334" type="line" smooth="yes"/>
      <point x="1062.0" y="981.6666666666666"/>
      <point x="931.0" y="1132.0"/>
      <point x="707.0" y="1132.0" type="curve" smooth="yes"/>
      <point x="548.3333333333333" y="1132.0"/>
      <point x="413.0" y="1056.0"/>
      <point x="343.0" y="941.0" type="curve"/>
      <point x="334.3333333333333" y="941.0" type="line"/>
      <point x="363.3333333333333" y="1117.0" type="line"/>
      <point x="277.33333333333337" y="1117.0" type="line"/>
      <point x="91.33333333333334" y="0.0" type="line"/>
      <point x="179.33333333333331" y="0.0" type="line"/>
    </contour>
  </outline>
</glyph>
<glyph name="o" format="2">
  <advance height="2479.0" width="1198.6666666666667"/>
  <unicode hex="006F"/>
  <anchor x="506.3333333333333" y="0.0" name="bottom"/>
  <anchor x="586.3333333333334" y="0.0" name="ogonek"/>
  <anchor x="722.3333333333334" y="1303.0" name="top"/>
  <outline>
    <contour>
      <point x="508.3333333333333" y="-23.0" type="curve" smooth="yes"/>
      <point x="781.6666666666666" y="-23.0"/>
      <point x="1019.6666666666666" y="216.33333333333331"/>
      <point x="1075.0" y="547.0" type="curve" smooth="yes"/>
      <point x="1128.3333333333333" y="886.0"/>
      <point x="967.6666666666666" y="1134.0"/>
      <point x="687.3333333333334" y="1134.0" type="curve" smooth="yes"/>
      <point x="415.33333333333337" y="1134.0"/>
      <point x="177.66666666666666" y="894.0"/>
      <point x="122.66666666666666" y="562.0" type="curve" smooth="yes"/>
      <point x="67.0" y="222.0"/>
      <point x="229.33333333333334" y="-23.0"/>
    </contour>
    <contour>
      <point x="509.3333333333333" y="59.0" type="curve" smooth="yes"/>
      <point x="279.66666666666663" y="59.0"/>
      <point x="162.0" y="274.33333333333337"/>
      <point x="208.66666666666666" y="547.0" type="curve" smooth="yes"/>
      <point x="254.0" y="827.0"/>
      <point x="450.33333333333337" y="1051.0"/>
      <point x="688.3333333333334" y="1051.0" type="curve" smooth="yes"/>
      <point x="917.3333333333333" y="1051.0"/>
      <point x="1033.0" y="835.0"/>
      <point x="988.3333333333333" y="562.0" type="curve" smooth="yes"/>
      <point x="943.0" y="280.0"/>
      <point x="749.0" y="59.0"/>
    </contour>
  </outline>
</glyph>
<glyph name="p" format="2">
  <advance height="2479.0" width="1225.3333333333333"/>
  <unicode hex="0070"/>
  <anchor x="65.33333333333333" y="-419.0" name="bottom"/>
  <anchor x="1003.6666666666666" y="-502.3333333333333" name="bottom0315"/>
  <anchor x="109.99999999999999" y="-163.0" name="cross"/>
  <anchor x="760.3333333333333" y="1303.0" name="top"/>
  <outline>
    <contour>
      <point x="21.333333333333343" y="-419.0" type="line"/>
      <point x="109.66666666666664" y="-419.0" type="line"/>
      <point x="220.66666666666666" y="243.33333333333331" type="line"/>
      <point x="228.66666666666666" y="243.33333333333331" type="line"/>
      <point x="257.66666666666663" y="99.0"/>
      <point x="355.3333333333333" y="-23.0"/>
      <point x="546.0" y="-23.0" type="curve" smooth="yes"/>
      <point x="813.0" y="-23.0"/>
      <point x="1030.6666666666667" y="218.33333333333334"/>
      <point x="1087.3333333333333" y="556.0" type="curve" smooth="yes"/>
      <point x="1142.6666666666667" y="894.0"/>
      <point x="1007.0" y="1134.0"/>
      <point x="737.0" y="1134.0" type="curve" smooth="yes"/>
      <point x="543.3333333333334" y="1134.0"/>
      <point x="408.66666666666663" y="1011.3333333333333"/>
      <point x="333.3333333333333" y="868.0" type="curve"/>
      <point x="323.3333333333333" y="868.0" type="line"/>
      <point x="363.66666666666663" y="1117.0" type="line"/>
      <point x="277.6666666666667" y="1117.0" type="line"/>
    </contour>
    <contour>
      <point x="271.66666666666663" y="557.0" type="curve" smooth="yes"/>
      <point x="317.66666666666663" y="841.6666666666666"/>
      <point x="494.3333333333333" y="1051.0"/>
      <point x="721.6666666666666" y="1051.0" type="curve" smooth="yes"/>
      <point x="952.6666666666666" y="1051.0"/>
      <point x="1043.9999999999998" y="836.6666666666666"/>
      <point x="999.0" y="557.0" type="curve" smooth="yes"/>
      <point x="951.6666666666666" y="275.3333333333333"/>
      <point x="775.3333333333334" y="59.0"/>
      <point x="547.0" y="59.0" type="curve" smooth="yes"/>
      <point x="320.66666666666663" y="59.0"/>
      <point x="224.66666666666666" y="270.3333333333333"/>
    </contour>
  </outline>
</glyph>
<glyph name="q" format="2">
  <advance height="2479.0" width="1225.6666666666665"/>
  <unicode hex="0071"/>
  <anchor x="836.0" y="-419.0" name="bottom"/>
  <anchor x="877.0" y="-163.0" name="cross"/>
  <anchor x="711.0" y="1303.0" name="top"/>
  <outline>
    <contour>
      <point x="791.6666666666667" y="-419.0" type="line"/>
      <point x="879.3333333333334" y="-419.0" type="line"/>
      <point x="1134.3333333333333" y="1117.0" type="line"/>
      <point x="1047.6666666666667" y="1117.0" type="line"/>
      <point x="1005.6666666666669" y="868.0" type="line"/>
      <point x="994.6666666666669" y="868.0" type="line"/>
      <point x="965.6666666666666" y="1010.6666666666666"/>
      <point x="872.0" y="1134.0"/>
      <point x="679.6666666666666" y="1134.0" type="curve" smooth="yes"/>
      <point x="409.0" y="1134.0"/>
      <point x="193.0" y="893.3333333333334"/>
      <point x="137.99999999999997" y="556.0" type="curve" smooth="yes"/>
      <point x="82.33333333333333" y="218.33333333333334"/>
      <point x="219.66666666666666" y="-23.0"/>
      <point x="487.3333333333333" y="-23.0" type="curve" smooth="yes"/>
      <point x="677.0" y="-23.0"/>
      <point x="816.6666666666667" y="99.0"/>
      <point x="892.0" y="243.33333333333331" type="curve"/>
      <point x="900.0" y="243.33333333333331" type="line"/>
    </contour>
    <contour>
      <point x="507.99999999999994" y="59.0" type="curve" smooth="yes"/>
      <point x="279.66666666666663" y="59.0"/>
      <point x="179.33333333333334" y="275.3333333333333"/>
      <point x="226.33333333333334" y="557.0" type="curve" smooth="yes"/>
      <point x="272.3333333333333" y="836.6666666666666"/>
      <point x="442.0" y="1051.0"/>
      <point x="672.3333333333333" y="1051.0" type="curve" smooth="yes"/>
      <point x="900.6666666666667" y="1051.0"/>
      <point x="1000.3333333333335" y="841.6666666666666"/>
      <point x="953.6666666666667" y="557.0" type="curve" smooth="yes"/>
      <point x="905.6666666666667" y="270.3333333333333"/>
      <point x="734.3333333333334" y="59.0"/>
    </contour>
  </outline>
</glyph>
<glyph name="r" format="2">
  <advance height="2479.0" width="699.0"/>
  <unicode hex="0072"/>
  <anchor x="134.66666666666666" y="0.0" name="bottom"/>
  <anchor x="225.66666666666666" y="535.0" name="cross"/>
  <anchor x="548.0" y="1303.0" name="top"/>
  <outline>
    <contour>
      <point x="91.33333333333334" y="0.0" type="line"/>
      <point x="179.33333333333331" y="0.0" type="line"/>
      <point x="301.3333333333333" y="736.3333333333334" type="line" smooth="yes"/>
      <point x="331.3333333333333" y="916.0"/>
      <point x="487.66666666666663" y="1046.3333333333333"/>
      <point x="674.0" y="1046.3333333333333" type="curve" smooth="yes"/>
      <point x="697.3333333333334" y="1046.3333333333333"/>
      <point x="713.0" y="1043.3333333333333"/>
      <point x="724.3333333333334" y="1042.3333333333333" type="curve"/>
      <point x="740.0" y="1132.0" type="line"/>
      <point x="725.0" y="1133.0"/>
      <point x="710.6666666666667" y="1133.0"/>
      <point x="694.3333333333334" y="1133.0" type="curve" smooth="yes"/>
      <point x="547.3333333333333" y="1133.0"/>
      <point x="408.3333333333333" y="1057.0"/>
      <point x="342.3333333333333" y="942.6666666666666" type="curve"/>
      <point x="334.3333333333333" y="942.6666666666666" type="line"/>
      <point x="363.3333333333333" y="1117.0" type="line"/>
      <point x="277.33333333333337" y="1117.0" type="line"/>
    </contour>
  </outline>
</glyph>
<glyph name="s" format="2">
  <advance height="2479.0" width="1029.6666666666667"/>
  <unicode hex="0073"/>
  <anchor x="434.66666666666663" y="0.0" name="bottom"/>
  <anchor x="431.66666666666663" y="0.0" name="cedilla"/>
  <anchor x="651.6666666666666" y="1303.0" name="top"/>
  <outline>
    <contour>
      <point x="946.3333333333334" y="876.3333333333334" type="line"/>
      <point x="919.3333333333333" y="1040.3333333333333"/>
      <point x="816.0" y="1134.0"/>
      <point x="625.6666666666666" y="1134.0" type="curve" smooth="yes"/>
      <point x="411.6666666666667" y="1134.0"/>
      <point x="240.33333333333331" y="1012.6666666666666"/>
      <point x="210.33333333333331" y="834.3333333333334" type="curve" smooth="yes"/>
      <point x="186.33333333333331" y="688.3333333333333"/>
      <point x="261.6666666666667" y="585.6666666666667"/>
      <point x="438.3333333333333" y="540.3333333333334" type="curve" smooth="yes"/>
      <point x="608.0" y="496.6666666666667" type="line" smooth="yes"/>
      <point x="736.3333333333333" y="464.33333333333337"/>
      <point x="790.0" y="395.0"/>
      <point x="772.6666666666667" y="293.0" type="curve" smooth="yes"/>
      <point x="751.0" y="157.00000000000003"/>
      <point x="611.0" y="58.0"/>
      <point x="425.6666666666667" y="58.0" type="curve" smooth="yes"/>
      <point x="263.0" y="58.0"/>
      <point x="173.0" y="135.0"/>
      <point x="166.0" y="279.3333333333333" type="curve"/>
      <point x="77.33333333333333" y="262.0" type="line"/>
      <point x="86.33333333333333" y="79.0"/>
      <point x="209.00000000000003" y="-23.0"/>
      <point x="418.66666666666663" y="-23.0" type="curve" smooth="yes"/>
      <point x="651.0" y="-23.0"/>
      <point x="831.3333333333334" y="103.0"/>
      <point x="862.0" y="287.6666666666667" type="curve" smooth="yes"/>
      <point x="886.0" y="432.6666666666667"/>
      <point x="813.0" y="535.3333333333333"/>
      <point x="643.6666666666666" y="578.6666666666666" type="curve" smooth="yes"/>
      <point x="478.3333333333333" y="621.6666666666666" type="line" smooth="yes"/>
      <point x="339.3333333333333" y="657.6666666666666"/>
      <point x="282.3333333333333" y="723.6666666666666"/>
      <point x="300.0" y="829.0" type="curve" smooth="yes"/>
      <point x="320.6666666666667" y="960.3333333333333"/>
      <point x="451.33333333333337" y="1053.0"/>
      <point x="619.0" y="1053.0" type="curve" smooth="yes"/>
      <point x="768.6666666666666" y="1053.0"/>
      <point x="839.3333333333334" y="979.3333333333333"/>
      <point x="861.3333333333334" y="856.3333333333334" type="curve"/>
    </contour>
  </outline>
</glyph>
<glyph name="t" format="2">
  <advance height="2479.0" width="723.6666666666666"/>
  <unicode hex="0074"/>
  <anchor x="645.9999999999999" y="1562.0" name="raccent"/>
  <anchor x="335.3333333333333" y="0.0" name="bottom"/>
  <anchor x="380.3333333333333" y="0.0" name="cedilla"/>
  <anchor x="454.6666666666667" y="1489.0" name="top"/>
  <outline>
    <contour>
      <point x="672.0" y="1117.0" type="line"/>
      <point x="184.33333333333331" y="1117.0" type="line"/>
      <point x="170.66666666666666" y="1038.0" type="line"/>
      <point x="658.3333333333334" y="1038.0" type="line"/>
    </contour>
    <component base="_part.t_base"/>
  </outline>
</glyph>
<glyph name="u" format="2">
  <advance height="2479.0" width="1218.0"/>
  <unicode hex="0075"/>
  <anchor x="492.99999999999994" y="0.0" name="bottom"/>
  <anchor x="894.3333333333334" y="0.0" name="ogonek"/>
  <anchor x="708.0" y="1303.0" name="top"/>
  <outline>
    <contour>
      <point x="872.3333333333333" y="397.0" type="line" smooth="yes"/>
      <point x="839.3333333333333" y="197.0"/>
      <point x="670.6666666666666" y="71.66666666666667"/>
      <point x="496.0" y="71.66666666666667" type="curve" smooth="yes"/>
      <point x="316.33333333333337" y="71.66666666666667"/>
      <point x="212.99999999999997" y="198.0"/>
      <point x="242.99999999999997" y="384.3333333333333" type="curve" smooth="yes"/>
      <point x="365.3333333333333" y="1117.0" type="line"/>
      <point x="276.6666666666667" y="1117.0" type="line"/>
      <point x="153.66666666666669" y="380.3333333333333" type="line" smooth="yes"/>
      <point x="112.66666666666667" y="136.0"/>
      <point x="242.66666666666666" y="-15.0"/>
      <point x="461.99999999999994" y="-15.0" type="curve" smooth="yes"/>
      <point x="620.6666666666666" y="-15.0"/>
      <point x="758.6666666666666" y="66.0"/>
      <point x="828.6666666666666" y="181.0" type="curve"/>
      <point x="836.6666666666666" y="181.0" type="line"/>
      <point x="806.0" y="0.0" type="line"/>
      <point x="894.3333333333334" y="0.0" type="line"/>
      <point x="1080.6666666666667" y="1117.0" type="line"/>
      <point x="992.6666666666666" y="1117.0" type="line"/>
    </contour>
  </outline>
</glyph>
<glyph name="w" format="2">
  <advance height="2479.0" width="1632.6666666666667"/>
  <unicode hex="0077"/>
  <anchor x="723.6666666666666" y="0.0" name="bottom"/>
  <anchor x="938.6666666666666" y="1303.0" name="top"/>
  <outline>
    <contour>
      <point x="334.3333333333333" y="0.0" type="line"/>
      <point x="433.33333333333337" y="0.0" type="line"/>
      <point x="878.3333333333333" y="970.6666666666666" type="line"/>
      <point x="888.0" y="970.6666666666666" type="line"/>
      <point x="1013.3333333333333" y="0.0" type="line"/>
      <point x="1112.3333333333333" y="0.0" type="line"/>
      <point x="1633.0" y="1117.0" type="line"/>
      <point x="1537.6666666666667" y="1117.0" type="line"/>
      <point x="1086.3333333333335" y="131.0" type="line"/>
      <point x="1078.3333333333333" y="131.0" type="line"/>
      <point x="954.0" y="1117.0" type="line"/>
      <point x="862.3333333333333" y="1117.0" type="line"/>
      <point x="409.33333333333337" y="130.0" type="line"/>
      <point x="401.3333333333333" y="130.0" type="line"/>
      <point x="277.0" y="1117.0" type="line"/>
      <point x="186.33333333333331" y="1117.0" type="line"/>
    </contour>
  </outline>
</glyph>
<glyph name="x" format="2">
  <advance height="2479.0" width="1051.0"/>
  <unicode hex="0078"/>
  <anchor x="432.66666666666663" y="0.0" name="bottom"/>
  <anchor x="525.6666666666666" y="559.0" name="cross"/>
  <anchor x="835.3333333333334" y="25.333333333333336" name="cyrtic"/>
  <anchor x="717.3333333333334" y="0.0" name="right"/>
  <anchor x="649.0" y="1303.0" name="top"/>
  <outline>
    <contour>
      <point x="307.3333333333333" y="1117.0" type="line"/>
      <point x="207.33333333333331" y="1117.0" type="line"/>
      <point x="470.0" y="560.3333333333334" type="line"/>
      <point x="19.33333333333333" y="0.0" type="line"/>
      <point x="126.0" y="0.0" type="line"/>
      <point x="514.6666666666666" y="486.3333333333333" type="line"/>
      <point x="741.6666666666666" y="0.0" type="line"/>
      <point x="841.6666666666666" y="0.0" type="line"/>
      <point x="577.6666666666666" y="555.0" type="line"/>
      <point x="1031.6666666666665" y="1117.0" type="line"/>
      <point x="925.6666666666666" y="1117.0" type="line"/>
      <point x="534.0" y="620.6666666666666" type="line"/>
    </contour>
  </outline>
</glyph>
<glyph name="y" format="2">
  <advance height="2479.0" width="1094.0"/>
  <unicode hex="0079"/>
  <anchor x="670.6666666666666" y="-73.66666666666666" name="bottom"/>
  <anchor x="466.6666666666667" y="-419.0" name="ogonek"/>
  <anchor x="670.6666666666666" y="1303.0" name="top"/>
  <outline>
    <contour>
      <point x="92.66666666666667" y="-419.0" type="curve" smooth="yes"/>
      <point x="213.00000000000003" y="-419.0"/>
      <point x="323.6666666666667" y="-343.33333333333337"/>
      <point x="405.00000000000006" y="-189.66666666666669" type="curve" smooth="yes"/>
      <point x="1094.0" y="1117.0" type="line"/>
      <point x="994.6666666666667" y="1117.0" type="line"/>
      <point x="472.3333333333333" y="113.33333333333334" type="line"/>
      <point x="465.3333333333333" y="113.33333333333334" type="line"/>
      <point x="276.6666666666667" y="1117.0" type="line"/>
      <point x="186.33333333333331" y="1117.0" type="line"/>
      <point x="404.3333333333333" y="-11.333333333333332" type="line"/>
      <point x="330.33333333333337" y="-151.0" type="line" smooth="yes"/>
      <point x="241.33333333333334" y="-317.6666666666667"/>
      <point x="136.33333333333334" y="-367.6666666666667"/>
      <point x="11.333333333333334" y="-315.0" type="curve"/>
      <point x="-27.333333333333325" y="-393.0" type="line"/>
      <point x="4.666666666666657" y="-408.3333333333333"/>
      <point x="48.00000000000001" y="-419.0"/>
    </contour>
  </outline>
</glyph>
<glyph name="z" format="2">
  <advance height="2479.0" width="1063.3333333333333"/>
  <unicode hex="007A"/>
  <anchor x="424.66666666666663" y="0.0" name="bottom"/>
  <anchor x="531.6666666666666" y="559.0" name="cross"/>
  <anchor x="653.6666666666666" y="1303.0" name="top"/>
  <outline>
    <contour>
      <point x="53.33333333333334" y="0.0" type="line"/>
      <point x="849.3333333333334" y="0.0" type="line"/>
      <point x="864.0" y="84.66666666666667" type="line"/>
      <point x="190.33333333333334" y="84.66666666666667" type="line"/>
      <point x="191.33333333333334" y="92.0" type="line"/>
      <point x="996.0" y="1040.6666666666667" type="line"/>
      <point x="1009.0" y="1117.0" type="line"/>
      <point x="275.66666666666663" y="1117.0" type="line"/>
      <point x="260.66666666666663" y="1033.0" type="line"/>
      <point x="880.6666666666666" y="1033.0" type="line"/>
      <point x="879.6666666666666" y="1025.0" type="line"/>
      <point x="67.00000000000001" y="75.0" type="line"/>
    </contour>
  </outline>
</glyph>
<glyph name="braceleft" format="2">
  <advance height="2479.0" width="678.0"/>
  <unicode hex="007B"/>
  <outline>
    <contour>
      <point x="124.33333333333333" y="611.6666666666666" type="line"/>
      <point x="357.0" y="611.6666666666667"/>
      <point x="437.3333333333333" y="692.3333333333334"/>
      <point x="466.3333333333333" y="871.0" type="curve" smooth="yes"/>
      <point x="523.6666666666666" y="1221.6666666666667" type="line" smooth="yes"/>
      <point x="553.6666666666666" y="1403.0"/>
      <point x="628.6666666666667" y="1481.0"/>
      <point x="785.6666666666667" y="1481.0" type="curve"/>
      <point x="799.3333333333334" y="1559.0" type="line"/>
      <point x="583.6666666666666" y="1559.0"/>
      <point x="477.6666666666667" y="1452.3333333333335"/>
      <point x="440.6666666666667" y="1221.6666666666667" type="curve" smooth="yes"/>
      <point x="386.6666666666667" y="890.3333333333334" type="line" smooth="yes"/>
      <point x="358.6666666666667" y="726.0"/>
      <point x="299.6666666666667" y="673.3333333333334"/>
      <point x="132.66666666666666" y="673.3333333333334" type="curve"/>
    </contour>
    <contour>
      <point x="490.33333333333337" y="-303.0" type="curve"/>
      <point x="504.33333333333337" y="-224.0" type="line"/>
      <point x="345.33333333333337" y="-224.0"/>
      <point x="296.3333333333333" y="-146.0"/>
      <point x="327.3333333333333" y="35.0" type="curve" smooth="yes"/>
      <point x="385.3333333333333" y="386.0" type="line" smooth="yes"/>
      <point x="414.3333333333333" y="564.3333333333333"/>
      <point x="362.33333333333337" y="645.0"/>
      <point x="127.66666666666666" y="645.0" type="curve"/>
      <point x="119.66666666666666" y="583.6666666666666" type="line"/>
      <point x="284.0" y="583.6666666666666"/>
      <point x="325.6666666666667" y="530.6666666666667"/>
      <point x="297.6666666666667" y="366.6666666666667" type="curve" smooth="yes"/>
      <point x="244.33333333333334" y="35.0" type="line" smooth="yes"/>
      <point x="206.66666666666669" y="-196.0"/>
      <point x="275.3333333333333" y="-303.0"/>
    </contour>
    <contour>
      <point x="116.66666666666666" y="583.6666666666666" type="line"/>
      <point x="280.3333333333333" y="583.6666666666666" type="line"/>
      <point x="293.66666666666663" y="673.3333333333334" type="line"/>
      <point x="129.66666666666666" y="673.3333333333334" type="line"/>
    </contour>
  </outline>
</glyph>
<glyph name="bar" format="2">
  <advance height="2479.0" width="595.6666666666666"/>
  <unicode hex="007C"/>
  <outline>
    <contour>
      <point x="571.3333333333334" y="1969.0" type="line"/>
      <point x="491.6666666666667" y="1969.0" type="line"/>
      <point x="86.0" y="-480.0" type="line"/>
      <point x="166.00000000000003" y="-480.0" type="line"/>
    </contour>
  </outline>
</glyph>
<glyph name="asciitilde" format="2">
  <advance height="2479.0" width="1318.6666666666667"/>
  <unicode hex="007E"/>
  <outline>
    <contour>
      <point x="169.33333333333334" y="473.3333333333333" type="curve"/>
      <point x="253.0" y="469.3333333333333" type="line"/>
      <point x="279.3333333333333" y="574.0"/>
      <point x="364.66666666666663" y="635.3333333333334"/>
      <point x="468.0" y="635.3333333333334" type="curve" smooth="yes"/>
      <point x="544.3333333333333" y="635.3333333333333"/>
      <point x="590.0" y="606.6666666666666"/>
      <point x="645.0" y="559.0" type="curve" smooth="yes"/>
      <point x="709.0" y="503.0"/>
      <point x="766.3333333333334" y="458.3333333333333"/>
      <point x="857.3333333333333" y="458.33333333333337" type="curve" smooth="yes"/>
      <point x="994.3333333333334" y="458.3333333333333"/>
      <point x="1113.0" y="533.6666666666666"/>
      <point x="1158.0" y="695.3333333333334" type="curve"/>
      <point x="1076.3333333333333" y="703.3333333333334" type="line"/>
      <point x="1043.3333333333333" y="602.0"/>
      <point x="963.0" y="539.0"/>
      <point x="866.6666666666666" y="539.0" type="curve" smooth="yes"/>
      <point x="802.6666666666667" y="539.0"/>
      <point x="762.3333333333334" y="570.0"/>
      <point x="706.6666666666667" y="615.6666666666666" type="curve" smooth="yes"/>
      <point x="640.6666666666666" y="672.3333333333334"/>
      <point x="579.0" y="718.3333333333334"/>
      <point x="478.0" y="718.3333333333334" type="curve" smooth="yes"/>
      <point x="331.66666666666663" y="718.3333333333334"/>
      <point x="208.66666666666666" y="638.0"/>
    </contour>
  </outline>
</glyph>
<glyph name="cent" format="2">
  <advance height="2479.0" width="1135.3333333333335"/>
  <unicode hex="00A2"/>
  <anchor x="535.6666666666666" y="189.66666666666666" name="cedilla"/>
  <anchor x="746.6666666666666" y="1492.6666666666667" name="top"/>
  <outline>
    <contour>
      <point x="456.66666666666663" y="0.0" type="line"/>
      <point x="528.0" y="0.0" type="line"/>
      <point x="792.6666666666666" y="1489.0" type="line"/>
      <point x="721.6666666666666" y="1489.0" type="line"/>
    </contour>
    <component base="c" xOffset="31.333333333333332" yOffset="189.66666666666666"/>
  </outline>
</glyph>
<glyph name="sterling" format="2">
  <advance height="2479.0" width="1292.0"/>
  <unicode hex="00A3"/>
  <outline>
    <contour>
      <point x="993.6666666666666" y="0.0" type="line"/>
      <point x="1008.3333333333333" y="84.66666666666667" type="line"/>
      <point x="75.00000000000001" y="84.66666666666667" type="line"/>
      <point x="60.33333333333334" y="0.0" type="line"/>
    </contour>
    <contour>
      <point x="803.0" y="606.3333333333334" type="line"/>
      <point x="818.6666666666666" y="692.3333333333334" type="line"/>
      <point x="173.33333333333334" y="692.3333333333334" type="line"/>
      <point x="158.33333333333334" y="606.3333333333334" type="line"/>
    </contour>
    <contour>
      <point x="506.0" y="1077.6666666666667" type="line"/>
      <point x="538.3333333333334" y="1294.6666666666667"/>
      <point x="699.0" y="1425.3333333333333"/>
      <point x="881.3333333333334" y="1425.3333333333333" type="curve" smooth="yes"/>
      <point x="1056.9999999999998" y="1425.3333333333333"/>
      <point x="1174.3333333333333" y="1302.3333333333333"/>
      <point x="1119.0" y="1141.3333333333333" type="curve"/>
      <point x="1201.6666666666667" y="1118.0" type="line"/>
      <point x="1280.6666666666665" y="1323.6666666666667"/>
      <point x="1134.6666666666665" y="1510.0"/>
      <point x="893.3333333333334" y="1510.0" type="curve" smooth="yes"/>
      <point x="662.3333333333334" y="1510.0"/>
      <point x="454.0" y="1346.0"/>
      <point x="419.0" y="1077.6666666666667" type="curve" smooth="yes"/>
      <point x="315.0" y="329.6666666666667" type="line" smooth="yes"/>
      <point x="297.6666666666667" y="211.33333333333334"/>
      <point x="243.33333333333334" y="84.66666666666667"/>
      <point x="144.33333333333334" y="84.66666666666667" type="curve"/>
      <point x="208.66666666666669" y="41.66666666666667" type="line"/>
      <point x="323.0" y="69.66666666666667"/>
      <point x="383.3333333333333" y="182.33333333333334"/>
      <point x="403.3333333333333" y="329.6666666666667" type="curve" smooth="yes"/>
    </contour>
  </outline>
</glyph>
<glyph name="currency" format="2">
  <advance height="2479.0" width="1423.6666666666667"/>
  <unicode hex="00A4"/>
  <outline>
    <contour>
      <point x="614.0" y="-20.0" type="curve" smooth="yes"/>
      <point x="941.0" y="-20.0"/>
      <point x="1241.6666666666665" y="251.0"/>
      <point x="1300.3333333333333" y="608.0" type="curve" smooth="yes"/>
      <point x="1357.6666666666665" y="961.6666666666666"/>
      <point x="1145.0" y="1233.0"/>
      <point x="815.6666666666666" y="1233.0" type="curve" smooth="yes"/>
      <point x="488.0" y="1233.0"/>
      <point x="191.66666666666666" y="967.6666666666666"/>
      <point x="131.66666666666666" y="608.0" type="curve"/>
      <point x="73.66666666666667" y="257.0"/>
      <point x="287.6666666666667" y="-20.0"/>
    </contour>
    <contour>
      <point x="622.6666666666666" y="64.0" type="curve" smooth="yes"/>
      <point x="344.6666666666667" y="64.0"/>
      <point x="165.33333333333334" y="301.3333333333333"/>
      <point x="216.33333333333334" y="608.0" type="curve"/>
      <point x="267.0" y="914.3333333333334"/>
      <point x="526.6666666666667" y="1150.0"/>
      <point x="806.0" y="1150.0" type="curve" smooth="yes"/>
      <point x="1085.6666666666667" y="1150.0"/>
      <point x="1266.3333333333333" y="917.0"/>
      <point x="1213.6666666666667" y="608.0" type="curve" smooth="yes"/>
      <point x="1162.6666666666665" y="306.0"/>
      <point x="903.0" y="64.0"/>
    </contour>
    <contour>
      <point x="1195.0" y="975.6666666666666" type="line"/>
      <point x="1411.0" y="1164.6666666666667" type="line"/>
      <point x="1359.6666666666667" y="1230.6666666666665" type="line"/>
      <point x="1144.3333333333333" y="1041.6666666666665" type="line"/>
    </contour>
    <contour>
      <point x="1154.6666666666667" y="-5.0" type="line"/>
      <point x="1224.0" y="57.333333333333336" type="line"/>
      <point x="1070.3333333333333" y="245.0" type="line"/>
      <point x="1002.6666666666666" y="184.0" type="line"/>
    </contour>
    <contour>
      <point x="74.00000000000001" y="-5.0" type="line"/>
      <point x="288.6666666666667" y="184.0" type="line"/>
      <point x="237.66666666666669" y="248.33333333333334" type="line"/>
      <point x="23.33333333333334" y="60.0" type="line"/>
    </contour>
    <contour>
      <point x="361.6666666666667" y="977.6666666666666" type="line"/>
      <point x="430.3333333333333" y="1039.6666666666665" type="line"/>
      <point x="278.0" y="1228.6666666666665" type="line"/>
      <point x="210.33333333333334" y="1166.6666666666667" type="line"/>
    </contour>
  </outline>
</glyph>
<glyph name="yen" format="2">
  <advance height="2479.0" width="1088.3333333333333"/>
  <unicode hex="00A5"/>
  <outline>
    <contour>
      <point x="292.6666666666667" y="1489.0" type="line"/>
      <point x="193.0" y="1489.0" type="line"/>
      <point x="506.3333333333333" y="629.3333333333334" type="line"/>
      <point x="589.3333333333334" y="648.6666666666666" type="line"/>
    </contour>
    <contour>
      <point x="524.3333333333334" y="648.6666666666666" type="line"/>
      <point x="605.0" y="629.3333333333334" type="line"/>
      <point x="1203.3333333333333" y="1489.0" type="line"/>
      <point x="1098.3333333333333" y="1489.0" type="line"/>
    </contour>
    <contour>
      <point x="617.6666666666666" y="722.3333333333334" type="line"/>
      <point x="526.3333333333333" y="722.3333333333334" type="line"/>
      <point x="405.3333333333333" y="0.0" type="line"/>
      <point x="496.3333333333333" y="0.0" type="line"/>
    </contour>
    <contour>
      <point x="954.3333333333334" y="697.3333333333334" type="line"/>
      <point x="180.33333333333334" y="697.3333333333334" type="line"/>
      <point x="168.0" y="622.3333333333334" type="line"/>
      <point x="941.3333333333334" y="622.3333333333334" type="line"/>
    </contour>
    <contour>
      <point x="917.3333333333334" y="477.3333333333333" type="line"/>
      <point x="143.33333333333334" y="477.3333333333333" type="line"/>
      <point x="131.33333333333334" y="402.3333333333333" type="line"/>
      <point x="904.6666666666666" y="402.3333333333333" type="line"/>
    </contour>
  </outline>
</glyph>
<glyph name="brokenbar" format="2">
  <advance height="2479.0" width="436.0"/>
  <unicode hex="00A6"/>
  <outline>
    <contour>
      <point x="149.33333333333334" y="391.6666666666667" type="line"/>
      <point x="36.00000000000001" y="-279.0" type="line"/>
      <point x="120.0" y="-279.0" type="line"/>
      <point x="234.0" y="391.6666666666667" type="line"/>
    </contour>
    <contour>
      <point x="414.0" y="1489.0" type="line"/>
      <point x="329.33333333333337" y="1489.0" type="line"/>
      <point x="218.33333333333334" y="821.3333333333334" type="line"/>
      <point x="302.3333333333333" y="821.3333333333334" type="line"/>
    </contour>
  </outline>
</glyph>
<glyph name="section" format="2">
  <advance height="2479.0" width="1099.6666666666667"/>
  <unicode hex="00A7"/>
  <outline>
    <contour>
      <point x="988.3333333333334" y="1172.3333333333333" type="line"/>
      <point x="1013.3333333333334" y="1371.3333333333333"/>
      <point x="900.3333333333334" y="1510.0"/>
      <point x="703.0" y="1510.0" type="curve" smooth="yes"/>
      <point x="514.6666666666666" y="1510.0"/>
      <point x="353.00000000000006" y="1381.6666666666667"/>
      <point x="323.6666666666667" y="1212.3333333333333" type="curve" smooth="yes"/>
      <point x="307.6666666666667" y="1107.0"/>
      <point x="348.0" y="1016.0"/>
      <point x="431.6666666666667" y="949.6666666666666" type="curve"/>
      <point x="431.6666666666667" y="943.6666666666666" type="line"/>
      <point x="285.33333333333337" y="938.0"/>
      <point x="170.33333333333331" y="839.0"/>
      <point x="149.33333333333331" y="713.3333333333334" type="curve" smooth="yes"/>
      <point x="126.33333333333333" y="568.0"/>
      <point x="219.33333333333331" y="470.33333333333337"/>
      <point x="381.99999999999994" y="364.33333333333337" type="curve" smooth="yes"/>
      <point x="554.3333333333334" y="252.66666666666666" type="line" smooth="yes"/>
      <point x="690.3333333333334" y="166.0"/>
      <point x="739.3333333333333" y="94.0"/>
      <point x="723.3333333333333" y="-2.666666666666666" type="curve" smooth="yes"/>
      <point x="702.3333333333333" y="-132.0"/>
      <point x="571.3333333333334" y="-220.0"/>
      <point x="414.0" y="-220.0" type="curve" smooth="yes"/>
      <point x="250.33333333333331" y="-220.0"/>
      <point x="153.0" y="-123.33333333333333"/>
      <point x="171.33333333333334" y="39.66666666666667" type="curve"/>
      <point x="84.66666666666667" y="39.66666666666667" type="line"/>
      <point x="58.00000000000001" y="-166.0"/>
      <point x="190.66666666666666" y="-303.0"/>
      <point x="408.0" y="-303.0" type="curve" smooth="yes"/>
      <point x="606.6666666666666" y="-303.0"/>
      <point x="778.3333333333333" y="-189.33333333333334"/>
      <point x="808.6666666666666" y="-6.666666666666666" type="curve" smooth="yes"/>
      <point x="825.6666666666666" y="90.33333333333333"/>
      <point x="795.0" y="177.33333333333331"/>
      <point x="687.3333333333333" y="263.0" type="curve"/>
      <point x="687.3333333333333" y="265.3333333333333" type="line"/>
      <point x="825.3333333333333" y="277.0"/>
      <point x="946.6666666666667" y="380.0"/>
      <point x="965.6666666666667" y="501.3333333333333" type="curve" smooth="yes"/>
      <point x="989.0" y="636.6666666666666"/>
      <point x="899.0" y="731.3333333333333"/>
      <point x="727.3333333333334" y="845.3333333333334" type="curve" smooth="yes"/>
      <point x="569.3333333333333" y="949.3333333333334" type="line" smooth="yes"/>
      <point x="454.66666666666663" y="1025.0"/>
      <point x="393.0" y="1109.0"/>
      <point x="409.0" y="1206.3333333333333" type="curve" smooth="yes"/>
      <point x="430.6666666666667" y="1326.3333333333335"/>
      <point x="549.0000000000001" y="1429.3333333333333"/>
      <point x="695.3333333333333" y="1429.3333333333333" type="curve" smooth="yes"/>
      <point x="843.6666666666666" y="1429.3333333333333"/>
      <point x="920.6666666666667" y="1325.0"/>
      <point x="901.6666666666666" y="1172.3333333333333" type="curve"/>
    </contour>
    <contour>
      <point x="881.6666666666667" y="505.3333333333333" type="curve"/>
      <point x="863.3333333333334" y="386.33333333333337"/>
      <point x="726.3333333333334" y="305.33333333333337"/>
      <point x="603.3333333333333" y="325.6666666666667" type="curve" smooth="yes"/>
      <point x="430.0" y="437.33333333333337" type="line" smooth="yes"/>
      <point x="282.0" y="532.6666666666667"/>
      <point x="217.0" y="609.0"/>
      <point x="234.0" y="710.0" type="curve" smooth="yes"/>
      <point x="254.66666666666669" y="830.0"/>
      <point x="379.33333333333337" y="909.0"/>
      <point x="503.6666666666667" y="888.3333333333334" type="curve" smooth="yes"/>
      <point x="679.0" y="773.0" type="line" smooth="yes"/>
      <point x="836.3333333333334" y="668.6666666666666"/>
      <point x="897.3333333333334" y="595.3333333333334"/>
    </contour>
  </outline>
</glyph>
<glyph name="dieresis" format="2">
  <advance height="2479.0" width="1303.3333333333333"/>
  <unicode hex="00A8"/>
  <anchor x="773.6666666666666" y="1303.0" name="_top"/>
  <anchor x="837.6666666666666" y="1676.0" name="top"/>
  <outline>
    <contour>
      <point x="620.0" y="1315.0" type="curve" smooth="yes"/>
      <point x="656.6666666666667" y="1315.0"/>
      <point x="690.0" y="1345.0"/>
      <point x="695.0" y="1376.6666666666667" type="curve" smooth="yes"/>
      <point x="701.6666666666666" y="1421.0"/>
      <point x="673.3333333333334" y="1454.6666666666667"/>
      <point x="629.6666666666666" y="1454.6666666666667" type="curve" smooth="yes"/>
      <point x="596.0" y="1454.6666666666667"/>
      <point x="562.0" y="1426.6666666666665"/>
      <point x="556.3333333333334" y="1392.3333333333335" type="curve" smooth="yes"/>
      <point x="549.3333333333334" y="1350.6666666666667"/>
      <point x="579.3333333333333" y="1315.0"/>
    </contour>
    <contour>
      <point x="945.6666666666666" y="1315.0" type="curve" smooth="yes"/>
      <point x="983.0" y="1315.0"/>
      <point x="1013.6666666666667" y="1343.0"/>
      <point x="1020.6666666666669" y="1376.6666666666667" type="curve" smooth="yes"/>
      <point x="1029.3333333333335" y="1420.3333333333333"/>
      <point x="999.0" y="1454.6666666666667"/>
      <point x="955.3333333333334" y="1454.6666666666667" type="curve" smooth="yes"/>
      <point x="921.6666666666666" y="1454.6666666666667"/>
      <point x="888.0" y="1426.0"/>
      <point x="882.0" y="1392.3333333333335" type="curve" smooth="yes"/>
      <point x="874.3333333333333" y="1351.6666666666667"/>
      <point x="905.0" y="1315.0"/>
    </contour>
  </outline>
</glyph>
<glyph name="copyright" format="2">
  <advance height="2479.0" width="1873.0"/>
  <unicode hex="00A9"/>
  <outline>
    <contour>
      <point x="551.6666666666666" y="745.0" type="curve" smooth="yes"/>
      <point x="511.66666666666663" y="506.0"/>
      <point x="673.6666666666667" y="313.0"/>
      <point x="911.6666666666666" y="313.0" type="curve" smooth="yes"/>
      <point x="1095.3333333333333" y="313.0"/>
      <point x="1256.3333333333333" y="428.0"/>
      <point x="1329.6666666666665" y="590.0" type="curve"/>
      <point x="1235.6666666666665" y="590.0" type="line"/>
      <point x="1175.6666666666667" y="477.0"/>
      <point x="1049.0" y="399.6666666666667"/>
      <point x="914.0" y="399.6666666666667" type="curve" smooth="yes"/>
      <point x="724.6666666666666" y="399.6666666666667"/>
      <point x="607.6666666666667" y="557.6666666666667"/>
      <point x="638.3333333333334" y="745.0" type="curve" smooth="yes"/>
      <point x="671.3333333333334" y="939.3333333333334"/>
      <point x="861.3333333333334" y="1089.3333333333333"/>
      <point x="1050.3333333333333" y="1089.3333333333333" type="curve" smooth="yes"/>
      <point x="1185.3333333333333" y="1089.3333333333333"/>
      <point x="1270.3333333333333" y="1012.6666666666667"/>
      <point x="1292.0" y="900.0" type="curve"/>
      <point x="1385.3333333333333" y="900.0" type="line"/>
      <point x="1366.0" y="1061.0"/>
      <point x="1238.0" y="1177.0"/>
      <point x="1054.6666666666665" y="1177.0" type="curve" smooth="yes"/>
      <point x="815.6666666666667" y="1177.0"/>
      <point x="590.6666666666666" y="983.0"/>
    </contour>
    <component base="whiteCircle" xOffset="0.33333333333333337"/>
  </outline>
</glyph>
<glyph name="ordfeminine" format="2">
  <advance height="2479.0" width="799.0"/>
  <unicode hex="00AA"/>
  <outline>
    <contour>
      <point x="619.6666666666667" y="861.0" type="line"/>
      <point x="609.6666666666666" y="809.6666666666666"/>
      <point x="608.3333333333333" y="754.3333333333334"/>
      <point x="614.6666666666667" y="709.0" type="curve"/>
      <point x="706.6666666666666" y="709.0" type="line"/>
      <point x="699.0" y="762.3333333333334"/>
      <point x="701.3333333333334" y="819.0"/>
      <point x="712.6666666666666" y="887.0" type="curve" smooth="yes"/>
      <point x="765.3333333333334" y="1201.0" type="line"/>
      <point x="794.3333333333334" y="1383.6666666666667"/>
      <point x="719.0" y="1478.0"/>
      <point x="555.6666666666666" y="1478.0" type="curve" smooth="yes"/>
      <point x="392.0" y="1478.0"/>
      <point x="272.3333333333333" y="1388.3333333333333"/>
      <point x="243.33333333333334" y="1247.0" type="curve"/>
      <point x="330.6666666666667" y="1239.6666666666667" type="line"/>
      <point x="354.6666666666667" y="1342.3333333333333"/>
      <point x="432.00000000000006" y="1397.0"/>
      <point x="547.6666666666666" y="1397.0" type="curve" smooth="yes"/>
      <point x="660.0" y="1397.0"/>
      <point x="697.0" y="1338.6666666666667"/>
      <point x="675.6666666666667" y="1201.0" type="curve"/>
    </contour>
    <contour>
      <point x="685.3333333333333" y="1134.6666666666667" type="line"/>
      <point x="523.0000000000001" y="1134.6666666666667" type="line"/>
      <point x="313.0" y="1134.6666666666667"/>
      <point x="199.66666666666669" y="1059.3333333333333"/>
      <point x="174.66666666666669" y="909.6666666666666" type="curve" smooth="yes"/>
      <point x="153.00000000000003" y="783.6666666666666"/>
      <point x="230.0" y="692.0"/>
      <point x="369.33333333333337" y="692.0" type="curve" smooth="yes"/>
      <point x="471.00000000000006" y="692.0"/>
      <point x="553.3333333333334" y="743.0"/>
      <point x="643.6666666666667" y="827.0" type="curve"/>
      <point x="636.3333333333333" y="886.3333333333334" type="line"/>
      <point x="575.6666666666666" y="818.6666666666666"/>
      <point x="477.00000000000006" y="770.6666666666666"/>
      <point x="393.00000000000006" y="772.0" type="curve" smooth="yes"/>
      <point x="294.00000000000006" y="772.6666666666666"/>
      <point x="251.0" y="822.6666666666666"/>
      <point x="264.33333333333337" y="911.6666666666666" type="curve" smooth="yes"/>
      <point x="280.0" y="1007.6666666666666"/>
      <point x="364.6666666666667" y="1066.6666666666667"/>
      <point x="511.0" y="1066.6666666666667" type="curve"/>
      <point x="674.0" y="1066.6666666666667" type="line"/>
    </contour>
  </outline>
</glyph>
<glyph name="logicalnot" format="2">
  <advance height="2479.0" width="1050.3333333333333"/>
  <unicode hex="00AC"/>
  <outline>
    <contour>
      <point x="979.3333333333333" y="806.0" type="line"/>
      <point x="159.66666666666669" y="806.0" type="line"/>
      <point x="144.66666666666669" y="717.3333333333334" type="line"/>
      <point x="963.6666666666666" y="717.3333333333334" type="line"/>
    </contour>
    <contour>
      <point x="973.0" y="765.6666666666666" type="line"/>
      <point x="874.6666666666666" y="765.6666666666666" type="line"/>
      <point x="810.0" y="375.0" type="line"/>
      <point x="907.6666666666666" y="375.0" type="line"/>
    </contour>
  </outline>
</glyph>
<glyph name="registered" format="2">
  <advance height="2479.0" width="1373.0"/>
  <unicode hex="00AE"/>
  <outline>
    <contour>
      <point x="511.66666666666674" y="666.0" type="line"/>
      <point x="582.3333333333333" y="666.0" type="line"/>
      <point x="661.0" y="1142.6666666666667" type="line"/>
      <point x="819.6666666666667" y="1142.6666666666667" type="line" smooth="yes"/>
      <point x="884.6666666666666" y="1142.6666666666667"/>
      <point x="923.6666666666666" y="1108.3333333333333"/>
      <point x="913.0" y="1039.0" type="curve" smooth="yes"/>
      <point x="902.6666666666666" y="970.3333333333334"/>
      <point x="850.3333333333333" y="929.6666666666666"/>
      <point x="783.6666666666667" y="929.6666666666666" type="curve" smooth="yes"/>
      <point x="595.0" y="929.6666666666666" type="line"/>
      <point x="585.0" y="869.3333333333334" type="line"/>
      <point x="787.6666666666666" y="869.3333333333334" type="line" smooth="yes"/>
      <point x="884.0" y="869.3333333333334"/>
      <point x="970.0" y="937.6666666666666"/>
      <point x="987.0" y="1039.0" type="curve" smooth="yes"/>
      <point x="1004.6666666666667" y="1140.0"/>
      <point x="939.6666666666666" y="1203.0"/>
      <point x="844.6666666666666" y="1203.0" type="curve" smooth="yes"/>
      <point x="600.6666666666667" y="1203.0" type="line"/>
    </contour>
    <contour>
      <point x="855.3333333333333" y="911.6666666666666" type="line"/>
      <point x="779.0" y="911.6666666666666" type="line"/>
      <point x="868.0" y="666.0" type="line"/>
      <point x="947.0" y="666.0" type="line"/>
    </contour>
    <contour>
      <point x="748.0" y="346.0" type="curve" smooth="yes"/>
      <point x="1068.0" y="346.0"/>
      <point x="1329.0" y="607.0"/>
      <point x="1329.0" y="928.0" type="curve" smooth="yes"/>
      <point x="1330.0" y="1249.0"/>
      <point x="1068.0" y="1510.0"/>
      <point x="748.0" y="1510.0" type="curve" smooth="yes"/>
      <point x="425.0" y="1510.0"/>
      <point x="165.0" y="1249.0"/>
      <point x="166.0" y="928.0" type="curve" smooth="yes"/>
      <point x="167.0" y="607.0"/>
      <point x="425.0" y="346.0"/>
    </contour>
    <contour>
      <point x="748.0" y="424.0" type="curve" smooth="yes"/>
      <point x="468.3333333333333" y="424.0"/>
      <point x="243.0" y="649.3333333333334"/>
      <point x="243.0" y="928.0" type="curve" smooth="yes"/>
      <point x="244.0" y="1206.6666666666667"/>
      <point x="468.3333333333333" y="1432.0"/>
      <point x="748.0" y="1432.0" type="curve" smooth="yes"/>
      <point x="1025.6666666666665" y="1432.0"/>
      <point x="1251.0" y="1206.6666666666667"/>
      <point x="1252.0" y="928.0" type="curve" smooth="yes"/>
      <point x="1253.0" y="649.3333333333334"/>
      <point x="1025.6666666666665" y="424.0"/>
    </contour>
  </outline>
</glyph>
<glyph name="macron" format="2">
  <advance height="2479.0" width="705.6666666666667"/>
  <unicode hex="00AF"/>
  <anchor x="476.00000000000006" y="1303.0" name="_top"/>
  <outline>
    <contour>
      <point x="765.3333333333334" y="1423.6666666666667" type="line"/>
      <point x="227.66666666666669" y="1423.6666666666667" type="line"/>
      <point x="214.0" y="1344.0" type="line"/>
      <point x="751.6666666666667" y="1344.0" type="line"/>
    </contour>
  </outline>
</glyph>
<glyph name="degree" format="2">
  <advance height="2479.0" width="931.0"/>
  <unicode hex="00B0"/>
  <outline>
    <contour>
      <point x="570.0" y="880.6666666666666" type="curve" smooth="yes"/>
      <point x="743.0" y="880.6666666666666"/>
      <point x="882.6666666666666" y="1020.6666666666666"/>
      <point x="882.6666666666666" y="1193.6666666666667" type="curve" smooth="yes"/>
      <point x="882.6666666666666" y="1367.0"/>
      <point x="743.0" y="1507.0"/>
      <point x="570.0" y="1507.0" type="curve" smooth="yes"/>
      <point x="396.3333333333333" y="1507.0"/>
      <point x="256.33333333333337" y="1367.0"/>
      <point x="256.33333333333337" y="1193.6666666666667" type="curve" smooth="yes"/>
      <point x="256.33333333333337" y="1020.6666666666666"/>
      <point x="396.3333333333333" y="880.6666666666666"/>
    </contour>
    <contour>
      <point x="570.0" y="959.6666666666666" type="curve" smooth="yes"/>
      <point x="440.3333333333333" y="959.6666666666666"/>
      <point x="336.33333333333337" y="1064.0"/>
      <point x="336.33333333333337" y="1193.6666666666667" type="curve" smooth="yes"/>
      <point x="336.33333333333337" y="1323.0"/>
      <point x="440.3333333333333" y="1427.3333333333333"/>
      <point x="570.0" y="1427.3333333333333" type="curve" smooth="yes"/>
      <point x="699.0" y="1427.3333333333333"/>
      <point x="803.6666666666666" y="1323.0"/>
      <point x="803.6666666666666" y="1193.6666666666667" type="curve" smooth="yes"/>
      <point x="803.6666666666666" y="1064.0"/>
      <point x="699.0" y="959.6666666666666"/>
    </contour>
  </outline>
</glyph>
<glyph name="plusminus" format="2">
  <advance height="2479.0" width="1318.6666666666667"/>
  <unicode hex="00B1"/>
  <outline>
    <contour>
      <point x="148.33333333333334" y="116.66666666666666" type="line"/>
      <point x="1023.3333333333333" y="116.66666666666666" type="line"/>
      <point x="1037.3333333333333" y="201.66666666666666" type="line"/>
      <point x="163.0" y="201.66666666666666" type="line"/>
    </contour>
    <contour>
      <point x="243.33333333333334" y="684.3333333333334" type="line"/>
      <point x="1118.3333333333333" y="684.3333333333334" type="line"/>
      <point x="1132.3333333333333" y="770.0" type="line"/>
      <point x="258.00000000000006" y="770.0" type="line"/>
    </contour>
    <contour>
      <point x="581.0" y="337.6666666666667" type="line"/>
      <point x="666.0" y="337.6666666666667" type="line"/>
      <point x="795.0" y="1117.0" type="line"/>
      <point x="709.6666666666667" y="1117.0" type="line"/>
    </contour>
  </outline>
</glyph>
<glyph name="twosuperior" format="2">
  <advance height="2479.0" width="848.6666666666666"/>
  <unicode hex="00B2"/>
  <anchor x="673.6666666666666" y="1203.6666666666667" name="cross"/>
  <outline>
    <contour>
      <point x="146.33333333333331" y="745.0" type="line"/>
      <point x="771.6666666666666" y="745.0" type="line"/>
      <point x="784.3333333333333" y="816.3333333333334" type="line"/>
      <point x="279.33333333333337" y="816.3333333333334" type="line"/>
      <point x="279.33333333333337" y="820.3333333333334" type="line"/>
      <point x="572.3333333333334" y="1069.3333333333333" type="line" smooth="yes"/>
      <point x="758.3333333333333" y="1226.6666666666667"/>
      <point x="820.3333333333334" y="1297.3333333333333"/>
      <point x="837.6666666666667" y="1404.3333333333333" type="curve" smooth="yes"/>
      <point x="861.3333333333334" y="1544.0"/>
      <point x="760.3333333333333" y="1649.0"/>
      <point x="593.6666666666666" y="1649.0" type="curve" smooth="yes"/>
      <point x="423.33333333333337" y="1649.0"/>
      <point x="287.3333333333333" y="1541.0"/>
      <point x="262.66666666666663" y="1396.3333333333333" type="curve"/>
      <point x="345.33333333333337" y="1396.3333333333333" type="line"/>
      <point x="361.6666666666667" y="1499.3333333333333"/>
      <point x="462.6666666666667" y="1580.6666666666667"/>
      <point x="587.0" y="1580.6666666666667" type="curve" smooth="yes"/>
      <point x="704.3333333333334" y="1580.6666666666667"/>
      <point x="777.6666666666667" y="1507.6666666666667"/>
      <point x="761.3333333333334" y="1409.3333333333333" type="curve" smooth="yes"/>
      <point x="747.3333333333334" y="1322.3333333333333"/>
      <point x="690.3333333333334" y="1260.0"/>
      <point x="537.0" y="1129.6666666666667" type="curve" smooth="yes"/>
      <point x="155.99999999999997" y="806.0" type="line"/>
    </contour>
  </outline>
</glyph>
<glyph name="threesuperior" format="2">
  <advance height="2479.0" width="853.6666666666667"/>
  <unicode hex="00B3"/>
  <outline>
    <contour>
      <point x="460.6666666666667" y="733.0" type="curve" smooth="yes"/>
      <point x="651.6666666666666" y="733.0"/>
      <point x="796.3333333333334" y="838.0"/>
      <point x="820.3333333333334" y="982.0" type="curve" smooth="yes"/>
      <point x="838.0" y="1094.0"/>
      <point x="769.3333333333334" y="1180.0"/>
      <point x="642.3333333333334" y="1204.0" type="curve"/>
      <point x="642.3333333333334" y="1208.0" type="line"/>
      <point x="760.3333333333334" y="1236.3333333333333"/>
      <point x="840.3333333333334" y="1302.3333333333333"/>
      <point x="858.3333333333334" y="1409.0" type="curve" smooth="yes"/>
      <point x="881.3333333333334" y="1553.3333333333333"/>
      <point x="775.6666666666667" y="1649.0"/>
      <point x="606.0000000000001" y="1649.0" type="curve" smooth="yes"/>
      <point x="442.0" y="1649.0"/>
      <point x="301.3333333333333" y="1551.3333333333333"/>
      <point x="276.3333333333333" y="1406.3333333333333" type="curve"/>
      <point x="356.33333333333337" y="1406.3333333333333" type="line"/>
      <point x="374.33333333333337" y="1510.6666666666667"/>
      <point x="487.66666666666663" y="1580.6666666666667"/>
      <point x="607.0000000000001" y="1580.6666666666667" type="curve" smooth="yes"/>
      <point x="738.3333333333334" y="1580.6666666666667"/>
      <point x="795.3333333333334" y="1505.6666666666667"/>
      <point x="778.6666666666667" y="1413.0" type="curve" smooth="yes"/>
      <point x="763.3333333333334" y="1314.0"/>
      <point x="657.3333333333334" y="1238.6666666666667"/>
      <point x="514.6666666666667" y="1238.6666666666667" type="curve" smooth="yes"/>
      <point x="476.3333333333333" y="1238.6666666666667" type="line"/>
      <point x="466.3333333333333" y="1170.3333333333333" type="line"/>
      <point x="508.0" y="1170.3333333333333" type="line" smooth="yes"/>
      <point x="664.3333333333334" y="1170.3333333333333"/>
      <point x="754.3333333333334" y="1100.0"/>
      <point x="736.3333333333334" y="987.6666666666666" type="curve" smooth="yes"/>
      <point x="719.3333333333334" y="889.3333333333334"/>
      <point x="606.0" y="806.0"/>
      <point x="464.6666666666667" y="806.0" type="curve" smooth="yes"/>
      <point x="334.33333333333337" y="806.0"/>
      <point x="249.0" y="875.3333333333334"/>
      <point x="265.0" y="977.6666666666666" type="curve"/>
      <point x="181.33333333333331" y="977.6666666666666" type="line"/>
      <point x="160.33333333333331" y="835.0"/>
      <point x="277.33333333333337" y="733.0"/>
    </contour>
  </outline>
</glyph>
<glyph name="micro" format="2">
  <advance height="2479.0" width="1194.6666666666667"/>
  <unicode hex="00B5"/>
  <outline>
    <contour>
      <point x="17.333333333333343" y="-428.3333333333333" type="line"/>
      <point x="106.0" y="-428.3333333333333" type="line"/>
      <point x="207.66666666666666" y="187.33333333333334" type="line"/>
      <point x="214.33333333333334" y="187.33333333333334" type="line"/>
      <point x="252.0" y="61.0"/>
      <point x="364.3333333333333" y="-15.0"/>
      <point x="510.33333333333337" y="-15.0" type="curve" smooth="yes"/>
      <point x="654.6666666666667" y="-15.0"/>
      <point x="791.0" y="57.0"/>
      <point x="865.0" y="173.33333333333334" type="curve"/>
      <point x="871.6666666666666" y="173.33333333333334" type="line"/>
      <point x="842.6666666666666" y="0.0" type="line"/>
      <point x="930.6666666666667" y="0.0" type="line"/>
      <point x="1117.3333333333335" y="1117.0" type="line"/>
      <point x="1029.0" y="1117.0" type="line"/>
      <point x="908.6666666666666" y="397.0" type="line" smooth="yes"/>
      <point x="877.6666666666666" y="210.00000000000003"/>
      <point x="715.3333333333334" y="71.66666666666667"/>
      <point x="522.6666666666667" y="71.66666666666667" type="curve" smooth="yes"/>
      <point x="330.66666666666663" y="71.66666666666667"/>
      <point x="211.33333333333334" y="206.66666666666669"/>
      <point x="242.33333333333334" y="397.0" type="curve" smooth="yes"/>
      <point x="362.0" y="1117.0" type="line"/>
      <point x="273.33333333333337" y="1117.0" type="line"/>
    </contour>
  </outline>
</glyph>
<glyph name="paragraph" format="2">
  <advance height="2479.0" width="1168.0"/>
  <unicode hex="00B6"/>
  <outline>
    <contour>
      <point x="1088.6666666666667" y="1405.0" type="line"/>
      <point x="1103.6666666666667" y="1489.0" type="line"/>
      <point x="777.3333333333334" y="1489.0" type="line" smooth="yes"/>
      <point x="460.3333333333333" y="1489.0"/>
      <point x="254.33333333333334" y="1289.0"/>
      <point x="207.33333333333334" y="1021.0" type="curve" smooth="yes"/>
      <point x="161.66666666666669" y="751.0"/>
      <point x="306.3333333333333" y="553.0"/>
      <point x="623.3333333333334" y="553.0" type="curve" smooth="yes"/>
      <point x="708.3333333333334" y="553.0" type="line"/>
      <point x="847.6666666666667" y="1405.0" type="line"/>
    </contour>
    <contour>
      <point x="768.0" y="0.0" type="line"/>
      <point x="859.3333333333334" y="0.0" type="line"/>
      <point x="1106.3333333333335" y="1489.0" type="line"/>
      <point x="1015.0" y="1489.0" type="line"/>
    </contour>
  </outline>
</glyph>
<glyph name="cedilla" format="2">
  <advance height="2479.0" width="461.6666666666667"/>
  <unicode hex="00B8"/>
  <anchor x="143.33333333333334" y="0.0" name="_cedilla"/>
  <outline>
    <contour>
      <point x="104.33333333333334" y="6.0" type="line"/>
      <point x="61.33333333333332" y="-109.66666666666667" type="line"/>
      <point x="169.66666666666666" y="-111.66666666666667"/>
      <point x="214.66666666666666" y="-146.33333333333331"/>
      <point x="203.0" y="-224.0" type="curve" smooth="yes"/>
      <point x="191.66666666666666" y="-293.6666666666667"/>
      <point x="135.66666666666666" y="-325.0"/>
      <point x="33.00000000000001" y="-327.0" type="curve"/>
      <point x="24.333333333333343" y="-395.3333333333333" type="line"/>
      <point x="176.33333333333334" y="-392.6666666666667"/>
      <point x="267.00000000000006" y="-331.66666666666663"/>
      <point x="285.0" y="-222.0" type="curve" smooth="yes"/>
      <point x="301.6666666666667" y="-124.33333333333333"/>
      <point x="252.0" y="-66.66666666666667"/>
      <point x="162.33333333333334" y="-52.0" type="curve"/>
      <point x="183.33333333333337" y="6.0" type="line"/>
    </contour>
  </outline>
</glyph>
<glyph name="onesuperior" format="2">
  <advance height="2479.0" width="586.3333333333334"/>
  <unicode hex="00B9"/>
  <outline>
    <contour>
      <point x="342.33333333333337" y="745.0" type="line"/>
      <point x="423.33333333333337" y="745.0" type="line"/>
      <point x="572.3333333333334" y="1638.0" type="line"/>
      <point x="479.0" y="1638.0" type="line"/>
      <point x="243.99999999999997" y="1497.0" type="line"/>
      <point x="228.66666666666666" y="1409.0" type="line"/>
      <point x="468.0" y="1551.6666666666667" type="line"/>
      <point x="476.33333333333337" y="1551.6666666666667" type="line"/>
    </contour>
  </outline>
</glyph>
<glyph name="ordmasculine" format="2">
  <advance height="2479.0" width="839.6666666666666"/>
  <unicode hex="00BA"/>
  <outline>
    <contour>
      <point x="177.66666666666669" y="1045.3333333333333" type="line"/>
      <point x="140.66666666666669" y="834.6666666666666"/>
      <point x="244.33333333333331" y="696.0"/>
      <point x="443.3333333333333" y="696.0" type="curve" smooth="yes"/>
      <point x="648.0" y="696.0"/>
      <point x="787.3333333333334" y="828.0"/>
      <point x="825.0" y="1045.3333333333333" type="curve"/>
      <point x="839.0" y="1127.6666666666667" type="line"/>
      <point x="874.6666666666666" y="1338.3333333333333"/>
      <point x="772.0" y="1478.0"/>
      <point x="574.3333333333334" y="1478.0" type="curve" smooth="yes"/>
      <point x="368.3333333333333" y="1478.0"/>
      <point x="227.66666666666669" y="1345.0"/>
      <point x="191.00000000000003" y="1127.6666666666667" type="curve"/>
    </contour>
    <contour>
      <point x="278.33333333333337" y="1127.6666666666667" type="line"/>
      <point x="305.6666666666667" y="1290.3333333333333"/>
      <point x="411.3333333333333" y="1399.0"/>
      <point x="561.3333333333334" y="1399.0" type="curve" smooth="yes"/>
      <point x="712.0" y="1399.0"/>
      <point x="780.3333333333334" y="1294.3333333333333"/>
      <point x="751.3333333333334" y="1127.6666666666667" type="curve"/>
      <point x="738.3333333333334" y="1045.3333333333333" type="line"/>
      <point x="709.3333333333334" y="881.6666666666667"/>
      <point x="605.0" y="774.0"/>
      <point x="455.66666666666663" y="774.0" type="curve" smooth="yes"/>
      <point x="304.33333333333337" y="774.0"/>
      <point x="235.0" y="877.6666666666667"/>
      <point x="264.33333333333337" y="1045.3333333333333" type="curve"/>
    </contour>
  </outline>
</glyph>
<glyph name="AE" format="2">
  <advance height="2479.0" width="1985.3333333333333"/>
  <unicode hex="00C6"/>
  <anchor x="1465.3333333333333" y="1676.0" name="top"/>
  <outline>
    <contour>
      <point x="-31.0" y="0.0" type="line"/>
      <point x="71.66666666666669" y="0.0" type="line"/>
      <point x="1004.0" y="1405.0" type="line"/>
      <point x="1134.3333333333333" y="1405.0" type="line"/>
      <point x="902.0" y="0.0" type="line"/>
      <point x="1748.3333333333333" y="0.0" type="line"/>
      <point x="1763.0" y="84.66666666666667" type="line"/>
      <point x="1007.6666666666666" y="84.66666666666667" type="line"/>
      <point x="1109.0" y="702.6666666666666" type="line"/>
      <point x="1802.3333333333333" y="702.6666666666666" type="line"/>
      <point x="1817.0" y="787.3333333333334" type="line"/>
      <point x="1123.6666666666667" y="787.3333333333334" type="line"/>
      <point x="1226.0" y="1405.0" type="line"/>
      <point x="1963.3333333333333" y="1405.0" type="line"/>
      <point x="1978.0" y="1489.0" type="line"/>
      <point x="962.6666666666666" y="1489.0" type="line"/>
    </contour>
    <contour>
      <point x="349.0" y="476.0" type="line"/>
      <point x="1029.6666666666665" y="476.0" type="line"/>
      <point x="1044.3333333333333" y="560.6666666666666" type="line"/>
      <point x="363.6666666666667" y="560.6666666666666" type="line"/>
    </contour>
  </outline>
</glyph>
<glyph name="multiply" format="2">
  <advance height="2479.0" width="1318.6666666666667"/>
  <unicode hex="00D7"/>
  <outline>
    <contour>
      <point x="972.3333333333334" y="143.33333333333334" type="line"/>
      <point x="1036.0" y="196.66666666666666" type="line"/>
      <point x="352.33333333333337" y="1017.6666666666666" type="line"/>
      <point x="288.3333333333333" y="963.6666666666667" type="line"/>
    </contour>
    <contour>
      <point x="216.33333333333334" y="142.33333333333334" type="line"/>
      <point x="1165.6666666666665" y="955.3333333333334" type="line"/>
      <point x="1111.0" y="1018.0" type="line"/>
      <point x="161.66666666666666" y="205.66666666666666" type="line"/>
    </contour>
  </outline>
</glyph>
<glyph name="Oslash" format="2">
  <advance height="2479.0" width="1539.6666666666667"/>
  <unicode hex="00D8"/>
  <anchor x="679.6666666666666" y="-3.0" name="bottom"/>
  <anchor x="752.6666666666666" y="-5.0" name="ogonek"/>
  <anchor x="356.6666666666667" y="1484.0" name="tonos"/>
  <anchor x="950.0" y="1671.0" name="top"/>
  <outline>
    <contour>
      <point x="238.00000000000003" y="-43.66666666666667" type="line"/>
      <point x="1420.6666666666665" y="1489.3333333333333" type="line"/>
      <point x="1362.3333333333333" y="1532.0" type="line"/>
      <point x="177.99999999999997" y="-1.0" type="line"/>
    </contour>
    <component base="O" xOffset="-1.0" yOffset="-5.0"/>
  </outline>
</glyph>
<glyph name="Thorn" format="2">
  <advance height="2479.0" width="1236.6666666666667"/>
  <unicode hex="00DE"/>
  <outline>
    <contour>
      <point x="352.3333333333333" y="1489.0" type="line"/>
      <point x="104.66666666666666" y="0.0" type="line"/>
      <point x="194.0" y="0.0" type="line"/>
      <point x="441.0" y="1489.0" type="line"/>
    </contour>
    <contour>
      <point x="337.66666666666663" y="1148.3333333333333" type="line"/>
      <point x="320.99999999999994" y="1063.6666666666667" type="line"/>
      <point x="703.0" y="1063.6666666666667" type="line" smooth="yes"/>
      <point x="927.6666666666667" y="1063.6666666666667"/>
      <point x="1052.0" y="949.0"/>
      <point x="1016.3333333333334" y="747.0" type="curve" smooth="yes"/>
      <point x="980.6666666666666" y="541.3333333333334"/>
      <point x="828.6666666666666" y="433.33333333333337"/>
      <point x="603.6666666666666" y="433.33333333333337" type="curve" smooth="yes"/>
      <point x="221.66666666666666" y="433.33333333333337" type="line"/>
      <point x="205.66666666666666" y="349.3333333333333" type="line"/>
      <point x="587.6666666666666" y="349.3333333333333" type="line" smooth="yes"/>
      <point x="889.3333333333333" y="349.3333333333333"/>
      <point x="1068.3333333333333" y="518.6666666666666"/>
      <point x="1105.6666666666665" y="749.6666666666666" type="curve" smooth="yes"/>
      <point x="1141.6666666666665" y="968.3333333333333"/>
      <point x="1010.6666666666666" y="1148.3333333333333"/>
      <point x="719.6666666666666" y="1148.3333333333333" type="curve" smooth="yes"/>
    </contour>
  </outline>
</glyph>
<glyph name="germandbls" format="2">
  <advance height="2479.0" width="1200.0"/>
  <unicode hex="00DF"/>
  <outline>
    <contour>
      <point x="122.33333333333331" y="0.0" type="line"/>
      <point x="210.33333333333331" y="0.0" type="line"/>
      <point x="393.3333333333333" y="1108.0" type="line" smooth="yes"/>
      <point x="426.3333333333333" y="1303.6666666666665"/>
      <point x="564.6666666666666" y="1426.6666666666667"/>
      <point x="749.6666666666666" y="1425.3333333333333" type="curve" smooth="yes"/>
      <point x="925.6666666666666" y="1424.6666666666665"/>
      <point x="1017.0" y="1306.3333333333333"/>
      <point x="989.0" y="1134.6666666666667" type="curve" smooth="yes"/>
      <point x="956.6666666666667" y="941.0"/>
      <point x="799.3333333333334" y="806.6666666666666"/>
      <point x="595.6666666666666" y="806.6666666666666" type="curve" smooth="yes"/>
      <point x="548.6666666666666" y="806.6666666666666" type="line"/>
      <point x="534.9999999999999" y="721.6666666666666" type="line"/>
      <point x="593.3333333333334" y="721.6666666666666" type="line" smooth="yes"/>
      <point x="844.6666666666666" y="721.6666666666666"/>
      <point x="974.3333333333334" y="594.0"/>
      <point x="941.0" y="390.6666666666667" type="curve" smooth="yes"/>
      <point x="909.6666666666666" y="204.33333333333334"/>
      <point x="755.6666666666666" y="84.66666666666667"/>
      <point x="544.0" y="84.66666666666667" type="curve" smooth="yes"/>
      <point x="422.66666666666663" y="84.66666666666667" type="line"/>
      <point x="409.3333333333333" y="0.0" type="line"/>
      <point x="511.66666666666663" y="0.0" type="line" smooth="yes"/>
      <point x="798.6666666666667" y="0.0"/>
      <point x="988.6666666666666" y="148.0"/>
      <point x="1030.0" y="396.6666666666667" type="curve" smooth="yes"/>
      <point x="1063.0" y="596.0"/>
      <point x="953.0" y="737.6666666666666"/>
      <point x="752.6666666666666" y="770.6666666666666" type="curve"/>
      <point x="753.6666666666666" y="779.3333333333334" type="line"/>
      <point x="925.3333333333334" y="826.3333333333333"/>
      <point x="1047.0000000000002" y="951.3333333333333"/>
      <point x="1077.0" y="1136.6666666666665" type="curve" smooth="yes"/>
      <point x="1113.6666666666667" y="1361.0"/>
      <point x="980.0" y="1510.0"/>
      <point x="757.3333333333334" y="1510.0" type="curve" smooth="yes"/>
      <point x="524.6666666666667" y="1510.0"/>
      <point x="348.0" y="1360.3333333333333"/>
      <point x="307.66666666666663" y="1116.0" type="curve" smooth="yes"/>
    </contour>
  </outline>
</glyph>
<glyph name="ae" format="2">
  <advance height="2479.0" width="1906.6666666666667"/>
  <unicode hex="00E6"/>
  <anchor x="1064.0000000000002" y="1303.0" name="top"/>
  <outline>
    <contour>
      <point x="1229.0" y="-23.0" type="curve"/>
      <point x="1449.6666666666667" y="-23.0"/>
      <point x="1605.6666666666665" y="105.33333333333333"/>
      <point x="1673.3333333333333" y="218.33333333333334" type="curve"/>
      <point x="1599.6666666666667" y="251.0" type="line"/>
      <point x="1543.6666666666667" y="167.66666666666666"/>
      <point x="1425.6666666666667" y="59.0"/>
      <point x="1243.0" y="59.0" type="curve" smooth="yes"/>
      <point x="985.9999999999999" y="59.0"/>
      <point x="867.0" y="269.0"/>
      <point x="913.3333333333334" y="548.6666666666666" type="curve" smooth="yes"/>
      <point x="919.0" y="585.6666666666666" type="line" smooth="yes"/>
      <point x="966.0" y="844.6666666666666"/>
      <point x="1162.6666666666667" y="1051.0"/>
      <point x="1385.0" y="1051.0" type="curve"/>
      <point x="1598.3333333333333" y="1051.0"/>
      <point x="1729.0" y="861.3333333333334"/>
      <point x="1689.0" y="619.6666666666666" type="curve"/>
      <point x="900.3333333333334" y="619.6666666666666" type="line"/>
      <point x="886.3333333333334" y="539.3333333333334" type="line"/>
      <point x="1764.6666666666667" y="539.3333333333334" type="line"/>
      <point x="1774.6666666666667" y="594.3333333333334" type="line" smooth="yes"/>
      <point x="1828.6666666666667" y="925.0"/>
      <point x="1649.3333333333333" y="1134.0"/>
      <point x="1399.0" y="1134.0" type="curve" smooth="yes"/>
      <point x="1207.0" y="1134.0"/>
      <point x="1038.6666666666665" y="1016.0"/>
      <point x="934.6666666666666" y="831.6666666666666" type="curve"/>
      <point x="830.0" y="325.0" type="line"/>
      <point x="853.3333333333334" y="118.33333333333333"/>
      <point x="997.0" y="-23.0"/>
    </contour>
    <contour>
      <point x="406.33333333333337" y="58.0" type="curve" smooth="yes"/>
      <point x="250.33333333333331" y="58.0"/>
      <point x="147.0" y="152.33333333333334"/>
      <point x="172.0" y="304.6666666666667" type="curve" smooth="yes"/>
      <point x="196.0" y="443.0"/>
      <point x="310.0" y="516.6666666666666"/>
      <point x="559.6666666666667" y="545.6666666666666" type="curve" smooth="yes"/>
      <point x="669.0" y="558.6666666666666"/>
      <point x="805.0" y="579.0"/>
      <point x="857.3333333333334" y="617.6666666666666" type="curve"/>
      <point x="829.3333333333334" y="452.6666666666667" type="line" smooth="yes"/>
      <point x="792.3333333333334" y="226.33333333333334"/>
      <point x="615.6666666666666" y="58.0"/>
    </contour>
    <contour>
      <point x="384.0" y="-24.0" type="curve" smooth="yes"/>
      <point x="561.6666666666666" y="-24.0"/>
      <point x="758.6666666666666" y="80.33333333333333"/>
      <point x="853.3333333333334" y="300.66666666666663" type="curve"/>
      <point x="864.0" y="300.66666666666663" type="line"/>
      <point x="974.3333333333334" y="831.0" type="line"/>
      <point x="985.0" y="1029.0"/>
      <point x="842.6666666666666" y="1134.0"/>
      <point x="651.6666666666666" y="1134.0" type="curve" smooth="yes"/>
      <point x="479.3333333333333" y="1134.0"/>
      <point x="304.6666666666667" y="1055.6666666666667"/>
      <point x="214.33333333333334" y="895.3333333333334" type="curve"/>
      <point x="292.00000000000006" y="864.0" type="line"/>
      <point x="354.3333333333333" y="974.3333333333334"/>
      <point x="479.6666666666667" y="1052.0"/>
      <point x="638.6666666666666" y="1052.0" type="curve" smooth="yes"/>
      <point x="819.0" y="1052.0"/>
      <point x="912.3333333333334" y="948.6666666666666"/>
      <point x="885.3333333333334" y="786.3333333333334" type="curve" smooth="yes"/>
      <point x="877.3333333333334" y="740.0" type="line" smooth="yes"/>
      <point x="863.3333333333334" y="654.6666666666666"/>
      <point x="735.6666666666666" y="644.6666666666666"/>
      <point x="562.3333333333334" y="624.6666666666666" type="curve" smooth="yes"/>
      <point x="258.6666666666667" y="588.6666666666666"/>
      <point x="115.33333333333331" y="493.6666666666667"/>
      <point x="83.33333333333333" y="307.6666666666667" type="curve" smooth="yes"/>
      <point x="50.33333333333333" y="95.0"/>
      <point x="191.0" y="-24.0"/>
    </contour>
  </outline>
</glyph>
<glyph name="eth" format="2">
  <advance height="2479.0" width="1205.6666666666667"/>
  <unicode hex="00F0"/>
  <outline>
    <contour>
      <point x="1124.6666666666667" y="1445.0" type="line"/>
      <point x="1110.0000000000002" y="1512.6666666666667" type="line"/>
      <point x="486.33333333333337" y="1244.0" type="line"/>
      <point x="500.0" y="1176.3333333333333" type="line"/>
    </contour>
    <contour>
      <point x="507.6666666666667" y="-23.0" type="curve" smooth="yes"/>
      <point x="785.0" y="-23.0"/>
      <point x="1024.3333333333333" y="194.0"/>
      <point x="1081.6666666666665" y="547.6666666666666" type="curve" smooth="yes"/>
      <point x="1154.3333333333333" y="992.6666666666666"/>
      <point x="937.0" y="1382.6666666666667"/>
      <point x="591.0000000000001" y="1583.0" type="curve"/>
      <point x="544.3333333333333" y="1510.6666666666667" type="line"/>
      <point x="827.0" y="1345.6666666666667"/>
      <point x="970.3333333333334" y="1092.3333333333333"/>
      <point x="1012.0" y="832.6666666666666" type="curve"/>
      <point x="1002.0" y="832.6666666666666" type="line"/>
      <point x="949.0" y="965.0"/>
      <point x="835.6666666666667" y="1057.0"/>
      <point x="671.6666666666666" y="1057.0" type="curve" smooth="yes"/>
      <point x="408.33333333333337" y="1057.0"/>
      <point x="166.66666666666666" y="828.3333333333333"/>
      <point x="115.0" y="516.6666666666666" type="curve" smooth="yes"/>
      <point x="64.66666666666666" y="211.66666666666669"/>
      <point x="231.00000000000003" y="-23.0"/>
    </contour>
    <contour>
      <point x="521.0" y="59.0" type="curve" smooth="yes"/>
      <point x="282.33333333333337" y="59.0"/>
      <point x="161.66666666666666" y="262.0"/>
      <point x="203.0" y="516.6666666666666" type="curve" smooth="yes"/>
      <point x="244.66666666666666" y="769.6666666666666"/>
      <point x="444.3333333333333" y="978.3333333333334"/>
      <point x="673.6666666666666" y="978.3333333333334" type="curve" smooth="yes"/>
      <point x="912.3333333333334" y="978.3333333333334"/>
      <point x="1032.0" y="763.6666666666666"/>
      <point x="990.3333333333334" y="512.6666666666666" type="curve" smooth="yes"/>
      <point x="948.0" y="260.6666666666667"/>
      <point x="751.6666666666666" y="59.0"/>
    </contour>
  </outline>
</glyph>
<glyph name="divide" format="2">
  <advance height="2479.0" width="1318.6666666666667"/>
  <unicode hex="00F7"/>
  <outline>
    <contour>
      <point x="1107.3333333333333" y="624.3333333333334" type="line"/>
      <point x="235.0" y="624.3333333333334" type="line"/>
      <point x="220.33333333333334" y="539.3333333333334" type="line"/>
      <point x="1092.6666666666665" y="539.3333333333334" type="line"/>
    </contour>
    <contour>
      <point x="601.0" y="157.33333333333331" type="curve" smooth="yes"/>
      <point x="641.6666666666667" y="157.33333333333331"/>
      <point x="679.0" y="190.0"/>
      <point x="682.0" y="231.66666666666666" type="curve" smooth="yes"/>
      <point x="685.3333333333334" y="276.3333333333333"/>
      <point x="652.3333333333334" y="313.6666666666667"/>
      <point x="608.6666666666666" y="313.6666666666667" type="curve" smooth="yes"/>
      <point x="566.3333333333334" y="313.6666666666667"/>
      <point x="530.3333333333333" y="280.0"/>
      <point x="527.6666666666666" y="239.33333333333331" type="curve" smooth="yes"/>
      <point x="524.0" y="193.66666666666666"/>
      <point x="555.6666666666666" y="157.33333333333331"/>
    </contour>
    <contour>
      <point x="716.6666666666666" y="850.3333333333334" type="curve" smooth="yes"/>
      <point x="757.3333333333334" y="850.3333333333334"/>
      <point x="793.0" y="883.0"/>
      <point x="797.0" y="924.6666666666666" type="curve" smooth="yes"/>
      <point x="801.3333333333334" y="970.0"/>
      <point x="768.0" y="1006.6666666666666"/>
      <point x="724.3333333333333" y="1006.6666666666666" type="curve" smooth="yes"/>
      <point x="682.0" y="1006.6666666666666"/>
      <point x="645.6666666666666" y="974.0"/>
      <point x="641.6666666666666" y="932.6666666666666" type="curve" smooth="yes"/>
      <point x="637.0" y="887.3333333333334"/>
      <point x="671.3333333333334" y="850.3333333333334"/>
    </contour>
  </outline>
</glyph>
<glyph name="oslash" format="2">
  <advance height="2479.0" width="1199.3333333333335"/>
  <unicode hex="00F8"/>
  <anchor x="507.0" y="2.0" name="bottom"/>
  <anchor x="587.0" y="2.0" name="ogonek"/>
  <anchor x="723.0" y="1305.0" name="top"/>
  <outline>
    <contour>
      <point x="146.33333333333334" y="-39.66666666666667" type="line"/>
      <point x="1111.0000000000002" y="1111.3333333333333" type="line"/>
      <point x="1053.6666666666667" y="1153.6666666666667" type="line"/>
      <point x="88.00000000000001" y="3.0" type="line"/>
    </contour>
    <component base="o" xOffset="0.6666666666666666" yOffset="2.0"/>
  </outline>
</glyph>
<glyph name="thorn" format="2">
  <advance height="2479.0" width="1202.6666666666667"/>
  <unicode hex="00FE"/>
  <outline>
    <contour>
      <point x="334.33333333333337" y="1489.0" type="line"/>
      <point x="17.333333333333343" y="-419.0" type="line"/>
      <point x="106.0" y="-419.0" type="line"/>
      <point x="218.33333333333334" y="255.66666666666669" type="line"/>
      <point x="249.33333333333334" y="562.6666666666666" type="line"/>
      <point x="316.0" y="838.6666666666666" type="line"/>
      <point x="423.0" y="1489.0" type="line"/>
    </contour>
    <contour>
      <point x="287.0" y="868.0" type="line"/>
      <point x="176.33333333333334" y="243.33333333333331" type="line"/>
      <point x="225.0" y="243.33333333333331" type="line"/>
      <point x="254.0" y="99.0"/>
      <point x="352.0" y="-23.0"/>
      <point x="542.3333333333334" y="-23.0" type="curve" smooth="yes"/>
      <point x="809.3333333333334" y="-23.0"/>
      <point x="1027.0" y="218.33333333333334"/>
      <point x="1083.0" y="556.0" type="curve" smooth="yes"/>
      <point x="1139.0" y="894.0"/>
      <point x="1003.3333333333334" y="1134.0"/>
      <point x="733.3333333333334" y="1134.0" type="curve" smooth="yes"/>
      <point x="540.0000000000001" y="1134.0"/>
      <point x="405.3333333333333" y="1011.3333333333333"/>
      <point x="329.6666666666667" y="868.0" type="curve"/>
    </contour>
    <contour>
      <point x="995.3333333333334" y="557.0" type="curve" smooth="yes"/>
      <point x="948.3333333333334" y="275.3333333333333"/>
      <point x="771.6666666666666" y="59.0"/>
      <point x="543.3333333333333" y="59.0" type="curve" smooth="yes"/>
      <point x="317.0" y="59.0"/>
      <point x="221.0" y="270.3333333333333"/>
      <point x="268.0" y="557.0" type="curve" smooth="yes"/>
      <point x="314.3333333333333" y="841.6666666666666"/>
      <point x="490.6666666666667" y="1051.0"/>
      <point x="718.0" y="1051.0" type="curve" smooth="yes"/>
      <point x="949.3333333333334" y="1051.0"/>
      <point x="1040.3333333333335" y="836.6666666666666"/>
    </contour>
  </outline>
</glyph>
<glyph name="dcroat" format="2">
  <advance height="2479.0" width="1242.6666666666667"/>
  <unicode hex="0111"/>
  <anchor x="510.33333333333337" y="0.0" name="bottom"/>
  <anchor x="1102.0" y="1280.0" name="cross"/>
  <anchor x="1320.6666666666667" y="1489.0" name="raccent"/>
  <anchor x="734.6666666666666" y="1489.0" name="top"/>
  <outline>
    <contour>
      <point x="742.0" y="1242.6666666666667" type="line"/>
      <point x="1323.3333333333333" y="1242.6666666666667" type="line"/>
      <point x="1337.0" y="1318.3333333333333" type="line"/>
      <point x="755.0" y="1318.3333333333333" type="line"/>
    </contour>
    <component base="d"/>
  </outline>
</glyph>
<glyph name="Hbar" format="2">
  <advance height="2479.0" width="1548.3333333333333"/>
  <unicode hex="0126"/>
  <anchor x="679.6666666666666" y="0.0" name="bottom"/>
  <anchor x="191.99999999999997" y="-4.0" name="cedilla"/>
  <anchor x="1261.0" y="25.333333333333336" name="cyrtic"/>
  <anchor x="1219.0" y="0.0" name="right"/>
  <anchor x="351.3333333333333" y="1489.0" name="tonos"/>
  <anchor x="962.3333333333333" y="1677.0" name="top"/>
  <outline>
    <contour>
      <point x="1522.6666666666667" y="1111.0" type="line"/>
      <point x="208.99999999999997" y="1111.0" type="line"/>
      <point x="194.99999999999997" y="1030.0" type="line"/>
      <point x="1509.0" y="1030.0" type="line"/>
    </contour>
    <component base="H" xOffset="18.666666666666668"/>
  </outline>
</glyph>
<glyph name="idotless" format="2">
  <advance height="2479.0" width="464.6666666666667"/>
  <unicode hex="0131"/>
  <anchor x="139.66666666666666" y="0.0" name="bottom"/>
  <anchor x="236.66666666666666" y="585.6666666666666" name="cross"/>
  <anchor x="183.33333333333331" y="0.0" name="ogonek"/>
  <anchor x="355.66666666666663" y="1304.0" name="top"/>
  <outline>
    <contour>
      <point x="95.33333333333334" y="0.0" type="line"/>
      <point x="183.33333333333331" y="0.0" type="line"/>
      <point x="369.3333333333333" y="1117.0" type="line"/>
      <point x="281.33333333333337" y="1117.0" type="line"/>
    </contour>
  </outline>
</glyph>
<glyph name="Lslash" format="2">
  <advance height="2479.0" width="1120.6666666666667"/>
  <unicode hex="0141"/>
  <anchor x="491.3333333333333" y="0.0" name="bottom"/>
  <anchor x="253.0" y="768.0" name="cross"/>
  <anchor x="596.3333333333334" y="763.3333333333334" name="dot"/>
  <anchor x="732.3333333333333" y="1489.0" name="raccent"/>
  <anchor x="405.33333333333337" y="1676.0" name="top"/>
  <outline>
    <contour>
      <point x="552.6666666666666" y="899.6666666666667" type="line"/>
      <point x="30.0" y="713.6666666666667" type="line"/>
      <point x="38.0" y="640.0" type="line"/>
      <point x="558.6666666666666" y="826.0" type="line"/>
    </contour>
    <component base="L" xOffset="-42.666666666666664"/>
  </outline>
</glyph>
<glyph name="lslash" format="2">
  <advance height="2479.0" width="431.3333333333333"/>
  <unicode hex="0142"/>
  <anchor x="124.0" y="0.0" name="bottom"/>
  <anchor x="252.33333333333334" y="768.0" name="cross"/>
  <anchor x="555.6666666666667" y="1489.0" name="raccent"/>
  <anchor x="402.6666666666667" y="1676.0" name="top"/>
  <outline>
    <contour>
      <point x="486.6666666666667" y="896.3333333333334" type="line"/>
      <point x="31.666666666666664" y="711.6666666666666" type="line"/>
      <point x="13.333333333333332" y="632.3333333333334" type="line"/>
      <point x="475.0" y="816.3333333333333" type="line"/>
    </contour>
    <component base="l" xOffset="-11.333333333333332"/>
  </outline>
</glyph>
<glyph name="Eng" format="2">
  <advance height="2479.0" width="1569.6666666666665"/>
  <unicode hex="014A"/>
  <anchor x="691.3333333333334" y="0.0" name="bottom"/>
  <anchor x="1226.3333333333335" y="0.0" name="right"/>
  <anchor x="970.3333333333334" y="1676.0" name="top"/>
  <outline>
    <contour>
      <point x="1171.3333333333333" y="0.0" type="line"/>
      <point x="1144.3333333333333" y="-151.33333333333331" type="line" smooth="yes"/>
      <point x="1121.0" y="-279.3333333333333"/>
      <point x="1056.3333333333333" y="-335.3333333333333"/>
      <point x="954.3333333333334" y="-335.3333333333333" type="curve" smooth="yes"/>
      <point x="934.3333333333333" y="-335.3333333333333"/>
      <point x="916.3333333333333" y="-333.0"/>
      <point x="902.6666666666666" y="-330.0" type="curve"/>
      <point x="890.3333333333334" y="-410.0" type="line"/>
      <point x="907.0" y="-415.6666666666667"/>
      <point x="933.6666666666667" y="-417.0"/>
      <point x="960.3333333333334" y="-417.0" type="curve" smooth="yes"/>
      <point x="1101.6666666666667" y="-417.0"/>
      <point x="1202.0" y="-326.0"/>
      <point x="1233.6666666666667" y="-152.33333333333331" type="curve" smooth="yes"/>
      <point x="1260.6666666666667" y="0.0" type="line"/>
    </contour>
    <component base="N"/>
  </outline>
</glyph>
<glyph name="eng" format="2">
  <advance height="2479.0" width="1179.0"/>
  <unicode hex="014B"/>
  <anchor x="494.66666666666663" y="0.0" name="bottom"/>
  <anchor x="711.6666666666666" y="1303.0" name="top"/>
  <outline>
    <contour>
      <point x="809.6666666666666" y="0.0" type="line"/>
      <point x="784.6666666666666" y="-154.33333333333331" type="line" smooth="yes"/>
      <point x="763.6666666666666" y="-279.0"/>
      <point x="691.0" y="-338.3333333333333"/>
      <point x="598.0" y="-338.3333333333333" type="curve" smooth="yes"/>
      <point x="577.3333333333334" y="-338.3333333333333"/>
      <point x="552.3333333333334" y="-335.3333333333333"/>
      <point x="533.6666666666666" y="-329.0" type="curve"/>
      <point x="518.6666666666666" y="-407.3333333333333" type="line"/>
      <point x="539.0" y="-416.3333333333333"/>
      <point x="567.0" y="-419.0"/>
      <point x="597.3333333333334" y="-419.0" type="curve" smooth="yes"/>
      <point x="737.6666666666666" y="-419.0"/>
      <point x="844.3333333333334" y="-327.0"/>
      <point x="872.6666666666666" y="-154.33333333333331" type="curve" smooth="yes"/>
      <point x="898.0" y="0.0" type="line"/>
    </contour>
    <component base="n"/>
  </outline>
</glyph>
<glyph name="OE" format="2">
  <advance height="2479.0" width="1906.6666666666665"/>
  <unicode hex="0152"/>
  <anchor x="1212.0" y="0.0" name="bottom"/>
  <anchor x="1215.0" y="0.0" name="cedilla"/>
  <anchor x="1669.6666666666665" y="0.0" name="ogonek"/>
  <anchor x="1020.3333333333334" y="1489.0" name="tonos"/>
  <anchor x="1517.3333333333335" y="1676.0" name="top"/>
  <outline>
    <contour>
      <point x="674.0" y="0.0" type="curve" smooth="yes"/>
      <point x="863.0" y="0.0" type="line"/>
      <point x="878.6666666666666" y="84.66666666666667" type="line"/>
      <point x="689.6666666666666" y="84.66666666666667" type="line" smooth="yes"/>
      <point x="360.0" y="84.66666666666667"/>
      <point x="191.33333333333334" y="348.0"/>
      <point x="258.3333333333333" y="745.0" type="curve" smooth="yes"/>
      <point x="325.0" y="1139.6666666666667"/>
      <point x="586.9999999999999" y="1407.0"/>
      <point x="907.0" y="1405.0" type="curve" smooth="yes"/>
      <point x="1095.9999999999998" y="1405.0" type="line"/>
      <point x="1110.6666666666665" y="1489.0" type="line"/>
      <point x="921.3333333333334" y="1489.0" type="line" smooth="yes"/>
      <point x="542.6666666666666" y="1489.0"/>
      <point x="243.0" y="1193.6666666666667"/>
      <point x="168.66666666666669" y="745.0" type="curve" smooth="yes"/>
      <point x="96.00000000000001" y="302.0"/>
      <point x="299.6666666666667" y="0.0"/>
    </contour>
    <component base="E" xOffset="701.0"/>
  </outline>
</glyph>
<glyph name="tbar" format="2">
  <advance height="2479.0" width="735.0"/>
  <unicode hex="0167"/>
  <anchor x="346.6666666666667" y="0.0" name="bottom"/>
  <anchor x="391.6666666666667" y="0.0" name="cedilla"/>
  <anchor x="657.3333333333334" y="1562.0" name="raccent"/>
  <anchor x="466.0" y="1489.0" name="top"/>
  <outline>
    <contour>
      <point x="110.0" y="670.3333333333334" type="line"/>
      <point x="627.0" y="670.3333333333334" type="line"/>
      <point x="640.6666666666667" y="745.6666666666666" type="line"/>
      <point x="125.66666666666666" y="745.6666666666666" type="line"/>
    </contour>
    <component base="t" xOffset="11.333333333333332"/>
  </outline>
</glyph>
<glyph name="Btopbar" format="2">
  <advance height="2479.0" width="1337.6666666666667"/>
  <unicode hex="0182"/>
  <outline>
    <contour>
      <point x="122.33333333333331" y="0.0" type="line"/>
      <point x="680.6666666666666" y="0.0" type="line" smooth="yes"/>
      <point x="965.0000000000001" y="0.0"/>
      <point x="1149.6666666666667" y="157.33333333333334"/>
      <point x="1191.0" y="410.33333333333337" type="curve" smooth="yes"/>
      <point x="1230.3333333333335" y="648.0"/>
      <point x="1084.0" y="806.0"/>
      <point x="814.6666666666666" y="806.0" type="curve" smooth="yes"/>
      <point x="347.3333333333333" y="806.0" type="line"/>
      <point x="446.3333333333333" y="1405.0" type="line"/>
      <point x="1193.6666666666667" y="1405.0" type="line"/>
      <point x="1208.3333333333335" y="1489.0" type="line"/>
      <point x="369.66666666666663" y="1489.0" type="line"/>
    </contour>
    <contour>
      <point x="227.99999999999997" y="83.66666666666667" type="line"/>
      <point x="332.66666666666663" y="721.3333333333334" type="line"/>
      <point x="800.0" y="721.3333333333334" type="line" smooth="yes"/>
      <point x="1018.3333333333334" y="721.3333333333334"/>
      <point x="1131.3333333333333" y="596.3333333333334"/>
      <point x="1100.6666666666667" y="413.33333333333337" type="curve" smooth="yes"/>
      <point x="1068.0" y="219.0"/>
      <point x="918.0" y="83.66666666666667"/>
      <point x="695.3333333333333" y="83.66666666666667" type="curve" smooth="yes"/>
    </contour>
  </outline>
</glyph>
<glyph name="btopbar" format="2">
  <advance height="2479.0" width="1240.3333333333333"/>
  <unicode hex="0183"/>
  <anchor x="565.3333333333333" y="0.0" name="bottom"/>
  <anchor x="379.0" y="1280.0" name="cross"/>
  <anchor x="791.0" y="1303.0" name="top"/>
  <outline>
    <contour>
      <point x="1145.3333333333333" y="1489.0" type="line"/>
      <point x="434.3333333333333" y="1489.0" type="line"/>
      <point x="418.66666666666663" y="1405.0" type="line"/>
      <point x="1130.6666666666665" y="1405.0" type="line"/>
    </contour>
    <component base="b"/>
  </outline>
</glyph>
<glyph name="Tonesix" format="2">
  <advance height="2479.0" width="1347.6666666666667"/>
  <unicode hex="0184"/>
  <outline>
    <contour>
      <point x="594.6666666666667" y="1489.0" type="line"/>
      <point x="173.0" y="1489.0" type="line"/>
      <point x="158.0" y="1405.0" type="line"/>
      <point x="588.0000000000001" y="1405.0" type="line"/>
    </contour>
    <contour>
      <point x="461.6666666666667" y="806.0" type="line"/>
      <point x="447.0" y="721.3333333333334" type="line"/>
      <point x="943.6666666666666" y="721.3333333333334" type="line"/>
      <point x="1161.0" y="721.3333333333334"/>
      <point x="1274.0" y="596.3333333333334"/>
      <point x="1244.3333333333333" y="413.33333333333337" type="curve"/>
      <point x="1211.0" y="219.0"/>
      <point x="1061.0" y="83.66666666666667"/>
      <point x="839.0" y="83.66666666666667" type="curve"/>
      <point x="371.6666666666667" y="83.66666666666667" type="line"/>
      <point x="603.3333333333334" y="1489.0" type="line"/>
      <point x="513.3333333333334" y="1489.0" type="line"/>
      <point x="265.33333333333337" y="0.0" type="line"/>
      <point x="824.3333333333334" y="0.0" type="line"/>
      <point x="1107.6666666666667" y="0.0"/>
      <point x="1292.3333333333333" y="158.0"/>
      <point x="1334.0" y="410.33333333333337" type="curve"/>
      <point x="1373.3333333333333" y="648.6666666666667"/>
      <point x="1226.3333333333333" y="806.0"/>
      <point x="957.6666666666666" y="806.0" type="curve"/>
    </contour>
  </outline>
</glyph>
<glyph name="tonesix" format="2">
  <advance height="2479.0" width="1163.6666666666665"/>
  <unicode hex="0185"/>
  <outline>
    <contour>
      <point x="613.6666666666666" y="-23.0" type="curve" smooth="yes"/>
      <point x="815.3333333333334" y="-23.0"/>
      <point x="975.6666666666666" y="158.0"/>
      <point x="1016.9999999999999" y="409.0" type="curve" smooth="yes"/>
      <point x="1060.6666666666665" y="669.0"/>
      <point x="951.3333333333334" y="847.0"/>
      <point x="756.3333333333333" y="847.3333333333334" type="curve" smooth="yes"/>
      <point x="620.6666666666666" y="847.0"/>
      <point x="513.3333333333333" y="753.6666666666666"/>
      <point x="459.0" y="644.3333333333334" type="curve"/>
      <point x="452.3333333333333" y="644.3333333333334" type="line"/>
      <point x="530.3333333333334" y="1117.0" type="line"/>
      <point x="445.33333333333337" y="1117.0" type="line"/>
      <point x="435.6666666666667" y="1060.6666666666665" type="line"/>
      <point x="432.33333333333337" y="1054.6666666666665" type="line"/>
      <point x="256.6666666666667" y="0.6666666666666666" type="line"/>
      <point x="342.0" y="0.6666666666666666" type="line"/>
      <point x="367.66666666666663" y="168.66666666666666" type="line"/>
      <point x="375.66666666666663" y="168.66666666666666" type="line"/>
      <point x="399.3333333333333" y="53.99999999999999"/>
      <point x="481.66666666666663" y="-23.0"/>
    </contour>
    <contour>
      <point x="605.0" y="59.0" type="curve" smooth="yes"/>
      <point x="442.6666666666667" y="60.333333333333336"/>
      <point x="379.3333333333333" y="206.33333333333334"/>
      <point x="413.3333333333333" y="416.3333333333333" type="curve" smooth="yes"/>
      <point x="444.0" y="608.6666666666666"/>
      <point x="568.3333333333334" y="765.3333333333333"/>
      <point x="730.0" y="764.6666666666666" type="curve" smooth="yes"/>
      <point x="891.0" y="765.3333333333333"/>
      <point x="963.0" y="611.3333333333334"/>
      <point x="928.3333333333333" y="410.0" type="curve" smooth="yes"/>
      <point x="894.3333333333333" y="200.33333333333334"/>
      <point x="759.6666666666667" y="60.333333333333336"/>
    </contour>
    <contour>
      <point x="127.66666666666667" y="745.6666666666666" type="line"/>
      <point x="493.6666666666667" y="1058.6666666666667" type="line"/>
      <point x="445.33333333333337" y="1117.0" type="line"/>
      <point x="78.0" y="803.3333333333334" type="line"/>
    </contour>
  </outline>
</glyph>
<glyph name="Chook" format="2">
  <advance height="2479.0" width="1489.3333333333333"/>
  <unicode hex="0187"/>
  <anchor x="677.6666666666666" y="-4.0" name="cedilla"/>
  <anchor x="955.0" y="1676.0" name="top"/>
  <outline>
    <contour>
      <point x="1423.6666666666667" y="1024.0" type="line"/>
      <point x="1463.6666666666667" y="1260.6666666666667" type="line" smooth="yes"/>
      <point x="1482.6666666666667" y="1375.6666666666667"/>
      <point x="1540.3333333333333" y="1413.6666666666667"/>
      <point x="1614.3333333333335" y="1413.6666666666667" type="curve" smooth="yes"/>
      <point x="1630.3333333333335" y="1413.6666666666667"/>
      <point x="1648.0" y="1412.3333333333333"/>
      <point x="1664.6666666666667" y="1409.3333333333333" type="curve"/>
      <point x="1677.6666666666667" y="1488.3333333333335" type="line"/>
      <point x="1658.3333333333333" y="1493.3333333333333"/>
      <point x="1634.3333333333333" y="1494.6666666666667"/>
      <point x="1612.3333333333333" y="1494.6666666666667" type="curve" smooth="yes"/>
      <point x="1491.3333333333333" y="1494.6666666666667"/>
      <point x="1401.3333333333335" y="1417.3333333333333"/>
      <point x="1375.0" y="1262.6666666666667" type="curve" smooth="yes"/>
      <point x="1335.0" y="1024.0" type="line"/>
    </contour>
    <component base="C"/>
  </outline>
</glyph>
<glyph name="chook" format="2">
  <advance height="2479.0" width="1206.3333333333333"/>
  <unicode hex="0188"/>
  <anchor x="504.3333333333333" y="0.0" name="cedilla"/>
  <anchor x="715.3333333333333" y="1303.0" name="top"/>
  <outline>
    <contour>
      <point x="1053.3333333333335" y="788.3333333333334" type="line"/>
      <point x="1081.3333333333335" y="951.3333333333334" type="line" smooth="yes"/>
      <point x="1101.0000000000002" y="1067.3333333333333"/>
      <point x="1158.6666666666667" y="1114.3333333333333"/>
      <point x="1255.3333333333335" y="1114.3333333333333" type="curve" smooth="yes"/>
      <point x="1273.0" y="1114.3333333333333"/>
      <point x="1297.6666666666667" y="1112.0"/>
      <point x="1320.0" y="1109.0" type="curve"/>
      <point x="1332.3333333333333" y="1189.0" type="line"/>
      <point x="1308.3333333333335" y="1194.0"/>
      <point x="1277.6666666666667" y="1194.6666666666667"/>
      <point x="1253.6666666666667" y="1194.6666666666667" type="curve" smooth="yes"/>
      <point x="1113.6666666666665" y="1194.6666666666667"/>
      <point x="1021.6666666666666" y="1115.0"/>
      <point x="993.0" y="951.3333333333334" type="curve" smooth="yes"/>
      <point x="964.6666666666666" y="788.3333333333334" type="line"/>
    </contour>
    <component base="c"/>
  </outline>
</glyph>
<glyph name="Dhook" format="2">
  <advance height="2479.0" width="1719.0"/>
  <unicode hex="018A"/>
  <anchor x="728.3333333333333" y="0.0" name="bottom"/>
  <anchor x="557.0" y="760.0" name="cross"/>
  <anchor x="1126.0000000000002" y="1676.0" name="top"/>
  <outline>
    <contour>
      <point x="220.33333333333331" y="1183.3333333333333" type="line"/>
      <point x="307.3333333333333" y="1183.3333333333333" type="line"/>
      <point x="313.6666666666667" y="1219.0" type="line" smooth="yes"/>
      <point x="331.0" y="1332.6666666666665"/>
      <point x="370.00000000000006" y="1405.0"/>
      <point x="486.3333333333333" y="1405.0" type="curve" smooth="yes"/>
      <point x="628.3333333333333" y="1405.0" type="line"/>
      <point x="644.9999999999999" y="1489.0" type="line"/>
      <point x="498.0" y="1489.0" type="line" smooth="yes"/>
      <point x="341.3333333333333" y="1489.0"/>
      <point x="252.33333333333334" y="1390.0"/>
      <point x="231.33333333333331" y="1251.0" type="curve" smooth="yes"/>
    </contour>
    <component base="D" xOffset="251.66666666666666"/>
  </outline>
</glyph>
<glyph name="Dtopbar" format="2">
  <advance height="2479.0" width="1358.3333333333335"/>
  <unicode hex="018B"/>
  <outline>
    <contour>
      <point x="496.66666666666663" y="0.0" type="curve" smooth="yes"/>
      <point x="1052.0" y="0.0" type="line"/>
      <point x="1298.0" y="1489.0" type="line"/>
      <point x="459.0" y="1489.0" type="line"/>
      <point x="445.6666666666667" y="1405.0" type="line"/>
      <point x="1193.3333333333333" y="1405.0" type="line"/>
      <point x="1093.6666666666667" y="806.0" type="line"/>
      <point x="624.0" y="806.0" type="line" smooth="yes"/>
      <point x="349.0" y="806.0"/>
      <point x="160.0" y="655.3333333333333"/>
      <point x="120.33333333333334" y="421.6666666666667" type="curve" smooth="yes"/>
      <point x="79.33333333333334" y="166.66666666666666"/>
      <point x="218.33333333333334" y="0.0"/>
    </contour>
    <contour>
      <point x="503.99999999999994" y="83.66666666666667" type="line" smooth="yes"/>
      <point x="281.66666666666663" y="83.66666666666667"/>
      <point x="177.66666666666666" y="216.33333333333334"/>
      <point x="210.0" y="413.0" type="curve" smooth="yes"/>
      <point x="240.33333333333334" y="593.6666666666667"/>
      <point x="398.66666666666663" y="721.3333333333334"/>
      <point x="616.0" y="721.3333333333334" type="curve" smooth="yes"/>
      <point x="1080.0" y="721.3333333333334" type="line"/>
      <point x="974.6666666666666" y="83.66666666666667" type="line"/>
    </contour>
  </outline>
</glyph>
<glyph name="dtopbar" format="2">
  <advance height="2479.0" width="1241.3333333333335"/>
  <unicode hex="018C"/>
  <anchor x="475.6666666666667" y="0.0" name="bottom"/>
  <anchor x="1100.3333333333333" y="1280.0" name="cross"/>
  <anchor x="693.3333333333334" y="1303.0" name="top"/>
  <outline>
    <contour>
      <point x="403.6666666666667" y="1489.0" type="line"/>
      <point x="390.3333333333333" y="1405.0" type="line"/>
      <point x="1101.0000000000002" y="1405.0" type="line"/>
      <point x="1114.3333333333335" y="1489.0" type="line"/>
    </contour>
    <contour>
      <point x="932.0" y="0.0" type="line"/>
      <point x="1179.6666666666667" y="1489.0" type="line"/>
      <point x="1091.0000000000002" y="1489.0" type="line"/>
      <point x="988.0" y="868.0" type="line"/>
      <point x="979.0" y="868.0" type="line"/>
      <point x="952.0" y="1011.3333333333334"/>
      <point x="855.0" y="1134.0"/>
      <point x="664.0" y="1134.0" type="curve" smooth="yes"/>
      <point x="394.6666666666667" y="1134.0"/>
      <point x="177.33333333333331" y="892.0"/>
      <point x="122.33333333333333" y="556.0" type="curve" smooth="yes"/>
      <point x="66.0" y="217.0"/>
      <point x="202.66666666666666" y="-23.0"/>
      <point x="471.6666666666667" y="-23.0" type="curve" smooth="yes"/>
      <point x="663.3333333333333" y="-23.0"/>
      <point x="799.6666666666666" y="99.66666666666667"/>
      <point x="876.3333333333334" y="243.33333333333331" type="curve"/>
      <point x="886.3333333333334" y="243.33333333333331" type="line"/>
      <point x="846.0" y="0.0" type="line"/>
    </contour>
    <contour>
      <point x="938.0" y="557.0" type="curve" smooth="yes"/>
      <point x="890.0" y="270.3333333333333"/>
      <point x="719.3333333333334" y="59.0"/>
      <point x="492.3333333333333" y="59.0" type="curve" smooth="yes"/>
      <point x="262.6666666666667" y="59.0"/>
      <point x="163.66666666666666" y="275.3333333333333"/>
      <point x="210.66666666666666" y="557.0" type="curve" smooth="yes"/>
      <point x="256.6666666666667" y="836.6666666666666"/>
      <point x="427.0" y="1051.0"/>
      <point x="656.6666666666666" y="1051.0" type="curve" smooth="yes"/>
      <point x="884.3333333333334" y="1051.0"/>
      <point x="984.6666666666667" y="841.6666666666666"/>
    </contour>
  </outline>
</glyph>
